<svg xmlns="http://www.w3.org/2000/svg">
<defs>
<font id="SR Rojee NP">
<font-face font-family="SR Rojee NP" units-per-em="1000" ascent="568" descent="-196" font-style="normal" font-weight="500" font-stretch="normal" cap-height="503" x-height="337" underline-position="-123" underline-thickness="20"/>

<glyph glyph-name="space" unicode=" " horiz-adv-x="337" d=""/>
<glyph glyph-name="exclam" unicode="!" horiz-adv-x="261" d="M211 403 Q211 400 210 391 Q209 382 206.5 370 Q204 358 201 344.5 Q198 331 195 321 Q189 303 182 280 Q175 257 167.5 232.5 Q160 208 152 183.5 Q144 159 135 138 Q134 135 136 130 Q138 125 138 122 Q135 119 133.5 116 Q132 113 124 113 Q116 113 116 113.5 Q116 114 109 118 Q109 120 107 124.5 Q105 129 105 137 Q105 140 108 152 Q111 164 115.5 180.5 Q120 197 125 215.5 Q130 234 133 249 Q134 254 138 263 Q142 272 144 282 Q152 318 157.5 358 Q163 398 169 438 L185 438 Q197 438 204 425.5 Q211 413 211 403 Z M134 19 Q134 4 124.5 1.5 Q115 -1 113 -1 Q100 -1 89.5 8.5 Q79 18 79 23 Q79 34 86.5 47 Q94 60 107 60 Q112 60 117 54.5 Q122 49 125.5 42.5 Q129 36 131.5 29 Q134 22 134 19 Z "/>
<glyph glyph-name="quotedbl" unicode="&quot;" horiz-adv-x="219" d="M205 421 Q205 418 199.5 408 Q194 398 186.5 384 Q179 370 169.5 353.5 Q160 337 153 321 Q151 319 146 314 Q141 309 133 309 Q116 309 116 326 Q116 327 122 342.5 Q128 358 137 377.5 Q146 397 155.5 415.5 Q165 434 172 441 L200 441 Q200 438 202.5 433 Q205 428 205 421 Z M129 440 Q129 435 121.5 414.5 Q114 394 103.5 371.5 Q93 349 82.5 331 Q72 313 66 313 Q58 313 51 320 Q44 327 44 332 Q44 335 50.5 349 Q57 363 66 381.5 Q75 400 84.5 419.5 Q94 439 100 453 L124 453 Q124 450 126.5 448.5 Q129 447 129 440 Z "/>
<glyph glyph-name="numbersign" unicode="#" horiz-adv-x="390" d="M372 273 Q372 265 366 260 Q360 255 353 253 Q342 251 325 251.5 Q308 252 294 245 Q280 238 268.5 221.5 Q257 205 257 196 Q257 186 264 182.5 Q271 179 281 177 Q291 175 302 173 Q313 171 321 164 L321 141 Q313 130 302 127.5 Q291 125 279.5 125 Q268 125 257 125 Q246 125 239 119 Q228 111 222 91.5 Q216 72 211 55 Q211 53 210.5 44.5 Q210 36 209 26 Q208 16 205.5 8 Q203 0 197 0 Q189 0 188 2.5 Q187 5 181 5 Q181 9 178.5 13 Q176 17 176 26 Q176 31 177.5 40 Q179 49 181.5 60 Q184 71 187 82.5 Q190 94 193 103 Q190 107 189 111.5 Q188 116 180 116 Q162 116 153.5 103 Q145 90 142 73 Q139 56 139.5 40.5 Q140 25 142 21 Q139 17 135 13 Q131 9 123 9 Q111 9 106.5 18 Q102 27 102.5 39 Q103 51 106 63.5 Q109 76 112 84 L101 97 Q92 93 80.5 85 Q69 77 61 77 Q56 77 52.5 82 Q49 87 46 93 Q43 99 41.5 105 Q40 111 40 114 Q40 129 53 139 Q66 149 82 156 Q98 163 112.5 167.5 Q127 172 130 175 Q145 189 150 214 Q144 219 135 224.5 Q126 230 117 235.5 Q108 241 101.5 246 Q95 251 95 256 Q95 269 105 276 Q115 283 128 286 Q141 289 151.5 289.5 Q162 290 164 291 Q172 295 179 316.5 Q186 338 193.5 362.5 Q201 387 210 406.5 Q219 426 231 426 Q239 426 246 417 Q253 408 253 399 Q253 394 247.5 382.5 Q242 371 235.5 358.5 Q229 346 223.5 334 Q218 322 218 318 L218 298 Q222 295 223.5 295 Q225 295 233 295 Q253 295 262 311 Q271 327 277.5 346 Q284 365 291 381 Q298 397 314 397 Q320 397 323.5 393.5 Q327 390 329.5 386 Q332 382 333 378 Q334 374 334 373 Q334 364 326.5 348 Q319 332 312 317 Q321 308 333 307 Q345 306 350 303 Q352 301 362 300.5 Q372 300 372 293 L372 273 Z M227 220 Q224 224 220 226 Q216 228 212 232 Q206 228 198.5 223.5 Q191 219 185 211 L185 184 L204 184 Q214 192 217.5 202 Q221 212 227 220 Z "/>
<glyph glyph-name="dollar" unicode="$" horiz-adv-x="344" d="M312 286 Q310 279 304 271.5 Q298 264 289.5 258 Q281 252 271.5 248 Q262 244 253 244 Q244 244 233 252 Q222 260 213 260 Q208 260 207 259.5 Q206 259 206 258 Q206 257 205.5 256.5 Q205 256 200 256 Q191 256 185 263.5 Q179 271 170 271 Q161 271 148.5 263.5 Q136 256 136 250 Q136 246 152 237 Q168 228 186.5 217.5 Q205 207 221 197.5 Q237 188 237 185 Q237 182 235 175 Q233 168 230 159 Q227 150 222.5 140.5 Q218 131 213 123 Q211 120 204.5 114.5 Q198 109 196 104 Q194 101 197.5 96 Q201 91 203 85 Q194 69 187 56 Q180 43 175 29.5 Q170 16 169 1 Q168 -14 171 -34 Q169 -37 164 -42.5 Q159 -48 155 -51 Q138 -46 132 -33 Q126 -20 125 -3.5 Q124 13 127 31 Q130 49 131 65 Q132 65 132 66 Q130 68 122 68 Q113 68 101 58.5 Q89 49 77 49 Q66 49 58 55.5 Q50 62 50 70 Q50 84 57 90 Q86 110 118 126 Q150 142 178 162 Q173 170 157.5 176.5 Q142 183 131 188 Q102 203 89.5 222.5 Q77 242 77 256 Q77 271 92 288 Q107 305 126 315 Q139 322 158 328.5 Q177 335 191 343 Q194 353 195 365.5 Q196 378 197 391 Q198 404 201 416 Q204 428 212 439 L247 439 Q247 418 242 402 Q237 386 237 365 Q237 358 242 346.5 Q247 335 244 324 Q258 315 276.5 304.5 Q295 294 312 286 Z "/>
<glyph glyph-name="percent" unicode="%" horiz-adv-x="566" d="M405 426 Q405 419 394 404 Q383 389 369.5 373.5 Q356 358 344 344.5 Q332 331 329 327 Q301 293 273.5 256 Q246 219 222 181.5 Q198 144 179.5 108 Q161 72 152 40 Q148 24 135.5 12.5 Q123 1 106 1 Q95 1 86.5 10.5 Q78 20 78 29 Q78 32 95 65 Q112 98 139.5 145 Q167 192 200.5 246 Q234 300 267 345.5 Q300 391 328.5 421.5 Q357 452 374 452 Q391 452 398 444.5 Q405 437 405 426 Z M190 305 Q190 296 183 290 Q176 284 165.5 280 Q155 276 143.5 274 Q132 272 124 271 Q120 282 115.5 294 Q111 306 111 315 Q111 323 114 328 Q117 333 118 345 L139 345 Q150 345 159.5 340.5 Q169 336 175.5 329.5 Q182 323 186 316 Q190 309 190 305 Z M360 98 Q360 90 352 79 Q344 68 336 57 Q332 57 323 59.5 Q314 62 306 63 Q301 76 293.5 92 Q286 108 286 117 L293 131 L311 131 Q316 131 324 128 Q332 125 340 120.5 Q348 116 354 110 Q360 104 360 98 Z "/>
<glyph glyph-name="ampersand" unicode="&amp;" horiz-adv-x="412" d="M390 256 Q351 236 309.5 212.5 Q268 189 236 163 Q231 160 232.5 149 Q234 138 232 132 Q228 117 225 100.5 Q222 84 216 67 Q210 50 200 33 Q190 16 173 0 Q159 12 154 27 Q149 42 149 58.5 Q149 75 151 91.5 Q153 108 152 123 Q151 127 147 131 Q143 135 135 135 Q127 135 127 132.5 Q127 130 120 130 Q108 130 98 140.5 Q88 151 80.5 164 Q73 177 68.5 189 Q64 201 64 204 Q64 214 74.5 227.5 Q85 241 98.5 254 Q112 267 124 276 Q136 285 138 286 Q144 288 155.5 289.5 Q167 291 172 294 Q184 299 190.5 319.5 Q197 340 201.5 363 Q206 386 210.5 404.5 Q215 423 223 423 Q238 423 243 407.5 Q248 392 248 383 Q248 379 243.5 360.5 Q239 342 233 320.5 Q227 299 222.5 280.5 Q218 262 218 258 Q218 250 224 246 Q230 242 238 242 Q242 242 261 249 Q280 256 302 265 Q324 274 343.5 281 Q363 288 367 288 L385 288 Q385 281 387.5 273 Q390 265 390 256 Z M167 222 L161 228 Q153 226 144 216.5 Q135 207 133 200 L153 200 Q156 204 159.5 205.5 Q163 207 167 210 L167 222 Z "/>
<glyph glyph-name="quotesingle" unicode="'" horiz-adv-x="115" d="M145 430 Q145 404 127.5 371.5 Q110 339 79 310 L61 310 Q61 314 59 318 Q57 322 57 331 Q57 335 62.5 347.5 Q68 360 76 376.5 Q84 393 93 411 Q102 429 108 443 Q110 446 116 451 Q122 456 129 459 Q131 451 138 445 Q145 439 145 430 Z "/>
<glyph glyph-name="parenleft" unicode="(" horiz-adv-x="318" d="M280 510 Q280 499 275 491 Q270 483 263.5 477 Q257 471 250 466.5 Q243 462 240 457 Q207 403 182 358.5 Q157 314 141 268.5 Q125 223 117 172.5 Q109 122 109 57 Q109 29 109.5 6 Q110 -17 115.5 -40 Q121 -63 132.5 -88.5 Q144 -114 167 -145 Q171 -150 174 -164 Q177 -178 177 -191 L147 -191 Q139 -192 130 -181.5 Q121 -171 116 -163 Q105 -143 93.5 -116.5 Q82 -90 77 -62 Q74 -44 71 -21 Q68 2 65.5 24.5 Q63 47 62 65 Q61 83 61 91 Q61 98 63.5 115 Q66 132 69 152.5 Q72 173 75 195 Q78 217 78 235 Q79 253 86.5 284.5 Q94 316 106 352 Q118 388 134 425 Q150 462 168 492 Q186 522 204.5 541 Q223 560 241 560 Q255 560 267.5 545.5 Q280 531 280 510 Z "/>
<glyph glyph-name="parenright" unicode=")" horiz-adv-x="289" d="M240 353 Q240 346 238.5 329 Q237 312 235 291.5 Q233 271 230 250 Q227 229 224 213 Q221 196 215.5 174.5 Q210 153 204 130.5 Q198 108 191.5 87.5 Q185 67 180 52 Q179 48 170 29 Q161 10 148.5 -16.5 Q136 -43 121.5 -72.5 Q107 -102 93 -127 Q79 -152 67.5 -168.5 Q56 -185 51 -185 Q40 -185 38.5 -180 Q37 -175 29 -175 Q29 -169 25.5 -166 Q22 -163 22 -147 Q22 -144 34.5 -119 Q47 -94 66.5 -55.5 Q86 -17 108 31.5 Q130 80 149.5 130 Q169 180 181.5 228.5 Q194 277 194 315 Q194 329 191.5 350 Q189 371 184 389 Q180 402 174 416 Q168 430 160.5 442 Q153 454 146 462 Q139 470 134 470 Q129 470 127 468.5 Q125 467 124 465.5 Q123 464 121 463 Q119 462 114 462 Q109 462 101.5 468 Q94 474 86.5 482 Q79 490 73.5 498.5 Q68 507 68 512 Q68 532 73.5 542.5 Q79 553 87 557.5 Q95 562 104.5 562.5 Q114 563 122 563 Q158 563 181 543.5 Q204 524 217 493.5 Q230 463 235 426 Q240 389 240 353 Z "/>
<glyph glyph-name="asterisk" unicode="*" horiz-adv-x="327" d="M281 298 Q276 293 272 289.5 Q268 286 261 286 Q258 286 248.5 288.5 Q239 291 228.5 294.5 Q218 298 208 300.5 Q198 303 195 303 Q189 303 188 301.5 Q187 300 185 298 Q185 285 185.5 271.5 Q186 258 186 245 Q186 240 192.5 232 Q199 224 199 218 Q199 212 195 209 Q191 206 191 204 L176 204 Q162 225 163 246 Q164 267 163 293 Q160 293 160 294.5 Q160 296 154 296 Q151 296 142 289.5 Q133 283 122.5 274.5 Q112 266 103 259.5 Q94 253 91 253 Q86 253 78 261.5 Q70 270 70 276 Q70 285 77.5 292.5 Q85 300 94.5 306.5 Q104 313 111.5 319 Q119 325 119 331 Q119 337 116 338 Q113 339 110 341 Q107 342 98 348 Q89 354 80 363 Q71 372 63.5 381 Q56 390 56 397 Q56 403 62 407.5 Q68 412 74 412 Q77 412 86.5 406.5 Q96 401 107.5 393.5 Q119 386 131.5 377 Q144 368 154 362 Q157 362 158 364 Q159 366 161 368 Q162 373 162.5 379 Q163 385 164 391 Q166 402 168 419 Q170 436 174 451 Q175 455 177.5 461.5 Q180 468 183 474 Q186 480 189 484 Q192 488 195 488 Q198 488 202 483.5 Q206 479 209.5 474 Q213 469 215.5 464 Q218 459 218 458 Q218 452 210.5 437.5 Q203 423 198 410 L198 402 Q205 402 215 402.5 Q225 403 233 406 Q238 408 243 415 Q248 422 255 422 Q260 422 264 420 L268 418 Q268 416 269.5 413 Q271 410 271 404 Q271 401 264.5 394 Q258 387 249 378.5 Q240 370 229.5 360.5 Q219 351 212 344 Q220 334 230 330.5 Q240 327 249.5 324 Q259 321 267.5 316 Q276 311 281 298 Z "/>
<glyph glyph-name="plus" unicode="+" horiz-adv-x="349" d="M296 253 Q296 245 284.5 240 Q273 235 258.5 230.5 Q244 226 231 221 Q218 216 215 209 Q207 186 206 162.5 Q205 139 200 116 Q197 102 193.5 85 Q190 68 186 52 Q183 55 173.5 62.5 Q164 70 164 77 Q164 81 166.5 96.5 Q169 112 171.5 130 Q174 148 176.5 163.5 Q179 179 179 183 Q179 189 174.5 194.5 Q170 200 162 200 Q154 200 141.5 198 Q129 196 121 196 Q110 196 93 197.5 Q76 199 65 213 Q66 219 62.5 225 Q59 231 59 239 Q59 251 71.5 257 Q84 263 90 263 Q97 263 107 259 Q117 255 125 255 Q130 255 140 257 Q150 259 160 262 Q170 265 178 267.5 Q186 270 186 270 Q195 298 198 335 Q199 338 202 343.5 Q205 349 208 352 L224 352 Q231 352 231 344.5 Q231 337 231 331 Q231 321 226.5 308.5 Q222 296 222 288 Q222 282 225.5 279 Q229 276 233 275 Q237 274 241 274 Q245 274 246 274 Q254 274 259.5 276 Q265 278 273 278 Q287 278 291.5 269.5 Q296 261 296 253 Z "/>
<glyph glyph-name="comma" unicode="," horiz-adv-x="121" d="M85 35 Q85 28 83.5 23.5 Q82 19 82 13 Q82 7 71 -10.5 Q60 -28 45 -47 Q30 -66 14.5 -81 Q-1 -96 -9 -96 Q-15 -96 -16 -94 Q-17 -92 -22 -92 Q-22 -89 -24 -83 Q-26 -77 -26 -73 Q-19 -67 -9.5 -56.5 Q0 -46 8.5 -35.5 Q17 -25 23 -16 Q29 -7 29 -3 Q29 0 25 4.5 Q21 9 15.5 14 Q10 19 6 24 Q2 29 2 33 Q2 40 5.5 46.5 Q9 53 13 58 Q21 68 36 73.5 Q51 79 57 79 Q67 79 72.5 74 Q78 69 81 62 Q84 55 84.5 47.5 Q85 40 85 35 Z "/>
<glyph glyph-name="hyphen" unicode="-" horiz-adv-x="349" d="M317 218 Q317 209 308 195 Q302 195 294 196 Q286 197 278 197 Q236 197 203 193.5 Q170 190 145.5 186.5 Q121 183 105 179.5 Q89 176 81 176 Q72 176 61 181.5 Q50 187 50 195 Q50 202 62 207 Q74 212 91.5 216.5 Q109 221 130.5 224 Q152 227 170.5 228.5 Q189 230 202.5 231 Q216 232 219 232 Q227 232 254 230 Q281 228 304 226 Q311 222 317 218 Z "/>
<glyph glyph-name="period" unicode="." horiz-adv-x="156" d="M124 47 Q124 40 117.5 32 Q111 24 102.5 17 Q94 10 85 5 Q76 0 71 0 Q59 0 53 7 Q47 14 45 23.5 Q43 33 42.5 43.5 Q42 54 39 61 Q40 64 46.5 67.5 Q53 71 61 74 Q69 77 76.5 79 Q84 81 87 81 Q93 81 99.5 75.5 Q106 70 111 64 Q117 56 124 47 Z "/>
<glyph glyph-name="slash" unicode="/" horiz-adv-x="354" d="M336 448 Q315 411 292.5 366.5 Q270 322 248 276 Q226 230 205 184 Q184 138 165.5 97.5 Q147 57 132.5 23.5 Q118 -10 109 -31 Q104 -43 98.5 -47 Q93 -51 85 -51 Q75 -51 67 -42.5 Q59 -34 59 -29 Q59 -27 72 -3 Q85 21 103 53 Q121 85 139.5 119.5 Q158 154 169 178 Q180 203 193.5 235 Q207 267 221.5 301 Q236 335 251.5 370 Q267 405 282 437 Q284 443 293 451.5 Q302 460 308 460 Q315 460 322.5 455 Q330 450 336 448 Z "/>
<glyph glyph-name="zero" unicode="0" horiz-adv-x="302" d="M271 341 Q271 328 267 323 Q263 318 259 313 Q263 292 263.5 263.5 Q264 235 259 210 Q258 204 252.5 186.5 Q247 169 238 145.5 Q229 122 216.5 96.5 Q204 71 189 49.5 Q174 28 157.5 14 Q141 0 123 0 Q103 0 83.5 16.5 Q64 33 49 56 Q34 79 25 102.5 Q16 126 16 141 Q16 147 18 159 Q20 171 23.5 185 Q27 199 31 213.5 Q35 228 39 239 Q44 254 55 276.5 Q66 299 81 316 Q91 328 107.5 342.5 Q124 357 140.5 369.5 Q157 382 171.5 391 Q186 400 192 400 Q202 400 215.5 393.5 Q229 387 241.5 377.5 Q254 368 262.5 358 Q271 348 271 341 Z M202 248 Q202 263 195 275 Q188 287 178 297 Q167 286 150.5 274 Q134 262 129 253 Q123 242 115 227 Q107 212 100.5 196 Q94 180 89.5 167 Q85 154 85 148 Q89 131 94 119 Q99 108 104.5 99 Q110 90 116 90 Q133 90 148.5 112 Q164 134 176 161.5 Q188 189 195 214.5 Q202 240 202 248 Z "/>
<glyph glyph-name="one" unicode="1" horiz-adv-x="237" d="M156 347 Q156 342 142.5 316.5 Q129 291 111.5 257.5 Q94 224 76.5 187 Q59 150 52 123 Q47 105 49.5 80 Q52 55 61 33 Q61 31 63 28 Q65 26 66.5 22.5 Q68 19 71 17 Q64 13 59.5 3 Q55 -7 43 -7 Q31 -7 19.5 4.5 Q8 16 -1 30 Q-10 44 -15.5 57.5 Q-21 71 -21 74 Q-21 79 -17.5 100.5 Q-14 122 -8 149.5 Q-2 177 5 205.5 Q12 234 19 253 Q20 255 29.5 278 Q39 301 53.5 327.5 Q68 354 84 375.5 Q100 397 114 397 Q128 397 136.5 390 Q145 383 149.5 374 Q154 365 155 357 Q156 349 156 347 Z "/>
<glyph glyph-name="two" unicode="2" horiz-adv-x="317" d="M294 158 Q294 147 285.5 138.5 Q277 130 266.5 123 Q256 116 245.5 111 Q235 106 231 103 Q226 98 204.5 81 Q183 64 157 45 Q131 26 105.5 11.5 Q80 -3 66 -3 Q57 -3 46 3 Q35 9 25 18 Q15 27 8 36.5 Q1 46 1 53 Q1 61 9.5 78 Q18 95 31 117 Q44 139 60 163.5 Q76 188 92 211.5 Q108 235 121 255 Q134 275 142 288 L142 303 Q140 305 139.5 306 Q139 307 138 307 Q137 307 135 307 Q133 307 128 307 Q108 307 97.5 297.5 Q87 288 79.5 276 Q72 264 64.5 254.5 Q57 245 43 245 Q34 245 27 250.5 Q20 256 15.5 263.5 Q11 271 9 278.5 Q7 286 7 290 Q7 308 27.5 327 Q48 346 74.5 361.5 Q101 377 126 387 Q151 397 159 397 Q168 397 175 394 Q182 391 189 389 Q194 381 198 370.5 Q202 360 204.5 349.5 Q207 339 208 330 Q209 321 209 315 Q209 300 195 271 Q181 242 162.5 211 Q144 180 126.5 152.5 Q109 125 102 113 L111 104 Q123 113 142.5 126 Q162 139 183 152 Q204 165 224.5 174 Q245 183 260 183 Q270 183 282 176 Q294 169 294 158 Z "/>
<glyph glyph-name="three" unicode="3" horiz-adv-x="301" d="M228 195 Q228 187 222 170 Q216 153 211 143 Q209 139 189.5 116.5 Q170 94 144.5 68.5 Q119 43 94.5 22 Q70 1 58 1 Q50 1 37 9 Q24 17 24 25 Q24 33 29 43.5 Q34 54 39 59 Q68 85 103.5 112 Q139 139 165 174 Q166 178 161.5 181.5 Q157 185 148 185 Q143 185 130 177.5 Q117 170 102 161 Q87 152 73.5 144.5 Q60 137 56 137 Q52 137 46.5 140.5 Q41 144 36 149 Q31 154 27.5 159 Q24 164 24 168 Q24 178 37.5 197.5 Q51 217 68.5 238 Q86 259 101.5 277.5 Q117 296 121 304 L118 321 Q106 314 92 300.5 Q78 287 70 287 Q63 287 57 292 Q51 297 47 303 Q43 309 41 314.5 Q39 320 39 321 Q39 338 50.5 351.5 Q62 365 78 374.5 Q94 384 111 389 Q128 394 140 394 Q156 394 165 387 Q174 380 178 369.5 Q182 359 183 347.5 Q184 336 184 328 Q184 324 181 316 Q178 308 173.5 298.5 Q169 289 164 279 Q159 269 155 261 Q160 255 171.5 253 Q183 251 193 246 Q211 235 219.5 220.5 Q228 206 228 195 Z "/>
<glyph glyph-name="four" unicode="4" horiz-adv-x="269" d="M205 178 Q204 170 192.5 167.5 Q181 165 165.5 164 Q150 163 134.5 160.5 Q119 158 109 149 Q102 143 97.5 133.5 Q93 124 89 112.5 Q85 101 81 89.5 Q77 78 72 69 Q68 61 70 53 Q72 45 74 36.5 Q76 28 75 19.5 Q74 11 65 3 Q50 10 41.5 26 Q33 42 33 55 Q33 58 35.5 70 Q38 82 41.5 95.5 Q45 109 47.5 121 Q50 133 50 137 Q50 140 42 151.5 Q34 163 24 176 Q14 189 6 201 Q-2 213 -2 217 Q-2 222 2 237.5 Q6 253 13 273 Q20 293 30 314.5 Q40 336 52 354 Q64 372 77 384 Q90 396 104 396 Q112 396 122 386.5 Q132 377 132 370 Q132 362 129.5 359.5 Q127 357 125 354 Q120 351 106.5 334 Q93 317 78.5 297 Q64 277 52.5 258 Q41 239 41 230 Q41 219 53 212.5 Q65 206 69 206 Q74 206 82.5 217 Q91 228 99.5 242 Q108 256 114.5 268 Q121 280 122 282 Q124 287 128 297.5 Q132 308 137 317 Q139 320 146 322 Q153 324 160 327 Q164 324 167.5 318.5 Q171 313 171 305 Q171 299 167.5 286 Q164 273 159 259.5 Q154 246 148.5 235 Q143 224 140 221 Q144 218 146 214 Q148 210 156 210 Q160 210 162.5 211 Q165 212 169 212 Q173 212 181 210.5 Q189 209 205 205 L205 178 L205 178 Z "/>
<glyph glyph-name="five" unicode="5" horiz-adv-x="285" d="M285 357 Q262 353 230 343 Q198 333 166 319.5 Q134 306 107.5 289.5 Q81 273 69 257 Q88 242 105 238.5 Q122 235 135 232.5 Q148 230 155 223.5 Q162 217 162 195 Q162 186 152 168 Q142 150 127 128.5 Q112 107 93.5 84 Q75 61 57.5 42.5 Q40 24 25.5 12 Q11 0 5 0 Q-2 0 -9 7.5 Q-16 15 -16 21 Q-16 29 -13.5 33.5 Q-11 38 -10 40 Q2 50 19.5 68 Q37 86 55.5 106 Q74 126 90.5 146 Q107 166 116 181 L116 196 Q108 193 93.5 196.5 Q79 200 65 208 Q51 216 41 228 Q31 240 31 255 Q31 260 35.5 279 Q40 298 47.5 319 Q55 340 66 356.5 Q77 373 90 373 Q98 373 103 367 Q108 361 115 361 Q119 361 136 367 Q153 373 172.5 380 Q192 387 209 393 Q226 399 230 399 Q238 399 257 396.5 Q276 394 289 394 L285 357 Z "/>
<glyph glyph-name="six" unicode="6" horiz-adv-x="285" d="M217 173 Q217 161 203 133 Q189 105 169.5 76 Q150 47 128.5 25 Q107 3 92 3 Q80 3 72 12.5 Q64 22 58.5 34.5 Q53 47 51 59.5 Q49 72 49 78 Q49 89 54.5 117.5 Q60 146 69.5 181.5 Q79 217 91.5 255.5 Q104 294 117 326 Q130 358 143 378.5 Q156 399 167 399 Q183 399 187 389 Q191 379 191 373 Q191 365 180.5 351 Q170 337 162 322 Q153 304 146.5 284.5 Q140 265 132 245 Q127 234 121.5 218.5 Q116 203 109 189 L109 174 Q132 184 153 196.5 Q174 209 182 209 Q188 209 194.5 205 Q201 201 206 195 Q211 189 214 183 Q217 177 217 173 Z M132 105 Q121 95 108.5 86.5 Q96 78 93 68 Q103 71 113.5 83 Q124 95 132 105 Z "/>
<glyph glyph-name="seven" unicode="7" horiz-adv-x="285" d="M269 228 Q269 216 262.5 209 Q256 202 247.5 198 Q239 194 230 191.5 Q221 189 216 185 Q204 175 196 163.5 Q188 152 182.5 139.5 Q177 127 172.5 115.5 Q168 104 163 94 Q150 72 136 47 Q122 22 111 -1 Q107 0 100 2.5 Q93 5 86.5 8.5 Q80 12 75.5 16 Q71 20 71 25 Q71 30 78 43.5 Q85 57 94.5 74.5 Q104 92 115 111 Q126 130 134 146 Q128 146 121 143.5 Q114 141 106.5 138 Q99 135 92.5 132 Q86 129 81 129 Q73 129 67 136 Q61 143 57.5 151.5 Q54 160 52 167.5 Q50 175 50 176 Q50 198 69.5 208.5 Q89 219 113.5 226 Q138 233 160.5 240 Q183 247 189 263 Q192 270 196.5 282 Q201 294 201 304 Q201 317 192 322.5 Q183 328 175 328 Q156 328 138.5 320.5 Q121 313 106 304.5 Q91 296 79 288.5 Q67 281 60 281 Q56 281 50.5 286 Q45 291 40.5 297.5 Q36 304 32.5 311 Q29 318 29 322 Q29 331 36 340 Q43 349 51 356 Q76 377 110.5 389 Q145 401 175 401 Q183 401 193.5 401 Q204 401 214 397 Q224 393 232 384 Q240 375 244 357 Q249 335 244 309 Q242 296 240 285.5 Q238 275 239 263 Q246 255 257.5 247 Q269 239 269 228 Z "/>
<glyph glyph-name="eight" unicode="8" horiz-adv-x="285" d="M278 295 Q278 286 271 274.5 Q264 263 258 257 Q235 234 207.5 211 Q180 188 154 162 Q163 154 175.5 139.5 Q188 125 188 114 Q188 106 179 88.5 Q170 71 163 59 Q156 47 141.5 37 Q127 27 111 19 Q95 11 80 6.5 Q65 2 58 2 Q50 2 42.5 7.5 Q35 13 28 20.5 Q21 28 17 36.5 Q13 45 13 52 Q13 58 17.5 69 Q22 80 27.5 92 Q33 104 37.5 115 Q42 126 42 131 Q42 136 31.5 147.5 Q21 159 8 173.5 Q-5 188 -15.5 205 Q-26 222 -26 238 Q-26 262 -12.5 290.5 Q1 319 22 344 Q43 369 67 385.5 Q91 402 112 402 Q121 402 131.5 401.5 Q142 401 151.5 395.5 Q161 390 169.5 378 Q178 366 184 343 Q186 333 184 319.5 Q182 306 180 294 Q178 282 177.5 274 Q177 266 182 266 Q187 266 196.5 271.5 Q206 277 217.5 284.5 Q229 292 241.5 299.5 Q254 307 265 311 Q269 307 273.5 306.5 Q278 306 278 295 Z M165 252 Q153 269 143.5 286.5 Q134 304 129 320 Q126 322 123 325 Q120 328 109 328 Q96 328 82 316 Q68 304 56.5 288 Q45 272 37.5 256 Q30 240 30 233 Q30 228 36.5 219.5 Q43 211 51.5 203 Q60 195 69 187.5 Q78 180 84 176 Q101 193 122.5 214 Q144 235 165 252 Z "/>
<glyph glyph-name="nine" unicode="9" horiz-adv-x="269" d="M200 221 Q200 216 193 197.5 Q186 179 177 156.5 Q168 134 158 111.5 Q148 89 142 77 Q136 65 125 45 Q114 25 108 5 Q104 1 103.5 0 Q103 -1 93 -1 Q88 -1 83 2.5 Q78 6 73 11.5 Q68 17 65 22.5 Q62 28 62 32 Q62 37 68.5 53.5 Q75 70 85 91 Q95 112 105.5 134.5 Q116 157 124 174 Q125 174 125 175 Q125 177 116 177 Q111 177 102.5 170.5 Q94 164 83 156.5 Q72 149 60.5 143 Q49 137 39 137 Q30 137 21 143 Q12 149 5.5 158 Q-1 167 -5 177 Q-9 187 -9 195 Q-9 204 -2.5 223 Q4 242 15.5 264.5 Q27 287 41.5 311.5 Q56 336 71.5 355.5 Q87 375 102.5 388 Q118 401 131 401 Q143 401 152 393.5 Q161 386 167 374.5 Q173 363 176.5 350.5 Q180 338 180 328 Q180 320 175 310 Q170 300 162 300 Q157 300 153.5 304 Q150 308 146.5 312.5 Q143 317 139.5 321 Q136 325 131 325 Q123 325 109.5 310 Q96 295 82 275.5 Q68 256 57 237.5 Q46 219 42 211 Q41 210 41 209 Q41 208 50 208 Q63 208 77 217.5 Q91 227 105.5 238.5 Q120 250 134 259.5 Q148 269 162 269 Q177 269 188.5 252.5 Q200 236 200 221 Z "/>
<glyph glyph-name="colon" unicode=":" horiz-adv-x="156" d="M132 346 Q132 333 126 324.5 Q120 316 112 310.5 Q104 305 97 303 Q90 301 88 301 Q76 301 68 309.5 Q60 318 54.5 328.5 Q49 339 46.5 349 Q44 359 44 362 Q44 373 45 379.5 Q46 386 51 396 L71 396 Q132 396 132 346 Z M126 35 Q126 23 122.5 18.5 Q119 14 119 4 L65 4 Q57 11 47 28 Q37 45 37 57 Q37 61 39.5 68 Q42 75 47 82 Q52 89 58 93.5 Q64 98 72 98 Q81 98 91 90 Q101 82 108.5 71 Q116 60 121 49.5 Q126 39 126 35 Z "/>
<glyph glyph-name="semicolon" unicode=";" horiz-adv-x="227" d="M156 336 Q156 319 145 311 Q134 303 122 303 Q114 303 108 310.5 Q102 318 97.5 327.5 Q93 337 90.5 346.5 Q88 356 88 360 Q88 363 89.5 370.5 Q91 378 94.5 386 Q98 394 103 400 Q108 406 115 406 Q122 406 129.5 396 Q137 386 143 374 Q149 362 152.5 350.5 Q156 339 156 336 Z M160 108 Q160 77 142 40.5 Q124 4 99 -31.5 Q74 -67 49 -99 Q24 -131 10 -152 L-26 -152 Q-30 -147 -31.5 -142 Q-33 -137 -37 -132 Q-13 -99 15 -61.5 Q43 -24 66 12 Q89 48 101.5 80 Q114 112 106 136 Q107 141 107.5 147 Q108 153 108 162 L129 162 Q135 162 140.5 156.5 Q146 151 150.5 143 Q155 135 157.5 125.5 Q160 116 160 108 Z "/>
<glyph glyph-name="less" unicode="&lt;" horiz-adv-x="321" d="M325 361 Q325 353 316 345 Q307 337 301 329 Q276 300 256 277.5 Q236 255 216.5 234 Q197 213 175.5 191 Q154 169 126 142 Q137 128 160 112.5 Q183 97 206.5 82 Q230 67 247.5 52.5 Q265 38 265 26 Q265 10 254.5 0.5 Q244 -9 236 -9 Q224 -9 211.5 -2 Q199 5 186 15.5 Q173 26 159 38 Q145 50 132 59 Q114 72 87 85.5 Q60 99 39 107 Q37 113 32 123.5 Q27 134 27 142 Q27 152 33.5 158 Q40 164 49 167.5 Q58 171 67.5 173.5 Q77 176 83 180 Q112 203 139.5 230 Q167 257 195 288 Q208 303 220 320.5 Q232 338 244.5 353 Q257 368 269.5 378 Q282 388 295 388 Q313 388 319 377 Q325 366 325 361 Z "/>
<glyph glyph-name="equal" unicode="=" horiz-adv-x="395" d="M341 292 Q341 284 335 280 Q329 276 324 268 Q304 266 282 262 Q260 258 242 250 Q234 247 223 240 Q212 233 201 230 Q190 227 175.5 224 Q161 221 147.5 219 Q134 217 123 216 Q112 215 107 215 L82 215 Q73 215 66 228 Q59 241 59 250 Q59 257 65.5 264.5 Q72 272 76 278 Q103 280 139 286 Q175 292 208.5 298 Q242 304 267 308.5 Q292 313 297 313 Q301 313 308.5 312 Q316 311 323.5 308.5 Q331 306 336 302 Q341 298 341 292 Z M361 189 Q361 180 360 177.5 Q359 175 355 168 Q339 167 317 164.5 Q295 162 270.5 157.5 Q246 153 221.5 146.5 Q197 140 175 133 Q167 130 155 125 Q143 120 130.5 115 Q118 110 107.5 106 Q97 102 93 102 Q74 102 69.5 112 Q65 122 65 132 Q65 145 77 156 Q89 167 107 176 Q125 185 147 191.5 Q169 198 188.5 202.5 Q208 207 222.5 209 Q237 211 241 211 Q249 211 257.5 215 Q266 219 274 219 Q281 219 295.5 218 Q310 217 324.5 213.5 Q339 210 350 204 Q361 198 361 189 Z "/>
<glyph glyph-name="greater" unicode="&gt;" horiz-adv-x="320" d="M296 188 Q296 179 293 174 Q290 169 286 165 Q276 157 265.5 154 Q255 151 245 145 Q234 138 224 128.5 Q214 119 203 111 Q177 91 149.5 70.5 Q122 50 96 28 Q91 24 83 18 Q75 12 67 7 Q59 2 51.5 -2 Q44 -6 40 -6 L21 -6 Q18 -2 14.5 0 Q11 2 11 10 Q11 18 15.5 22.5 Q20 27 21 33 Q30 39 47.5 52.5 Q65 66 86 83 Q107 100 128.5 118 Q150 136 168 152.5 Q186 169 197.5 181 Q209 193 209 197 Q209 201 202 212.5 Q195 224 184.5 240 Q174 256 161.5 275 Q149 294 138 313 Q131 325 116.5 336.5 Q102 348 91 359 Q84 366 84 386 Q84 409 110 409 Q123 409 135.5 399 Q148 389 158 375.5 Q168 362 174.5 347.5 Q181 333 182 324 Q185 321 190.5 315.5 Q196 310 198 306 Q205 292 215 275 Q225 258 240 242 Q248 234 262.5 226 Q277 218 285 210 Q287 208 291.5 201.5 Q296 195 296 188 Z "/>
<glyph glyph-name="question" unicode="?" horiz-adv-x="378" d="M323 485 Q323 458 312 429 Q301 400 286 369.5 Q271 339 254.5 308.5 Q238 278 227 249 Q219 228 215.5 198.5 Q212 169 207 144 Q198 147 190.5 154 Q183 161 178 168.5 Q173 176 170.5 182.5 Q168 189 168 191 Q168 224 185 265 Q202 306 222 345 Q242 384 257.5 415.5 Q273 447 270 461 Q268 467 272.5 472.5 Q277 478 277 487 Q277 506 257 506 Q251 506 230 498.5 Q209 491 191 480 Q173 469 165.5 455 Q158 441 179 429 L179 408 Q155 409 140.5 414.5 Q126 420 118 426.5 Q110 433 107.5 440.5 Q105 448 105 454 Q105 473 122.5 493.5 Q140 514 164.5 530 Q189 546 215.5 556.5 Q242 567 260 567 Q285 567 298 558.5 Q311 550 316.5 537.5 Q322 525 322.5 511 Q323 497 323 485 Z M243 39 Q233 19 226.5 6.5 Q220 -6 200 -6 Q181 -6 171.5 9.5 Q162 25 162 36 Q162 45 165.5 48.5 Q169 52 169 59 Q185 58 205.5 57 Q226 56 243 39 Z "/>
<glyph glyph-name="at" unicode="@" horiz-adv-x="462" d="M391 286 Q391 280 387.5 264 Q384 248 382 237 Q375 213 370 189 Q365 165 357 142 Q349 119 334.5 98 Q320 77 294 61 Q290 59 283.5 60 Q277 61 272 59 Q240 39 214 22.5 Q188 6 160 6 Q140 6 124.5 14.5 Q109 23 98 36 Q87 49 81 64.5 Q75 80 75 94 Q75 116 78.5 132 Q82 148 98 174 Q107 188 119.5 204.5 Q132 221 146 238.5 Q160 256 175.5 273.5 Q191 291 205 307 Q238 344 265 356.5 Q292 369 321 369 Q343 369 360 357 Q377 345 382 328 Q384 317 387.5 304.5 Q391 292 391 286 Z M359 284 Q359 304 351 313 Q343 322 321 322 Q311 322 298 317.5 Q285 313 280 305 Q295 300 300 291.5 Q305 283 305 272 Q305 265 302 248.5 Q299 232 295 220 Q293 214 289 202.5 Q285 191 280.5 178 Q276 165 272.5 152 Q269 139 269 130 Q269 115 274 110 L286 110 Q309 125 319.5 145.5 Q330 166 335 180 Q339 193 343.5 209.5 Q348 226 351.5 241.5 Q355 257 357 269 Q359 281 359 284 Z M248 83 Q245 88 239 97.5 Q233 107 228 107 Q222 107 213.5 99.5 Q205 92 196 92 Q186 92 175.5 102.5 Q165 113 165 126 Q165 140 176 164.5 Q187 189 200.5 214 Q214 239 226.5 259.5 Q239 280 242 286 Q227 275 204 251.5 Q181 228 159.5 199.5 Q138 171 123 141.5 Q108 112 108 89 Q108 69 119 57 Q130 45 153 45 Q163 45 177.5 49 Q192 53 206 58.5 Q220 64 231.5 70.5 Q243 77 248 83 Z "/>
<glyph glyph-name="A" unicode="A" horiz-adv-x="472" d="M363 201 Q363 187 357 180 Q351 173 343 167.5 Q335 162 326.5 154.5 Q318 147 313 132 Q309 120 312 106.5 Q315 93 316.5 78 Q318 63 314.5 48 Q311 33 296 19 Q272 26 262 40 Q252 54 250.5 70.5 Q249 87 251 103.5 Q253 120 253 131 Q248 136 247 136 Q246 136 234 136 Q190 136 163 126 Q136 116 119.5 100.5 Q103 85 94 67.5 Q85 50 78 34.5 Q71 19 61.5 9 Q52 -1 36 -1 Q25 -1 18 5.5 Q11 12 7 20.5 Q3 29 1.5 37 Q0 45 0 48 Q0 65 17 84 Q34 103 57 134 Q72 155 95.5 190.5 Q119 226 146 267.5 Q173 309 201.5 351.5 Q230 394 254.5 428 Q279 462 297.5 484 Q316 506 324 506 Q337 506 341 501 Q345 496 348 491 Q351 480 354 463.5 Q357 447 359 430 Q361 413 362 399 Q363 385 363 379 Q363 374 358 359.5 Q353 345 347 328 Q341 311 336 296 Q331 281 331 275 Q331 255 336 245 Q341 235 347 229 Q353 223 358 217.5 Q363 212 363 201 Z M254 317 Q252 309 246.5 299.5 Q241 290 235.5 280 Q230 270 225.5 261 Q221 252 221 246 Q221 240 227 238.5 Q233 237 241.5 237.5 Q250 238 258.5 239.5 Q267 241 272 241 Q272 250 275 266 Q278 282 278 317 L254 317 Z "/>
<glyph glyph-name="B" unicode="B" horiz-adv-x="336" d="M304 257 Q304 234 287.5 208 Q271 182 248.5 158 Q226 134 202 114.5 Q178 95 162 87 Q156 84 148 75 Q140 66 132 56 Q124 46 116.5 36 Q109 26 104 21 Q91 10 74.5 4 Q58 -2 44 -2 Q30 -2 19.5 9 Q9 20 2 33.5 Q-5 47 -8.5 58.5 Q-12 70 -12 71 Q-12 77 -9.5 94.5 Q-7 112 -3 136 Q1 160 5.5 187.5 Q10 215 13 240 Q16 261 21.5 284.5 Q27 308 32 332.5 Q37 357 40 381.5 Q43 406 42 430 Q44 435 48.5 444.5 Q53 454 54 457 Q73 458 99.5 463 Q126 468 152.5 474 Q179 480 199.5 484.5 Q220 489 227 489 Q242 489 255.5 484.5 Q269 480 280 472 Q291 464 297.5 454 Q304 444 304 433 Q304 426 298.5 411.5 Q293 397 286.5 381.5 Q280 366 274.5 351.5 Q269 337 269 331 Q269 319 280.5 309.5 Q292 300 298 289 Q297 284 300.5 277.5 Q304 271 304 257 Z M199 373 Q196 375 192.5 377 Q189 379 187 381 Q183 383 181 383 Q167 375 153.5 371 Q140 367 128.5 360 Q117 353 107.5 341 Q98 329 94 305 Q106 296 120 303.5 Q134 311 148 324 Q162 337 175 352 Q188 367 199 373 Z M166 214 Q151 204 132 198.5 Q113 193 96.5 186.5 Q80 180 69 170.5 Q58 161 58 145 Q58 134 62.5 124.5 Q67 115 67 110 Q93 131 126 158.5 Q159 186 191 214 L166 214 Z "/>
<glyph glyph-name="C" unicode="C" horiz-adv-x="410" d="M371 138 Q366 127 357 111.5 Q348 96 340 90 Q330 82 308.5 72.5 Q287 63 269 52 Q261 47 253.5 36.5 Q246 26 235 22 Q220 17 196.5 12 Q173 7 161 7 Q132 7 109 21.5 Q86 36 70 57.5 Q54 79 45.5 104.5 Q37 130 37 151 Q37 166 49 198 Q61 230 80.5 268 Q100 306 125.5 346.5 Q151 387 177.5 420 Q204 453 230 474 Q256 495 277 495 Q293 495 303.5 484 Q314 473 320 459.5 Q326 446 328.5 434 Q331 422 331 421 Q331 399 323 386 Q315 373 308.5 358 Q302 343 300 321.5 Q298 300 310 262 Q305 262 299 254.5 Q293 247 281 247 Q270 247 262 261 Q254 275 247 293 Q240 311 235 327 Q230 343 227 348 Q207 332 188.5 309 Q170 286 154.5 261.5 Q139 237 128 214 Q117 191 112 176 Q109 168 106.5 160.5 Q104 153 104 141 Q104 127 111.5 117 Q119 107 128.5 100 Q138 93 147.5 90 Q157 87 161 87 Q167 87 193.5 98.5 Q220 110 250.5 124 Q281 138 308 149.5 Q335 161 341 161 Q354 161 360 152 Q366 143 371 138 Z "/>
<glyph glyph-name="D" unicode="D" horiz-adv-x="368" d="M344 358 Q344 307 324.5 263 Q305 219 274.5 177.5 Q244 136 208 94.5 Q172 53 139 7 L106 7 Q94 7 90 21 Q86 35 79 46 Q80 57 79 71 Q78 85 77 99.5 Q76 114 75 126.5 Q74 139 74 146 Q74 152 74 164 Q74 176 74.5 190 Q75 204 76 218.5 Q77 233 79 245 Q81 259 86.5 276 Q92 293 97.5 312 Q103 331 108 351 Q113 371 115 391 Q116 402 110 413 Q104 424 108 435 Q109 442 115.5 453.5 Q122 465 135 471 Q155 481 180.5 485 Q206 489 220 489 Q256 489 280 476 Q304 463 318 443.5 Q332 424 338 401 Q344 378 344 358 Z M286 358 Q286 368 270 377.5 Q254 387 238 387 Q223 387 212 383 Q201 379 199 375 Q191 361 181.5 338.5 Q172 316 164.5 293.5 Q157 271 152.5 253 Q148 235 148 229 L148 146 Q160 152 183 179.5 Q206 207 229 241.5 Q252 276 269 309 Q286 342 286 358 Z "/>
<glyph glyph-name="E" unicode="E" horiz-adv-x="397" d="M438 461 Q438 450 422.5 441 Q407 432 383.5 424 Q360 416 331 407.5 Q302 399 275 389.5 Q248 380 226.5 368.5 Q205 357 196 343 L206 334 Q218 342 233.5 347 Q249 352 260 352 Q275 352 290 346 Q305 340 305 325 Q305 315 301 301.5 Q297 288 292 276 Q277 272 257.5 266.5 Q238 261 217 253 Q196 245 176.5 234 Q157 223 142 208 Q136 201 130.5 190.5 Q125 180 120.5 169 Q116 158 113.5 148 Q111 138 111 132 L111 91 Q115 91 115.5 88.5 Q116 86 127 86 Q135 86 150 94 Q165 102 183 114 Q201 126 220 140.5 Q239 155 254.5 167 Q270 179 280.5 187 Q291 195 293 195 Q303 195 313 184 Q323 173 323 162 Q323 150 312 134 Q301 118 283.5 100.5 Q266 83 246 66 Q226 49 207.5 35.5 Q189 22 175.5 13 Q162 4 158 3 Q147 0 128.5 1 Q110 2 95 1 Q90 6 82 18.5 Q74 31 65.5 46 Q57 61 51 76 Q45 91 45 101 Q45 105 49.5 119.5 Q54 134 60 153.5 Q66 173 73 195 Q80 217 85 235 Q89 248 94.5 265.5 Q100 283 106.5 301 Q113 319 119.5 336.5 Q126 354 131 368 Q134 375 136 386.5 Q138 398 141.5 411 Q145 424 151 435 Q157 446 168 452 Q192 465 228.5 473 Q265 481 299.5 485 Q334 489 360.5 490 Q387 491 393 491 Q410 491 424 481.5 Q438 472 438 461 Z "/>
<glyph glyph-name="F" unicode="F" horiz-adv-x="350" d="M352 409 Q334 404 311.5 403 Q289 402 269 403 Q243 404 221 391 Q199 378 182 358.5 Q165 339 155.5 315.5 Q146 292 146 271 Q146 260 153 257 Q160 254 172 254 Q178 254 187 257 Q196 260 205.5 264 Q215 268 224 271 Q233 274 239 274 Q252 274 253.5 270 Q255 266 265 266 Q265 261 269 257 Q273 253 273 241 Q273 218 249.5 201 Q226 184 197 171.5 Q168 159 143 150.5 Q118 142 114 136 Q100 113 99 100 Q98 87 102.5 77.5 Q107 68 113 59 Q119 50 119 37 Q119 25 115 21.5 Q111 18 111 8 Q106 8 104 4 Q102 0 89 0 Q74 0 64.5 11 Q55 22 49.5 35.5 Q44 49 41.5 60.5 Q39 72 39 74 Q39 80 40 91.5 Q41 103 42.5 117 Q44 131 46 145.5 Q48 160 50 171 Q61 238 82.5 303.5 Q104 369 130 432 Q137 448 154.5 459.5 Q172 471 192 478.5 Q212 486 230 490 Q248 494 256 494 Q261 494 275 491 Q289 488 304.5 482.5 Q320 477 334 471 Q348 465 352 459 L352 409 L352 409 Z "/>
<glyph glyph-name="G" unicode="G" horiz-adv-x="376" d="M310 224 Q310 209 301.5 187.5 Q293 166 279 141.5 Q265 117 246.5 93 Q228 69 208.5 49.5 Q189 30 169 18 Q149 6 132 6 Q111 6 95 23 Q79 40 68.5 62.5 Q58 85 53 107.5 Q48 130 48 140 Q48 153 54.5 185 Q61 217 73 257 Q85 297 101 339.5 Q117 382 136 417.5 Q155 453 176.5 476 Q198 499 220 499 Q239 499 250.5 489.5 Q262 480 268.5 467 Q275 454 277 440.5 Q279 427 279 418 Q279 408 275.5 393.5 Q272 379 272 369 Q272 367 270 365 Q267 362 257 362 Q246 362 239.5 375.5 Q233 389 219 406 Q202 396 182 362 Q162 328 144.5 285.5 Q127 243 115.5 200.5 Q104 158 104 131 Q104 124 106 115 Q108 106 111.5 98.5 Q115 91 120 86 Q125 81 132 81 Q138 81 147.5 89 Q157 97 168.5 109 Q180 121 192.5 135.5 Q205 150 217 164 Q209 169 200 165.5 Q191 162 179 162 Q169 162 162 168 Q155 174 150.5 182 Q146 190 144 196.5 Q142 203 142 205 Q142 214 154.5 226 Q167 238 182.5 249 Q198 260 212.5 268 Q227 276 231 278 Q239 280 251.5 280 Q264 280 276 280 Q286 280 292.5 272 Q299 264 303 253.5 Q307 243 308.5 234 Q310 225 310 224 Z "/>
<glyph glyph-name="H" unicode="H" horiz-adv-x="406" d="M402 443 Q402 438 398 427.5 Q394 417 388 405 Q382 393 375.5 381 Q369 369 365 359 Q365 354 368 345 Q371 336 373.5 326 Q376 316 376.5 306 Q377 296 373 287 Q359 282 344.5 273 Q330 264 323 249 Q304 211 293 161.5 Q282 112 269 64 Q268 60 262 49 Q256 38 245 29 Q228 38 219 52 Q210 66 210 77 Q210 83 213.5 98.5 Q217 114 222 134 Q227 154 234 175 Q241 196 248 213 L248 230 Q246 233 245.5 234 Q245 235 244 235 Q243 235 240.5 235 Q238 235 232 235 Q227 235 211 227 Q195 219 175 207.5 Q155 196 133 184 Q111 172 95 165 Q93 151 90.5 132.5 Q88 114 88 100 Q88 94 92 86 Q96 78 100.5 69.5 Q105 61 109 53 Q113 45 113 39 Q113 28 104 19 Q95 10 85 4 Q67 6 56 19.5 Q45 33 39 49.5 Q33 66 31.5 83 Q30 100 30 109 Q30 131 41 176.5 Q52 222 68 271.5 Q84 321 101.5 363 Q119 405 131 420 Q134 423 137 431 Q140 439 144 448.5 Q148 458 153.5 468.5 Q159 479 166 488 Q171 490 173 490.5 Q175 491 187 491 Q204 491 216.5 477.5 Q229 464 229 453 Q229 443 216.5 428.5 Q204 414 191 397 Q179 379 171 357 Q163 335 158 316 Q161 313 161 312 Q161 311 161 311 Q161 311 163 311.5 Q165 312 171 312 Q177 312 190 315 Q203 318 218.5 322.5 Q234 327 249.5 333 Q265 339 276 345 Q289 353 298.5 367.5 Q308 382 316.5 400.5 Q325 419 333 439 Q341 459 353 478 L389 478 Q389 473 395.5 463.5 Q402 454 402 443 Z "/>
<glyph glyph-name="I" unicode="I" horiz-adv-x="273" d="M272 444 Q272 440 265 425.5 Q258 411 246.5 390.5 Q235 370 220.5 345 Q206 320 191.5 294 Q177 268 163.5 244 Q150 220 141 201 Q133 185 128 157 Q123 129 118 101 Q116 87 116.5 67.5 Q117 48 121 31 Q118 24 111.5 14 Q105 4 89 4 Q75 4 65.5 16.5 Q56 29 50 44.5 Q44 60 41 74 Q38 88 38 90 Q38 100 48.5 134.5 Q59 169 76 214.5 Q93 260 113.5 311 Q134 362 154 404.5 Q174 447 190.5 475 Q207 503 217 503 Q230 503 240.5 495 Q251 487 258 477 Q265 467 268.5 457 Q272 447 272 444 Z "/>
<glyph glyph-name="J" unicode="J" horiz-adv-x="356" d="M322 445 Q322 439 316.5 427 Q311 415 302.5 400 Q294 385 285.5 368.5 Q277 352 271 339 Q267 330 265.5 317 Q264 304 259 294 Q248 276 236 247.5 Q224 219 210.5 186 Q197 153 181.5 120.5 Q166 88 148 61 Q130 34 109 17.5 Q88 1 64 1 Q44 1 30.5 12 Q17 23 8.5 40 Q0 57 -4.5 77.5 Q-9 98 -11 118 Q-13 138 -13.5 153.5 Q-14 169 -14 177 Q-14 211 -12 246 Q-10 281 10 314 L44 314 Q46 311 51 307 Q56 303 61.5 298 Q67 293 71.5 287 Q76 281 76 274 Q76 267 71.5 256 Q67 245 61 233 Q55 221 50.5 210 Q46 199 46 192 Q46 178 53 153 Q60 128 66 105 Q90 117 110.5 142.5 Q131 168 148.5 201 Q166 234 181.5 273 Q197 312 211 351 Q225 390 238 427 Q251 464 264 493 L313 493 Q313 482 317.5 470.5 Q322 459 322 445 Z "/>
<glyph glyph-name="K" unicode="K" horiz-adv-x="542" d="M484 433 Q457 406 425.5 386 Q394 366 362.5 345.5 Q331 325 301.5 299.5 Q272 274 250 237 Q269 221 292.5 211.5 Q316 202 340.5 195 Q365 188 387.5 181 Q410 174 427 163 Q444 152 453.5 136 Q463 120 462 95 Q451 90 443 88 Q435 86 418 86 Q412 86 388.5 88.5 Q365 91 333.5 96 Q302 101 268.5 108.5 Q235 116 209 125 Q203 127 196.5 133 Q190 139 184 146.5 Q178 154 173 161.5 Q168 169 165 175 L140 175 Q140 158 137 142 Q134 126 134 112 Q134 105 139.5 95.5 Q145 86 152 75.5 Q159 65 164.5 55.5 Q170 46 170 39 Q170 27 155 16.5 Q140 6 126 6 Q103 6 91 15 Q79 24 74 37 Q69 50 68.5 64.5 Q68 79 68 90 Q68 103 73 135.5 Q78 168 87 201 Q93 220 104 249.5 Q115 279 128.5 312 Q142 345 156.5 377.5 Q171 410 185 436 Q199 462 210.5 478.5 Q222 495 229 495 Q250 495 253.5 482.5 Q257 470 254 450.5 Q251 431 246.5 408 Q242 385 248 364 Q264 378 286 395.5 Q308 413 332.5 429 Q357 445 381.5 455.5 Q406 466 429 466 Q442 466 458 455 Q474 444 484 433 Z "/>
<glyph glyph-name="L" unicode="L" horiz-adv-x="458" d="M408 181 Q398 165 379 145.5 Q360 126 336 106.5 Q312 87 285.5 68.5 Q259 50 234 35.5 Q209 21 187 12.5 Q165 4 151 4 Q107 4 93 25.5 Q79 47 79 86 Q79 99 85 125 Q91 151 99.5 179 Q108 207 116 231.5 Q124 256 127 267 Q143 319 160.5 378.5 Q178 438 195 498 Q206 499 219 493.5 Q232 488 241 483 Q243 472 247 454.5 Q251 437 251 423 Q251 418 241.5 393.5 Q232 369 218.5 336 Q205 303 190.5 267.5 Q176 232 167 207 Q165 201 162 191 Q159 181 156.5 170 Q154 159 152.5 149 Q151 139 151 133 Q151 111 169 111 Q176 111 205 125.5 Q234 140 267.5 158 Q301 176 330 190.5 Q359 205 366 205 Q372 205 377 201.5 Q382 198 387 193.5 Q392 189 397 185 Q402 181 408 181 Z "/>
<glyph glyph-name="M" unicode="M" horiz-adv-x="496" d="M465 394 Q465 365 452 329.5 Q439 294 421 256 Q403 218 384 180.5 Q365 143 354 111 Q349 98 352.5 77 Q356 56 363 45 Q365 41 361.5 31.5 Q358 22 358 11 Q353 11 349 7 Q345 3 331 3 Q320 3 311 12 Q302 21 295.5 33 Q289 45 285.5 57.5 Q282 70 282 77 Q282 93 287.5 111.5 Q293 130 299.5 151 Q306 172 312 195 Q318 218 319 243 Q299 223 277.5 195 Q256 167 222 137 Q213 145 207 157.5 Q201 170 196.5 183.5 Q192 197 188.5 210.5 Q185 224 179 236 Q161 216 151 199.5 Q141 183 135.5 167.5 Q130 152 127.5 137 Q125 122 121 105 Q119 95 110 83 Q101 71 96 60 Q86 65 76 75 Q66 85 58.5 95 Q51 105 46.5 113 Q42 121 42 123 Q42 129 52.5 154.5 Q63 180 80.5 216 Q98 252 120 294 Q142 336 165 375.5 Q188 415 210 447.5 Q232 480 249 496 Q271 490 279 474.5 Q287 459 289 439 Q291 419 292 397 Q293 375 300 355 Q307 363 322.5 381.5 Q338 400 355 419.5 Q372 439 388.5 453.5 Q405 468 415 468 Q431 468 441 459.5 Q451 451 456.5 439.5 Q462 428 463.5 415.5 Q465 403 465 394 Z "/>
<glyph glyph-name="N" unicode="N" horiz-adv-x="457" d="M475 459 Q475 453 465 438 Q455 423 442 403.5 Q429 384 416.5 362 Q404 340 398 321 Q389 292 376.5 256.5 Q364 221 355 192 Q354 190 348.5 175 Q343 160 333.5 139 Q324 118 312.5 94 Q301 70 288 50 Q275 30 262 16.5 Q249 3 238 3 Q230 3 223 10 Q216 17 209.5 28 Q203 39 198 52 Q193 65 190 77 Q183 109 178.5 140.5 Q174 172 169 204 Q148 187 136.5 163 Q125 139 118 114 Q111 89 106 66 Q101 43 93 27 Q82 26 70 24 Q58 22 47 17 Q41 28 35.5 44.5 Q30 61 30 75 Q30 79 35 95 Q40 111 48.5 135 Q57 159 68 188.5 Q79 218 90.5 247.5 Q102 277 113 304 Q124 331 133 352 Q135 358 145.5 367 Q156 376 170 376 Q176 376 185 374 Q194 372 202 366 Q210 360 217 349.5 Q224 339 226 323 Q231 285 238 249 Q245 213 251 175 Q266 185 281.5 214.5 Q297 244 312.5 283 Q328 322 343.5 365 Q359 408 374.5 444 Q390 480 406 503.5 Q422 527 439 527 Q448 527 455 518 Q462 509 466.5 497 Q471 485 473 474 Q475 463 475 459 Z "/>
<glyph glyph-name="O" unicode="O" horiz-adv-x="374" d="M288 418 Q288 407 284.5 384.5 Q281 362 276 345 Q272 331 269.5 316 Q267 301 263 286 Q263 285 255 264.5 Q247 244 233.5 213 Q220 182 202 146 Q184 110 164 79 Q144 48 123.5 27.5 Q103 7 84 7 Q67 7 55 25.5 Q43 44 34.5 67.5 Q26 91 22 112.5 Q18 134 18 139 Q18 144 22.5 168.5 Q27 193 33.5 224.5 Q40 256 48 289.5 Q56 323 62 347 Q68 370 80.5 403 Q93 436 113 460 Q120 469 133 479 Q146 489 160 496.5 Q174 504 187 509 Q200 514 206 514 Q230 514 246 504 Q262 494 271 479.5 Q280 465 284 448 Q288 431 288 418 Z M228 401 Q222 399 214 398 Q206 397 198.5 396.5 Q191 396 185 395.5 Q179 395 177 392 Q145 354 128.5 319.5 Q112 285 104 252 Q96 219 93 186 Q90 153 85 119 Q94 124 108 140 Q122 156 138 178 Q154 200 170 226.5 Q186 253 199 278 Q212 303 220 324 Q228 345 228 358 L228 401 Z "/>
<glyph glyph-name="P" unicode="P" horiz-adv-x="433" d="M401 420 Q401 376 376 341 Q351 306 313.5 278 Q276 250 232.5 229 Q189 208 151 193 Q144 190 137.5 182.5 Q131 175 126 165 Q121 155 118 145 Q115 135 115 127 Q115 117 111 108 Q107 99 109 89 L112 81 Q107 71 110.5 61.5 Q114 52 115 42 Q113 34 108 26.5 Q103 19 97.5 13 Q92 7 87 3.5 Q82 0 81 0 Q66 0 58.5 8.5 Q51 17 47 27.5 Q43 38 42.5 48 Q42 58 42 62 Q42 87 50.5 121 Q59 155 70.5 190.5 Q82 226 93.5 259.5 Q105 293 111 317 Q120 349 131 392.5 Q142 436 161 474 Q166 483 177.5 489 Q189 495 202 495 Q214 495 229.5 488.5 Q245 482 257 482 Q271 482 278 488.5 Q285 495 296 495 Q311 495 329.5 491 Q348 487 363.5 478 Q379 469 390 455 Q401 441 401 420 Z M235 397 Q224 397 214 384.5 Q204 372 196.5 356.5 Q189 341 184.5 326.5 Q180 312 180 308 L180 287 Q191 291 211.5 303 Q232 315 252.5 331 Q273 347 289.5 364.5 Q306 382 309 397 L235 397 Z "/>
<glyph glyph-name="Q" unicode="Q" horiz-adv-x="382" d="M398 427 Q398 413 390.5 391 Q383 369 371 343 Q359 317 346 290.5 Q333 264 321 241.5 Q309 219 301.5 204 Q294 189 294 186 Q294 180 299.5 167 Q305 154 311 139.5 Q317 125 322.5 111.5 Q328 98 328 92 Q328 80 322.5 72.5 Q317 65 313 54 L289 54 Q273 69 262 85.5 Q251 102 238 102 Q231 102 212 86.5 Q193 71 171 53 Q149 35 130 19.5 Q111 4 105 4 Q89 4 74 19.5 Q59 35 47 55.5 Q35 76 28 96.5 Q21 117 21 126 Q21 133 29.5 163.5 Q38 194 53 235.5 Q68 277 87.5 323.5 Q107 370 129 409 Q151 448 174.5 474 Q198 500 220 500 Q232 500 236 493 Q240 486 252 486 Q258 486 268.5 489.5 Q279 493 290 496.5 Q301 500 311.5 503.5 Q322 507 328 507 Q347 507 360.5 498.5 Q374 490 382.5 477.5 Q391 465 394.5 451 Q398 437 398 427 Z M335 401 Q318 405 299.5 395 Q281 385 262.5 369 Q244 353 227 335 Q210 317 197 306 Q183 292 165.5 285 Q148 278 142 268 Q133 253 123.5 232.5 Q114 212 107 191.5 Q100 171 95.5 155 Q91 139 91 133 Q91 122 98.5 110 Q106 98 116 95 Q137 108 151.5 126.5 Q166 145 174 164.5 Q182 184 183 203.5 Q184 223 179 238 Q186 256 210 256 Q234 256 256 242 Q278 275 299 319.5 Q320 364 335 401 Z "/>
<glyph glyph-name="R" unicode="R" horiz-adv-x="356" d="M384 32 Q369 32 349 32 Q329 32 309.5 31.5 Q290 31 274.5 31 Q259 31 253 31 Q247 31 237.5 33.5 Q228 36 217 39 Q206 42 194.5 46 Q183 50 174 53 Q169 54 156.5 70 Q144 86 131.5 106 Q119 126 109 146.5 Q99 167 99 178 Q99 183 101.5 192.5 Q104 202 108 213 Q112 224 117 235.5 Q122 247 127 256 Q134 267 148 283.5 Q162 300 176 318 Q190 336 201 353.5 Q212 371 212 384 Q212 390 211 392 Q210 394 209 395 Q208 396 207 397.5 Q206 399 206 404 L169 404 Q146 404 132.5 384.5 Q119 365 111.5 340.5 Q104 316 100.5 294 Q97 272 96 267 Q87 240 76.5 204.5 Q66 169 60 134 Q58 123 57.5 108 Q57 93 56.5 78 Q56 63 54.5 49.5 Q53 36 50 27 Q48 22 40 13.5 Q32 5 19 5 Q6 5 -7.5 16.5 Q-21 28 -21 41 Q-21 46 -19 56.5 Q-17 67 -14 80 Q-11 93 -8 106 Q-5 119 -3 128 Q1 148 7.5 179 Q14 210 22.5 245.5 Q31 281 39.5 316.5 Q48 352 56 381 Q58 390 56 401 Q54 412 56 421 Q61 443 78.5 458.5 Q96 474 118 484 Q140 494 162.5 498.5 Q185 503 199 503 Q227 503 244 492.5 Q261 482 270 467.5 Q279 453 282 437 Q285 421 285 410 Q285 372 268.5 338.5 Q252 305 232 276 Q212 247 195.5 222.5 Q179 198 179 178 Q179 164 190.5 153.5 Q202 143 219.5 135 Q237 127 258 122 Q279 117 299 113 Q319 109 334.5 106 Q350 103 356 101 Q361 98 370 89.5 Q379 81 384 76 L384 32 L384 32 Z "/>
<glyph glyph-name="S" unicode="S" horiz-adv-x="257" d="M189 261 Q189 238 173 208 Q157 178 137.5 149.5 Q118 121 101 100 Q84 79 82 74 Q78 66 78 50.5 Q78 35 71 26 Q63 15 54.5 9.5 Q46 4 33 4 Q27 4 18.5 8.5 Q10 13 3 19.5 Q-4 26 -9 34 Q-14 42 -14 48 Q-14 64 0.5 88 Q15 112 35.5 138 Q56 164 78 190 Q100 216 115 237 Q101 251 80 266 Q59 281 42 303 Q39 307 35 316.5 Q31 326 28 336.5 Q25 347 22.5 357 Q20 367 20 373 Q20 383 30.5 406 Q41 429 57 452.5 Q73 476 93 493.5 Q113 511 131 511 Q155 511 175 489 L175 427 Q175 421 170.5 420 Q166 419 159.5 419.5 Q153 420 145.5 421 Q138 422 133 421 Q128 415 120 407 Q112 399 104.5 391.5 Q97 384 92 377.5 Q87 371 87 366 Q87 349 103 340.5 Q119 332 138 323 Q157 314 173 300.5 Q189 287 189 261 Z "/>
<glyph glyph-name="T" unicode="T" horiz-adv-x="378" d="M405 432 Q405 421 396 415.5 Q387 410 373.5 407.5 Q360 405 343.5 403.5 Q327 402 311.5 400.5 Q296 399 283.5 396 Q271 393 265 386 Q242 359 220.5 322.5 Q199 286 181 246.5 Q163 207 149 166 Q135 125 127 88 L134 83 Q134 71 129 46 Q124 21 119 0 L80 0 Q76 11 67 23.5 Q58 36 58 48 Q58 53 59.5 63 Q61 73 63 84.5 Q65 96 67 107.5 Q69 119 70 128 Q72 144 81 165 Q90 186 97 205 Q110 241 126 280.5 Q142 320 162 362 Q143 376 119.5 379 Q96 382 76.5 386.5 Q57 391 45.5 403.5 Q34 416 38 449 Q43 454 49.5 459 Q56 464 61 468 Q77 469 106 472.5 Q135 476 165 480 Q195 484 220 487.5 Q245 491 252 491 Q264 491 289.5 489 Q315 487 340.5 480.5 Q366 474 385.5 462.5 Q405 451 405 432 Z "/>
<glyph glyph-name="U" unicode="U" horiz-adv-x="482" d="M480 457 Q480 451 474.5 434.5 Q469 418 461.5 397 Q454 376 445.5 354 Q437 332 431 315 Q429 310 422 285 Q415 260 402.5 225 Q390 190 373.5 150.5 Q357 111 337 77.5 Q317 44 293 22 Q269 0 243 0 Q232 0 220.5 0 Q209 0 195 4 Q181 8 165.5 18.5 Q150 29 132 49 Q120 62 108.5 84.5 Q97 107 88 130 Q79 153 73.5 172 Q68 191 68 198 Q68 211 77 232.5 Q86 254 88 271 Q88 276 91 293 Q94 310 99 332.5 Q104 355 111.5 380 Q119 405 128.5 425.5 Q138 446 149.5 459.5 Q161 473 175 473 Q181 473 189 467 Q197 461 204 453 Q211 445 216 435.5 Q221 426 221 419 Q221 412 210 392.5 Q199 373 186.5 344.5 Q174 316 163 281.5 Q152 247 152 210 Q152 196 157 178 Q162 160 173 144 Q184 128 200.5 117.5 Q217 107 240 107 Q252 107 261 116.5 Q270 126 277.5 138.5 Q285 151 290 163 Q295 175 300 181 Q311 196 323 216.5 Q335 237 345 257 Q348 263 354 283.5 Q360 304 368 330.5 Q376 357 385.5 386 Q395 415 405.5 439.5 Q416 464 426 480 Q436 496 446 496 Q459 496 466 491 Q473 486 476 479 Q479 472 479.5 466 Q480 460 480 457 Z "/>
<glyph glyph-name="V" unicode="V" horiz-adv-x="334" d="M411 499 Q411 493 404 480.5 Q397 468 387 453 Q377 438 366 422.5 Q355 407 347 395 Q345 392 331.5 361.5 Q318 331 297.5 287 Q277 243 252.5 192.5 Q228 142 203.5 99.5 Q179 57 157 28.5 Q135 0 120 0 Q96 0 81.5 21.5 Q67 43 59.5 70 Q52 97 50 120.5 Q48 144 48 147 Q48 154 50 178.5 Q52 203 56 235.5 Q60 268 67 304 Q74 340 83 370 Q92 400 104 419.5 Q116 439 131 439 Q145 439 147 434.5 Q149 430 160 430 Q160 425 164.5 420 Q169 415 169 401 Q169 388 159.5 375 Q150 362 148 351 Q144 331 139.5 307 Q135 283 131.5 260 Q128 237 126 218.5 Q124 200 124 193 Q124 180 123.5 175 Q123 170 128 159 Q166 196 194 240.5 Q222 285 246.5 333 Q271 381 295.5 430.5 Q320 480 353 529 L403 529 Q403 523 407 518 Q411 513 411 499 Z "/>
<glyph glyph-name="W" unicode="W" horiz-adv-x="447" d="M488 458 Q488 452 483 441.5 Q478 431 470.5 419 Q463 407 455.5 394.5 Q448 382 444 371 Q428 329 417.5 284 Q407 239 392.5 196.5 Q378 154 355 115.5 Q332 77 290 47 Q279 50 268 66 Q257 82 247 102.5 Q237 123 228.5 143 Q220 163 214 174 Q199 166 191 150.5 Q183 135 167 115 Q166 114 157.5 96 Q149 78 137 57 Q125 36 112 19 Q99 2 88 2 Q81 2 72.5 9 Q64 16 56.5 26 Q49 36 44 47 Q39 58 39 65 Q39 71 41 90 Q43 109 46 133 Q49 157 52.5 183.5 Q56 210 59 231 Q63 257 67 294 Q71 331 77 366.5 Q83 402 92.5 428 Q102 454 118 458 L133 449 Q137 431 138 410.5 Q139 390 138.5 369 Q138 348 137.5 327.5 Q137 307 138 289 Q136 284 135 274.5 Q134 265 129 260 Q132 257 132.5 255 Q133 253 134 251.5 Q135 250 137.5 249.5 Q140 249 147 249 Q153 249 163.5 263.5 Q174 278 186 299 Q198 320 211 343 Q224 366 235 383 Q242 384 254.5 376.5 Q267 369 272 358 Q277 319 282.5 276 Q288 233 299 188 Q306 187 310.5 194.5 Q315 202 321 216 Q349 282 371 356.5 Q393 431 422 510 L455 510 Q466 499 477 485.5 Q488 472 488 458 Z "/>
<glyph glyph-name="X" unicode="X" horiz-adv-x="398" d="M411 460 Q411 449 403 433 Q395 417 387 403 Q373 396 355.5 380 Q338 364 320 344 Q302 324 285 303 Q268 282 254.5 264.5 Q241 247 232.5 235 Q224 223 224 223 Q224 212 243 191.5 Q262 171 285 148 Q308 125 328 103 Q348 81 351 68 Q346 63 338 57.5 Q330 52 317 52 Q303 52 283 63.5 Q263 75 242 90 Q221 105 201 121 Q181 137 167 146 Q156 139 143.5 115.5 Q131 92 116 66 Q101 40 85 19.5 Q69 -1 53 -1 Q47 -1 40 2.5 Q33 6 26 11.5 Q19 17 14.5 23.5 Q10 30 10 36 Q10 42 18 56.5 Q26 71 37.5 88.5 Q49 106 60.5 122.5 Q72 139 79 149 Q84 157 95.5 165.5 Q107 174 115 185 Q117 189 120.5 194.5 Q124 200 124 213 Q124 219 116.5 240 Q109 261 100.5 285 Q92 309 84.5 330 Q77 351 77 357 Q77 368 80.5 381 Q84 394 91 405.5 Q98 417 108 425 Q118 433 130 433 Q141 433 151.5 426 Q162 419 165 410 Q161 392 156.5 377 Q152 362 151 348 Q150 334 156.5 319 Q163 304 181 286 Q196 292 211.5 310 Q227 328 242.5 351 Q258 374 274.5 399.5 Q291 425 307 446 Q323 467 339 480.5 Q355 494 371 494 Q378 494 385.5 489.5 Q393 485 398.5 479 Q404 473 407.5 467.5 Q411 462 411 460 Z "/>
<glyph glyph-name="Y" unicode="Y" horiz-adv-x="310" d="M315 411 Q315 406 309.5 399.5 Q304 393 296 385.5 Q288 378 280 369.5 Q272 361 267 352 Q253 327 237.5 299.5 Q222 272 206 242.5 Q190 213 176 183 Q162 153 152 123 Q148 111 149.5 95 Q151 79 152.5 62.5 Q154 46 152.5 31 Q151 16 141 6 L116 6 Q106 21 99.5 42 Q93 63 88 80 Q86 89 87 101 Q88 113 89.5 126 Q91 139 92 151.5 Q93 164 91 173 Q85 198 76.5 223 Q68 248 62 274 Q57 296 45.5 325.5 Q34 355 22.5 382.5 Q11 410 2 432 Q-7 454 -7 461 Q-7 483 3 491.5 Q13 500 29 500 Q43 500 47 498 Q51 496 54 491 Q71 447 88.5 393 Q106 339 127 285 L147 285 Q149 288 156.5 303.5 Q164 319 174.5 339.5 Q185 360 197 383.5 Q209 407 221 426.5 Q233 446 244 459 Q255 472 262 472 Q276 472 281.5 467.5 Q287 463 293 461 Q299 452 307 437.5 Q315 423 315 411 Z "/>
<glyph glyph-name="Z" unicode="Z" horiz-adv-x="458" d="M456 99 Q450 94 443 82 Q436 70 425 68 Q383 65 337.5 66.5 Q292 68 251 59 Q230 54 200 43 Q170 32 141.5 20.5 Q113 9 91 0.5 Q69 -8 62 -8 Q56 -8 49.5 -0.5 Q43 7 37.5 17 Q32 27 28 37.5 Q24 48 24 54 Q24 62 39.5 85 Q55 108 78 138.5 Q101 169 128.5 204.5 Q156 240 179 272.5 Q202 305 217.5 332.5 Q233 360 233 375 Q233 386 229.5 390.5 Q226 395 221 396.5 Q216 398 210.5 397 Q205 396 202 396 Q195 396 181.5 392.5 Q168 389 153 385.5 Q138 382 124 378.5 Q110 375 104 375 Q98 375 89 380 Q80 385 72 392.5 Q64 400 58 409 Q52 418 52 427 Q52 433 56 441 Q60 449 65.5 456.5 Q71 464 77.5 469.5 Q84 475 89 476 Q107 480 129 482 Q151 484 172 485 Q193 486 209.5 486 Q226 486 233 486 Q242 486 261.5 484.5 Q281 483 301 477.5 Q321 472 336 461.5 Q351 451 351 434 Q351 420 341.5 397.5 Q332 375 316.5 348 Q301 321 283 292.5 Q265 264 248 238.5 Q231 213 217.5 193 Q204 173 198 163 Q228 150 265 147.5 Q302 145 339 142.5 Q376 140 407 131.5 Q438 123 456 99 Z "/>
<glyph glyph-name="bracketleft" unicode="[" horiz-adv-x="426" d="M394 494 Q389 491 381 486 Q373 481 366 479 Q338 474 306 468 Q274 462 242 445 Q231 439 224 430.5 Q217 422 212.5 411.5 Q208 401 204.5 390 Q201 379 197 370 Q192 358 187.5 339.5 Q183 321 178 308 Q173 291 162.5 269 Q152 247 147 230 Q140 206 131.5 176.5 Q123 147 115.5 119.5 Q108 92 102.5 71.5 Q97 51 97 46 Q97 30 106 25 Q115 20 123 20 Q128 20 143 21.5 Q158 23 175 25 Q192 27 207 28.5 Q222 30 227 30 Q239 30 255 31 Q271 32 285 29 Q299 26 308 16 Q317 6 316 -16 Q310 -28 296.5 -33 Q283 -38 268 -40 Q253 -42 238.5 -42.5 Q224 -43 215 -45 Q195 -49 169.5 -53.5 Q144 -58 134 -58 L84 -58 Q75 -58 67 -51.5 Q59 -45 53 -36 Q47 -27 43.5 -17.5 Q40 -8 40 -1 Q40 3 42 13 Q44 23 46.5 35.5 Q49 48 52.5 62.5 Q56 77 59 90 Q65 116 74 149 Q83 182 93 216.5 Q103 251 113 284.5 Q123 318 131 344.5 Q139 371 144 389 Q149 407 149 410 Q149 414 144 424.5 Q139 435 133.5 446 Q128 457 123 466.5 Q118 476 118 480 Q118 490 123.5 494.5 Q129 499 129 503 Q170 500 196 506.5 Q222 513 243 521.5 Q264 530 286 537.5 Q308 545 342 545 Q354 545 363 544.5 Q372 544 378 539 Q384 534 387.5 523.5 Q391 513 394 494 Z "/>
<glyph glyph-name="backslash" unicode="\" horiz-adv-x="209" d="M241 27 Q241 18 238.5 16 Q236 14 236 6 Q233 6 225.5 3.5 Q218 1 210 1 Q206 1 197.5 16.5 Q189 32 179.5 51 Q170 70 162 87 Q154 104 152 107 Q140 131 126 159 Q112 187 96.5 216 Q81 245 65 273 Q49 301 35 325 Q33 328 20 348.5 Q7 369 -8.5 394.5 Q-24 420 -36.5 444.5 Q-49 469 -49 481 Q-49 485 -46 491.5 Q-43 498 -39 504 Q-35 510 -30 514.5 Q-25 519 -20 519 Q-13 519 -2.5 509 Q8 499 18 486 Q28 473 35.5 461.5 Q43 450 44 446 Q46 440 42 429 Q38 418 42 408 Q55 378 74 346 Q93 314 109 280 Q113 271 120.5 260 Q128 249 136.5 237 Q145 225 153.5 213 Q162 201 168 190 Q178 171 190.5 145 Q203 119 214.5 94 Q226 69 233.5 50 Q241 31 241 27 Z "/>
<glyph glyph-name="bracketright" unicode="]" horiz-adv-x="337" d="M258 499 Q258 495 253.5 465.5 Q249 436 242 393 Q235 350 227.5 300.5 Q220 251 213 208 Q206 165 201.5 135 Q197 105 197 102 Q197 97 200.5 88.5 Q204 80 208 71 Q212 62 215.5 53.5 Q219 45 219 40 Q219 35 214 27 Q209 19 202.5 10 Q196 1 189 -8 Q182 -17 178 -24 Q170 -19 163 -13 Q156 -7 147 -7 Q136 -7 131.5 -16 Q127 -25 123 -28 Q116 -30 106.5 -35 Q97 -40 87.5 -45 Q78 -50 68 -54 Q58 -58 51 -58 Q40 -58 35.5 -54.5 Q31 -51 28 -45 Q25 -39 22.5 -32 Q20 -25 13 -17 L13 8 Q29 17 46 21 Q63 25 79.5 31 Q96 37 111.5 46.5 Q127 56 139 75 Q148 90 147.5 114 Q147 138 150 158 Q155 193 159.5 229.5 Q164 266 172 304 Q174 313 177 327 Q180 341 183.5 355.5 Q187 370 189.5 382 Q192 394 192 399 L192 458 Q163 458 146.5 457 Q130 456 121.5 455 Q113 454 108.5 453 Q104 452 99 452 Q85 452 68 455 Q51 458 36 464.5 Q21 471 11 483 Q1 495 1 513 Q1 524 2 525.5 Q3 527 8 535 Q17 535 33 534 Q49 533 65 532.5 Q81 532 94.5 531 Q108 530 113 530 Q118 530 133 532.5 Q148 535 167 539 Q186 543 205.5 546.5 Q225 550 240 552 Q248 539 253 524.5 Q258 510 258 499 Z "/>
<glyph glyph-name="asciicircum" unicode="^" horiz-adv-x="352" d="M303 303 Q303 292 298 277.5 Q293 263 288 254 Q271 261 262 272.5 Q253 284 245.5 297.5 Q238 311 229.5 325.5 Q221 340 207 352 Q189 334 169.5 306.5 Q150 279 133 254 Q116 229 103 211 Q90 193 84 193 Q77 193 70 201 Q63 209 57 219 Q51 229 47.5 238 Q44 247 44 248 Q44 254 61.5 281.5 Q79 309 103.5 346 Q128 383 154.5 423 Q181 463 199 493 L228 493 Q239 470 252 440 Q265 410 276.5 381.5 Q288 353 295.5 331 Q303 309 303 303 Z "/>
<glyph glyph-name="underscore" unicode="_" horiz-adv-x="375" d="M375 -50 Q370 -57 365.5 -64.5 Q361 -72 357 -79 Q349 -79 337 -77 Q325 -75 314 -75 Q310 -75 291 -76.5 Q272 -78 245 -80.5 Q218 -83 187 -85.5 Q156 -88 129 -90.5 Q102 -93 82.5 -94.5 Q63 -96 60 -96 Q25 -96 12 -90 Q-1 -84 -1 -75 Q-1 -67 12 -65 Q25 -63 33 -63 Q44 -63 49.5 -64 Q55 -65 65 -65 Q69 -65 88.5 -63.5 Q108 -62 136 -59 Q164 -56 195.5 -53.5 Q227 -51 255 -48 Q283 -45 302.5 -43.5 Q322 -42 326 -42 Q346 -42 375 -50 Z "/>
<glyph glyph-name="grave" unicode="`" horiz-adv-x="250" d="M190 382 Q185 382 180.5 379 Q176 376 163 376 Q148 376 124.5 386 Q101 396 78.5 408 Q56 420 39.5 431 Q23 442 22 445 Q20 452 10 463 Q0 474 0 482 Q0 491 7.5 496.5 Q15 502 15 510 L52 510 Q88 483 121.5 456 Q155 429 190 405 L190 382 L190 382 Z "/>
<glyph glyph-name="a" unicode="a" horiz-adv-x="302" d="M272 77 Q272 65 264.5 56 Q257 47 247 40.5 Q237 34 227 30.5 Q217 27 211 27 Q199 27 189.5 32.5 Q180 38 171 46.5 Q162 55 153 64 Q144 73 135 80 Q130 74 119.5 60.5 Q109 47 96 33 Q83 19 69 8.5 Q55 -2 43 -2 Q22 -2 9.5 9 Q-3 20 -10 34.5 Q-17 49 -19 63 Q-21 77 -21 83 Q-21 88 -16.5 109.5 Q-12 131 -3.5 160 Q5 189 17.5 221.5 Q30 254 45.5 281 Q61 308 79.5 326 Q98 344 120 344 Q130 344 137.5 339.5 Q145 335 152 329 Q153 327 158 321 Q163 315 169.5 307.5 Q176 300 183.5 292.5 Q191 285 199 282 Q200 274 204 260.5 Q208 247 208 235 Q208 230 204 214 Q200 198 195.5 179.5 Q191 161 187.5 145 Q184 129 184 124 Q184 114 193 105 Q202 96 211 91 Q213 92 220 94 Q225 95 236 96 Q247 97 264 97 Q269 92 270.5 90 Q272 88 272 77 Z M143 241 Q143 252 140 254 Q137 256 137 261 L115 261 Q109 253 95.5 230.5 Q82 208 67.5 181.5 Q53 155 42.5 129 Q32 103 32 89 Q32 83 33 80.5 Q34 78 36 76 Q38 74 40 74 Q67 92 83.5 121.5 Q100 151 111 175 Q120 193 131.5 212 Q143 231 143 241 Z "/>
<glyph glyph-name="b" unicode="b" horiz-adv-x="275" d="M243 254 Q243 236 241 220.5 Q239 205 232 187.5 Q225 170 213 149 Q201 128 180 101 Q177 98 162 81.5 Q147 65 128 46.5 Q109 28 91 13.5 Q73 -1 63 -1 Q58 -1 49.5 9.5 Q41 20 32 33 Q23 46 16.5 57.5 Q10 69 10 70 Q10 74 13 82.5 Q16 91 19.5 101 Q23 111 27 121 Q31 131 33 139 Q41 165 45 194.5 Q49 224 54 250 Q56 267 62.5 287 Q69 307 74 326 Q76 336 79 350.5 Q82 365 84 376 Q89 400 95 422 Q101 444 104 467 Q105 472 108 480 Q111 488 115.5 496 Q120 504 125 509.5 Q130 515 136 515 Q146 515 151 510 Q156 505 158.5 499 Q161 493 161.5 486.5 Q162 480 162 477 Q162 472 156.5 453.5 Q151 435 144 414 Q137 393 131.5 374.5 Q126 356 126 351 L126 316 Q135 312 145 313.5 Q155 315 164 318 Q173 321 181.5 324.5 Q190 328 197 328 Q205 328 217.5 320 Q230 312 235 307 Q242 298 242.5 281.5 Q243 265 243 254 Z M201 251 Q197 251 194 254 Q192 255 190 257 Q167 246 145.5 238 Q124 230 98 219 Q95 204 89.5 188 Q84 172 78.5 158 Q73 144 69.5 133 Q66 122 66 118 Q66 116 66 111 Q66 106 67.5 101.5 Q69 97 74 93.5 Q79 90 88 90 Q98 90 113.5 105.5 Q129 121 145 141 Q161 161 173.5 180.5 Q186 200 190 208 Q195 217 198.5 230 Q202 243 201 251 Z "/>
<glyph glyph-name="c" unicode="c" horiz-adv-x="311" d="M293 124 Q293 119 282.5 105.5 Q272 92 256 76 Q240 60 222.5 45 Q205 30 191 22 Q184 18 172 14 Q160 10 147.5 6.5 Q135 3 123.5 0.5 Q112 -2 106 -2 Q87 -2 68 8 Q49 18 33.5 33 Q18 48 8 65 Q-2 82 -2 96 Q-2 105 5 126 Q12 147 24 174 Q36 201 53 230 Q70 259 89.5 283 Q109 307 131 322.5 Q153 338 176 338 Q185 338 194 337.5 Q203 337 209 329 Q220 315 226 293 Q232 271 232 260 Q232 255 226.5 241 Q221 227 213.5 209 Q206 191 198 172.5 Q190 154 185 139 Q182 134 177.5 130 Q173 126 162 126 Q152 126 139 139 Q126 152 126 162 Q126 164 132 174.5 Q138 185 145 199.5 Q152 214 157.5 229 Q163 244 161 254 Q153 250 142.5 242 Q132 234 127 227 Q115 213 101 194 Q87 175 75.5 156 Q64 137 56 121.5 Q48 106 48 101 Q48 78 57 69 Q66 60 84 60 Q99 60 120.5 67 Q142 74 166 85 Q190 96 215 111 Q240 126 261 143 L280 143 Q285 138 289 136 Q293 134 293 124 Z "/>
<glyph glyph-name="d" unicode="d" horiz-adv-x="334" d="M329 473 Q329 464 328 455 Q327 446 321 438 Q295 404 275 366.5 Q255 329 248 302 Q243 282 235.5 257.5 Q228 233 221 208.5 Q214 184 210 160 Q206 136 209 116 Q210 108 214 101 Q218 94 220.5 86.5 Q223 79 221.5 70 Q220 61 210 49 Q208 48 206.5 47.5 Q205 47 194 47 Q185 47 180 50 Q175 53 164 53 Q159 53 146.5 45.5 Q134 38 120 28.5 Q106 19 93.5 11.5 Q81 4 76 4 Q58 4 44.5 18 Q31 32 22.5 49.5 Q14 67 9.5 82.5 Q5 98 5 102 Q5 112 12 131.5 Q19 151 31 174.5 Q43 198 58 222 Q73 246 90 266 Q107 286 124 298.5 Q141 311 156 311 Q165 311 174.5 305 Q184 299 192 299 Q192 300 197 316 Q202 332 211 355.5 Q220 379 231.5 406 Q243 433 255.5 456 Q268 479 280.5 494 Q293 509 304 509 Q318 509 323.5 496.5 Q329 484 329 473 Z M170 207 Q170 217 167 223 Q164 229 164 233 L144 233 Q142 231 129 214 Q116 197 100.5 175 Q85 153 72.5 131 Q60 109 60 97 Q60 86 64 83 Q68 80 72 75 Q94 73 112.5 86 Q131 99 143.5 120 Q156 141 163 164.5 Q170 188 170 207 Z "/>
<glyph glyph-name="e" unicode="e" horiz-adv-x="315" d="M276 307 Q276 292 265.5 275 Q255 258 239 241 Q223 224 204 208.5 Q185 193 169 181 Q165 178 158 175.5 Q151 173 143 170 Q135 167 127 164.5 Q119 162 113 160 Q106 158 101 148.5 Q96 139 93 128.5 Q90 118 88.5 108 Q87 98 87 95 Q87 62 102 50.5 Q117 39 137 39 Q151 39 162.5 42.5 Q174 46 186.5 53 Q199 60 213 69 Q227 78 245 89 L270 89 Q241 35 205 17.5 Q169 0 131 0 Q120 0 100 5.5 Q80 11 61 22 Q42 33 28 49 Q14 65 14 87 Q14 115 31.5 152.5 Q49 190 75.5 227 Q102 264 133.5 294 Q165 324 194 338 Q202 342 215 341.5 Q228 341 237 341 Q250 341 257.5 337 Q265 333 269 328 Q273 323 274.5 317 Q276 311 276 307 Z M190 273 Q185 273 178.5 268 Q172 263 165.5 255.5 Q159 248 153 239.5 Q147 231 143 225 Q160 233 178 246 Q196 259 209 273 L190 273 Z "/>
<glyph glyph-name="f" unicode="f" horiz-adv-x="293" d="M299 456 Q299 440 292.5 417 Q286 394 277 370 Q268 346 258 325 Q248 304 241 293 Q233 296 220 306 Q207 316 207 326 Q207 335 213 348 Q219 361 227 372 L227 386 Q228 386 228 387 Q228 389 220 389 Q211 389 200 375 Q189 361 179 344 Q168 325 156 300 Q156 294 163 290 Q170 286 180 283 Q190 280 200 277.5 Q210 275 216 272 Q220 252 211.5 244.5 Q203 237 189 233.5 Q175 230 160 225.5 Q145 221 136 207 Q131 197 131 185 Q131 173 131 162 Q131 155 129 144.5 Q127 134 125 121 Q124 110 126.5 94.5 Q129 79 131.5 63.5 Q134 48 133 33 Q132 18 123 7 Q115 15 102 24 Q89 33 87 45 Q82 83 83.5 121 Q85 159 83 197 Q75 203 64.5 207 Q54 211 45 215.5 Q36 220 29.5 227.5 Q23 235 23 247 Q23 268 33 272 Q43 276 56 275 Q69 274 82.5 275 Q96 276 103 291 Q111 307 118.5 331.5 Q126 356 137 378 Q142 388 155.5 409.5 Q169 431 186.5 453 Q204 475 223.5 491 Q243 507 260 507 Q274 507 282 500.5 Q290 494 293.5 485.5 Q297 477 298 468.5 Q299 460 299 456 Z "/>
<glyph glyph-name="g" unicode="g" horiz-adv-x="260" d="M195 283 Q195 275 190.5 262.5 Q186 250 184 242 Q182 232 182.5 218.5 Q183 205 183 191 Q183 177 181.5 162.5 Q180 148 176 136 Q174 131 176.5 124.5 Q179 118 177 112 Q176 105 169.5 98 Q163 91 160 84 Q156 75 147 53.5 Q138 32 126.5 6 Q115 -20 100.5 -48 Q86 -76 71.5 -99 Q57 -122 42.5 -137 Q28 -152 15 -152 Q10 -152 6 -147 Q2 -142 -1 -135 Q-4 -128 -5.5 -122 Q-7 -116 -7 -114 Q-7 -97 9 -66 Q25 -35 46 -3 Q67 29 88.5 57.5 Q110 86 121 98 Q124 101 128 109.5 Q132 118 135.5 127 Q139 136 141 144.5 Q143 153 143 157 Q143 165 141 166.5 Q139 168 136 171 Q128 165 118 154.5 Q108 144 97.5 133.5 Q87 123 76.5 115 Q66 107 56 107 Q42 107 33 114.5 Q24 122 19 132.5 Q14 143 11.5 153.5 Q9 164 9 169 Q9 190 18.5 213 Q28 236 42 257.5 Q56 279 72.5 298.5 Q89 318 103 331 Q110 337 120.5 339 Q131 341 139 341 Q154 341 164.5 333.5 Q175 326 181.5 316.5 Q188 307 191.5 297 Q195 287 195 283 Z M142 282 Q134 287 128.5 286 Q123 285 115 279 Q113 277 102.5 265 Q92 253 80.5 237.5 Q69 222 59.5 205 Q50 188 50 177 Q50 169 51 167.5 Q52 166 55 163 Q71 168 86.5 183 Q102 198 114.5 216 Q127 234 134.5 252 Q142 270 142 282 Z "/>
<glyph glyph-name="h" unicode="h" horiz-adv-x="303" d="M264 232 Q264 225 259 208.5 Q254 192 250 181 Q243 157 225 124 Q207 91 194 63 Q189 53 186.5 38.5 Q184 24 181 13 Q180 9 174 2.5 Q168 -4 160 -4 Q154 -4 149 1 Q144 6 140 12.5 Q136 19 134 25.5 Q132 32 132 34 Q132 40 141 59.5 Q150 79 160.5 102.5 Q171 126 179 148.5 Q187 171 185 184 Q143 142 106 95.5 Q69 49 34 11 Q32 12 29 12 Q23 12 21 13 Q17 20 11 28.5 Q5 37 5 47 Q5 51 12.5 71.5 Q20 92 30.5 121 Q41 150 52 183 Q63 216 69 243 Q80 294 87 351.5 Q94 409 105 472 Q105 473 107.5 479 Q110 485 114 492 Q118 499 123.5 504.5 Q129 510 135 510 Q144 510 153.5 498 Q163 486 163 477 Q163 468 160.5 463 Q158 458 156 451 Q151 428 144.5 402 Q138 376 131.5 348 Q125 320 118.5 293 Q112 266 108 242 Q105 224 105 194 Q120 206 136 223 Q152 240 168 256.5 Q184 273 200 284.5 Q216 296 231 296 Q241 296 245.5 292 Q250 288 252 284 Q254 273 259 256.5 Q264 240 264 232 Z "/>
<glyph glyph-name="i" unicode="i" horiz-adv-x="242" d="M258 479 Q258 464 254.5 445.5 Q251 427 251 413 Q246 408 245.5 406.5 Q245 405 233 405 Q224 405 215 410.5 Q206 416 199 425 Q192 434 187.5 444.5 Q183 455 183 465 Q183 473 191 484.5 Q199 496 204 505 Q209 503 215.5 503.5 Q222 504 229 502.5 Q236 501 243 496 Q250 491 258 479 Z M189 333 Q189 310 178.5 280.5 Q168 251 153 218 Q138 185 122.5 150 Q107 115 97 82 Q94 74 100.5 61.5 Q107 49 108 39 Q109 30 103 22.5 Q97 15 89.5 9.5 Q82 4 74.5 1 Q67 -2 64 -2 Q59 -2 51.5 3 Q44 8 37 15.5 Q30 23 25 31 Q20 39 20 45 Q20 48 25.5 64.5 Q31 81 40 105.5 Q49 130 60 160 Q71 190 82.5 221 Q94 252 105 281.5 Q116 311 124 334 Q127 343 134 352 Q141 361 155 361 Q169 361 179 351 Q189 341 189 333 Z "/>
<glyph glyph-name="j" unicode="j" horiz-adv-x="241" d="M248 423 Q236 418 231 412.5 Q226 407 224 401 Q222 395 221 388 Q220 381 216 372 L199 372 Q184 381 175.5 400.5 Q167 420 167 437 Q167 448 170.5 460.5 Q174 473 180 483.5 Q186 494 194.5 500.5 Q203 507 213 507 Q231 507 237.5 499 Q244 491 245 478.5 Q246 466 245 451 Q244 436 248 423 Z M156 208 Q156 183 144 146 Q132 109 113 69 Q94 29 69 -11 Q44 -51 17.5 -83 Q-9 -115 -34.5 -134.5 Q-60 -154 -80 -154 Q-95 -154 -105 -145.5 Q-115 -137 -121.5 -124.5 Q-128 -112 -131 -97.5 Q-134 -83 -134 -72 Q-134 -44 -120.5 -13.5 Q-107 17 -97 49 L-63 49 Q-63 44 -60.5 41 Q-58 38 -58 27 Q-58 22 -62.5 9.5 Q-67 -3 -73 -16.5 Q-79 -30 -83.5 -42.5 Q-88 -55 -88 -60 L-88 -77 Q-84 -81 -84.5 -83.5 Q-85 -86 -75 -86 Q-60 -86 -43.5 -73 Q-27 -60 -10.5 -40 Q6 -20 21 3.5 Q36 27 48 48.5 Q60 70 67.5 85 Q75 100 76 104 Q82 123 94.5 146 Q107 169 109 194 Q111 211 106.5 227.5 Q102 244 102 260 Q102 269 107.5 278 Q113 287 121 287 Q134 287 141 276.5 Q148 266 151.5 252 Q155 238 155.5 225 Q156 212 156 208 Z "/>
<glyph glyph-name="k" unicode="k" horiz-adv-x="353" d="M307 270 Q287 264 258 246.5 Q229 229 202 206.5 Q175 184 156 160 Q137 136 137 117 Q137 107 148.5 102.5 Q160 98 168 95 Q197 86 230 75.5 Q263 65 296 52 L296 15 Q263 15 227.5 14 Q192 13 150 16 Q142 17 132.5 27 Q123 37 112 37 Q107 37 98 31 Q89 25 80 17.5 Q71 10 62.5 4 Q54 -2 49 -2 Q43 -2 36 2 Q29 6 23 12 Q17 18 13.5 24.5 Q10 31 10 37 Q10 40 19.5 66 Q29 92 45 131.5 Q61 171 81 221 Q101 271 121 322 Q141 373 160 422 Q179 471 193 510 L218 510 Q236 492 236 469 Q236 464 227 442 Q218 420 205 390 Q192 360 177.5 327.5 Q163 295 153 270 L153 251 Q167 261 185 271.5 Q203 282 219.5 291 Q236 300 248.5 306 Q261 312 266 312 Q276 312 288 305 Q300 298 307 270 Z "/>
<glyph glyph-name="l" unicode="l" horiz-adv-x="192" d="M208 482 Q208 476 201 455 Q194 434 182.5 405 Q171 376 157.5 341.5 Q144 307 131 275 Q118 243 108 216 Q98 189 93 174 Q88 157 81 136.5 Q74 116 67.5 94 Q61 72 56 48 Q51 24 50 -1 Q42 -2 33.5 1 Q25 4 18.5 8.5 Q12 13 7.5 18.5 Q3 24 3 27 Q3 31 11.5 59 Q20 87 32 124 Q44 161 57.5 201 Q71 241 80 270 Q99 330 125 392 Q151 454 183 508 L201 508 Q208 500 208 482 Z "/>
<glyph glyph-name="m" unicode="m" horiz-adv-x="429" d="M396 269 Q396 255 387.5 226.5 Q379 198 368.5 168.5 Q358 139 348 114.5 Q338 90 334 83 Q329 73 328 54.5 Q327 36 328 22 Q328 17 320.5 8.5 Q313 0 302 0 Q290 0 283 5 Q276 10 271 15 L271 35 Q279 57 284.5 84 Q290 111 293 135 Q295 136 295 138 Q295 142 291 151 Q265 138 251 117 Q237 96 225.5 75.5 Q214 55 201.5 40 Q189 25 167 25 Q163 25 157.5 28.5 Q152 32 146.5 37.5 Q141 43 137 49 Q133 55 133 60 Q133 71 140 80 Q147 89 149 98 Q155 117 167 145.5 Q179 174 178 207 Q161 196 143.5 175 Q126 154 109 127 Q107 124 98 106 Q89 88 77.5 67.5 Q66 47 53.5 30 Q41 13 32 13 Q21 13 14 16.5 Q7 20 2 20 Q1 40 8 68.5 Q15 97 24 129 Q41 192 38.5 235 Q36 278 22 309 Q21 311 20 317 Q19 323 19.5 329 Q20 335 22 339.5 Q24 344 29 344 L62 344 Q69 332 74.5 316 Q80 300 84.5 285.5 Q89 271 94 261 Q99 251 105 251 Q116 251 126.5 264.5 Q137 278 150 294.5 Q163 311 178.5 324.5 Q194 338 214 338 Q244 338 251 323.5 Q258 309 257.5 291 Q257 273 256 258.5 Q255 244 267 244 Q273 244 287 256 Q301 268 316 282 Q331 296 344.5 308 Q358 320 364 320 Q376 320 382.5 312.5 Q389 305 392 295.5 Q395 286 395.5 278 Q396 270 396 269 Z "/>
<glyph glyph-name="n" unicode="n" horiz-adv-x="330" d="M247 247 Q247 226 242.5 209.5 Q238 193 231 178 Q224 163 217 148.5 Q210 134 205 118 Q198 95 192 70 Q186 45 182 21 L163 21 Q155 32 147.5 50.5 Q140 69 140 79 Q140 92 145 104.5 Q150 117 155.5 130.5 Q161 144 165 160 Q169 176 168 197 Q151 184 130.5 151.5 Q110 119 89.5 85.5 Q69 52 52 26 Q35 0 26 0 Q15 0 8.5 11.5 Q2 23 2 34 Q2 40 11 60 Q20 80 31.5 108.5 Q43 137 52 169 Q61 201 61 231 Q61 247 55 257 Q49 267 42 274.5 Q35 282 29 288.5 Q23 295 23 305 Q23 322 35 328.5 Q47 335 63 335 Q83 335 91.5 324 Q100 313 103 297 Q106 281 107 263.5 Q108 246 112 233 Q122 241 134.5 254.5 Q147 268 160 281 Q173 294 184 303.5 Q195 313 201 313 Q217 313 226 305 Q235 297 239.5 286 Q244 275 245.5 264 Q247 253 247 247 Z "/>
<glyph glyph-name="o" unicode="o" horiz-adv-x="281" d="M220 276 Q220 272 218.5 261.5 Q217 251 214.5 237.5 Q212 224 209.5 210.5 Q207 197 205 187 Q204 184 197.5 169 Q191 154 180 132.5 Q169 111 155.5 87 Q142 63 126.5 43 Q111 23 95 9.5 Q79 -4 64 -4 Q49 -4 38 12 Q27 28 19 47.5 Q11 67 7 85 Q3 103 3 107 Q3 116 6 132.5 Q9 149 12 160 Q18 179 24 200.5 Q30 222 39.5 242.5 Q49 263 63.5 280.5 Q78 298 99 310 Q106 314 116 319.5 Q126 325 136.5 329.5 Q147 334 156 337 Q165 340 170 340 Q180 340 189.5 333 Q199 326 205.5 316 Q212 306 216 295 Q220 284 220 276 Z M170 232 Q170 243 167 254 Q164 265 164 273 Q148 275 129.5 256 Q111 237 95.5 210.5 Q80 184 69.5 156 Q59 128 59 112 Q59 101 60 94.5 Q61 88 65 79 L85 79 Q94 93 106 111.5 Q118 130 129 149 Q140 168 149 186.5 Q158 205 160 220 Q163 224 166.5 222.5 Q170 221 170 232 Z "/>
<glyph glyph-name="p" unicode="p" horiz-adv-x="315" d="M271 211 Q271 196 260 180.5 Q249 165 232.5 149.5 Q216 134 196 120.5 Q176 107 158.5 96.5 Q141 86 128 78.5 Q115 71 113 69 Q93 52 87.5 27.5 Q82 3 77 -16 Q73 -32 67.5 -54 Q62 -76 62 -100 Q62 -103 65.5 -110.5 Q69 -118 67 -125 Q65 -132 57.5 -142.5 Q50 -153 42 -161 Q38 -159 32 -155.5 Q26 -152 20 -148 Q14 -144 9.5 -139 Q5 -134 5 -129 Q5 -125 7.5 -114 Q10 -103 14 -88.5 Q18 -74 21.5 -58 Q25 -42 28 -30 Q31 -15 39.5 15.5 Q48 46 58 82.5 Q68 119 78.5 158.5 Q89 198 97 231 Q98 237 96.5 246 Q95 255 92.5 264.5 Q90 274 88 283.5 Q86 293 87 301 Q103 312 110 320.5 Q117 329 121.5 334.5 Q126 340 130.5 343 Q135 346 145 346 Q149 346 153 342.5 Q157 339 160.5 335 Q164 331 167.5 327 Q171 323 175 323 Q189 321 206.5 315.5 Q224 310 235 305 Q243 300 252.5 289.5 Q262 279 264 265 Q266 254 268.5 237 Q271 220 271 211 Z M227 230 Q227 244 216 251 Q205 258 185 258 Q176 258 163.5 254 Q151 250 145 245 Q143 239 142 228.5 Q141 218 139 211 Q138 203 134.5 194.5 Q131 186 127.5 178 Q124 170 121 163 Q118 156 118 152 Q118 144 121 141 Q123 139 125 139 Q132 142 148.5 151.5 Q165 161 182.5 174 Q200 187 213.5 202 Q227 217 227 230 Z "/>
<glyph glyph-name="q" unicode="q" horiz-adv-x="327" d="M240 234 Q240 211 232.5 185.5 Q225 160 216.5 133 Q208 106 200.5 79 Q193 52 193 28 Q193 23 193.5 11.5 Q194 0 195.5 -15.5 Q197 -31 199.5 -47.5 Q202 -64 205 -79 Q207 -90 213 -102.5 Q219 -115 219 -125 Q219 -134 213 -141 Q207 -148 207 -156 Q186 -144 176.5 -128 Q167 -112 163 -93.5 Q159 -75 156.5 -55 Q154 -35 147 -14 Q135 -14 129 -15 Q123 -16 119.5 -16.5 Q116 -17 113.5 -18 Q111 -19 106 -19 Q92 -19 78.5 -10 Q65 -1 53.5 12 Q42 25 33.5 40 Q25 55 22 67 Q18 82 18.5 102.5 Q19 123 19 134 Q19 142 20.5 162.5 Q22 183 22 200 Q22 206 30.5 228 Q39 250 53 275 Q67 300 85 319.5 Q103 339 122 339 Q146 339 167.5 334 Q189 329 205 317 Q221 305 230.5 284.5 Q240 264 240 234 Z M193 223 Q193 224 193.5 230.5 Q194 237 192.5 244.5 Q191 252 187.5 258.5 Q184 265 175 265 Q170 265 162.5 258 Q155 251 148 242 Q141 233 135.5 223.5 Q130 214 130 209 L130 177 Q161 175 175 160 Q183 176 188 194.5 Q193 213 193 223 Z M135 91 Q135 102 129.5 125 Q124 148 122 164 Q111 172 98.5 179.5 Q86 187 78 186 Q70 172 68 152 Q66 132 66 123 Q66 122 66.5 109.5 Q67 97 70 82.5 Q73 68 80 56 Q87 44 101 44 Q106 44 112 50 Q118 56 123 63.5 Q128 71 131.5 79 Q135 87 135 91 Z "/>
<glyph glyph-name="r" unicode="r" horiz-adv-x="282" d="M230 241 Q230 226 224.5 211.5 Q219 197 212 185 Q200 188 188 199 Q176 210 171 224 Q155 219 139 205.5 Q123 192 109.5 173.5 Q96 155 88 134 Q80 113 81 93 Q82 66 82.5 43.5 Q83 21 67 -4 Q59 -5 47 1 Q35 7 31 14 Q27 21 23.5 31 Q20 41 18 51.5 Q16 62 14.5 71 Q13 80 13 85 Q13 89 15.5 98.5 Q18 108 21.5 118.5 Q25 129 28.5 140 Q32 151 33 160 Q39 202 37 248 Q35 294 30 340 L51 340 Q64 340 70 335.5 Q76 331 78.5 322.5 Q81 314 81.5 303 Q82 292 84 279 Q89 279 90 276.5 Q91 274 102 274 Q107 274 117 280 Q127 286 138 293.5 Q149 301 159 307 Q169 313 174 313 Q181 313 189.5 308 Q198 303 205.5 296 Q213 289 219 282 Q225 275 228 272 Q223 258 222.5 252 Q222 246 223.5 243.5 Q225 241 227.5 241.5 Q230 242 230 241 Z "/>
<glyph glyph-name="s" unicode="s" horiz-adv-x="253" d="M170 154 Q170 146 167 128 Q164 110 157 100 Q149 88 136 70 Q123 52 109 35.5 Q95 19 83 7 Q71 -5 67 -5 L36 -5 Q36 -1 33 5 Q30 11 30 19 Q30 24 39 38 Q48 52 60.5 70.5 Q73 89 87 109 Q101 129 110 146 Q98 153 78.5 156.5 Q59 160 46 171 Q41 175 34.5 183 Q28 191 22.5 199.5 Q17 208 13.5 216 Q10 224 10 229 Q10 247 21.5 266.5 Q33 286 49.5 302 Q66 318 84.5 328.5 Q103 339 117 339 Q132 339 141.5 332.5 Q151 326 156 316.5 Q161 307 163 296 Q165 285 165 276 Q165 271 162 263.5 Q159 256 155 247.5 Q151 239 148 231 Q145 223 145 219 Q145 209 152.5 205.5 Q160 202 162 198 Q167 187 168.5 175 Q170 163 170 154 Z M124 220 Q120 228 114.5 239 Q109 250 109 258 Q101 256 88 249.5 Q75 243 75 234 Q75 224 90 224 Q105 224 124 220 Z "/>
<glyph glyph-name="t" unicode="t" horiz-adv-x="182" d="M213 283 Q202 275 191.5 274 Q181 273 169 274 Q157 275 143 273.5 Q129 272 113 263 Q107 260 102.5 251 Q98 242 95 230.5 Q92 219 89.5 207.5 Q87 196 85 188 Q83 180 79 168.5 Q75 157 71 146.5 Q67 136 64.5 127 Q62 118 62 115 L62 75 Q64 75 69 75 Q74 75 79 73 Q84 71 88 66.5 Q92 62 92 54 Q92 44 85.5 34 Q79 24 70.5 15.5 Q62 7 53.5 1.5 Q45 -4 41 -5 Q39 0 32 8.5 Q25 17 24 26 Q23 31 22 38 Q21 45 21 52 Q21 55 22.5 67 Q24 79 26.5 95 Q29 111 32.5 128 Q36 145 39 159 Q43 177 50 199 Q57 221 66 244 L60 250 Q52 245 41.5 240 Q31 235 23 235 Q19 235 15.5 239.5 Q12 244 9 250 Q6 256 4.5 261 Q3 266 3 266 Q3 277 12 284.5 Q21 292 33.5 297.5 Q46 303 58.5 306.5 Q71 310 78 313 Q83 315 86 324 Q89 333 90 340 Q92 345 95 353 Q98 361 98 366 Q98 367 100.5 376.5 Q103 386 107 396 Q111 406 115.5 414.5 Q120 423 125 423 Q133 423 137.5 419.5 Q142 416 144 411.5 Q146 407 146.5 402.5 Q147 398 147 397 Q147 390 138.5 368.5 Q130 347 125 330 Q147 322 169 317 Q191 312 213 301 L213 283 L213 283 Z "/>
<glyph glyph-name="u" unicode="u" horiz-adv-x="260" d="M200 268 Q200 264 198.5 256 Q197 248 194.5 238.5 Q192 229 190 219 Q188 209 187 201 Q182 178 176 144.5 Q170 111 156.5 79.5 Q143 48 118.5 25 Q94 2 54 1 Q48 12 34 25.5 Q20 39 12 54 Q8 61 5.5 71.5 Q3 82 2 92.5 Q1 103 1 113.5 Q1 124 1 131 Q1 185 15.5 233.5 Q30 282 54 331 L90 331 Q90 323 93 317.5 Q96 312 96 303 Q96 286 85 263 Q74 240 63 220 Q56 205 53 193.5 Q50 182 48.5 172 Q47 162 46.5 153.5 Q46 145 45 135 Q44 131 41.5 129.5 Q39 128 39 119 Q39 113 41 103.5 Q43 94 47 85 Q51 76 57.5 69 Q64 62 72 62 Q93 62 106.5 78 Q120 94 128 115 Q136 136 140 156 Q144 176 146 183 Q148 192 153.5 206.5 Q159 221 158 235 Q157 256 155 272.5 Q153 289 163 303 L184 303 Q188 295 194 285.5 Q200 276 200 268 Z "/>
<glyph glyph-name="v" unicode="v" horiz-adv-x="224" d="M195 314 Q195 310 184.5 287.5 Q174 265 159.5 235 Q145 205 130 173.5 Q115 142 107 121 Q99 104 91.5 83.5 Q84 63 72 40 Q70 35 65.5 28.5 Q61 22 55.5 15 Q50 8 44 3.5 Q38 -1 34 -1 Q26 -1 20.5 7.5 Q15 16 12 23 L12 306 Q16 309 17.5 310 Q19 311 28 311 Q36 311 40.5 308 Q45 305 50 301 Q52 291 56 281 Q60 271 62 260 Q63 251 62 238.5 Q61 226 60 212 Q59 198 60.5 183 Q62 168 68 155 Q82 176 94 199.5 Q106 223 118.5 247 Q131 271 145.5 293 Q160 315 178 333 Q182 333 188.5 327.5 Q195 322 195 314 Z "/>
<glyph glyph-name="w" unicode="w" horiz-adv-x="290" d="M292 306 Q292 303 287.5 287.5 Q283 272 276 249.5 Q269 227 260.5 200 Q252 173 243 145 Q236 124 226 97.5 Q216 71 203 49 Q199 42 189.5 32.5 Q180 23 174 13 Q158 10 147.5 18.5 Q137 27 129.5 40.5 Q122 54 116 69.5 Q110 85 103 95 Q92 87 85 71.5 Q78 56 71 40 Q64 24 55 12 Q46 0 31 0 Q17 0 9 9.5 Q1 19 -3 31.5 Q-7 44 -7.5 55 Q-8 66 -8 69 Q-8 73 -4 99 Q0 125 6 160 Q12 195 19 233 Q26 271 32 298 Q33 302 38 307.5 Q43 313 51 313 Q55 313 59.5 307.5 Q64 302 67.5 295 Q71 288 73 281.5 Q75 275 75 274 Q75 273 69 249 Q63 225 55.5 194.5 Q48 164 42 136 Q36 108 36 98 Q36 90 35 88 Q34 86 38 82 Q48 93 56.5 111 Q65 129 73.5 150 Q82 171 90 193 Q98 215 106 234 L130 234 Q136 229 140.5 216.5 Q145 204 145 193 Q145 178 144 163 Q143 148 143.5 133.5 Q144 119 147.5 104 Q151 89 160 74 Q183 88 188.5 107 Q194 126 202 146 Q216 181 228 227.5 Q240 274 254 316 Q256 319 259 324.5 Q262 330 270 330 Q278 330 285 322 Q292 314 292 306 Z "/>
<glyph glyph-name="x" unicode="x" horiz-adv-x="291" d="M246 299 Q246 281 239 271 Q229 258 213.5 241.5 Q198 225 183 209 Q168 193 157 180 Q146 167 146 162 Q146 153 160.5 131.5 Q175 110 193 87 Q211 64 227 44.5 Q243 25 246 20 Q242 15 240 11 Q238 7 228 7 Q218 7 203.5 12.5 Q189 18 172.5 30 Q156 42 139 61 Q122 80 106 107 Q92 105 81.5 88.5 Q71 72 62 53 Q53 34 44 18 Q35 2 23 2 Q15 2 9.5 6 Q4 10 0.5 15 Q-3 20 -4.5 25.5 Q-6 31 -6 33 Q-6 52 6.5 74 Q19 96 33.5 116 Q48 136 60.5 151.5 Q73 167 73 172 Q73 177 67 194.5 Q61 212 54.5 232 Q48 252 42 269 Q36 286 36 291 Q36 299 46.5 308 Q57 317 68 317 Q77 317 83.5 306 Q90 295 96 281 Q102 267 107 253 Q112 239 118 233 Q131 245 145.5 262.5 Q160 280 174 295.5 Q188 311 200 322 Q212 333 220 333 Q228 333 233 327.5 Q238 322 241 316 Q245 308 246 299 Z "/>
<glyph glyph-name="y" unicode="y" horiz-adv-x="223" d="M186 297 Q186 285 176.5 260 Q167 235 153 204 Q139 173 122 139.5 Q105 106 90.5 78 Q76 50 66 31 Q56 12 55 10 Q36 -38 29.5 -74.5 Q23 -111 26 -155 Q26 -157 25 -158 Q23 -161 15 -161 Q4 -161 -2.5 -153 Q-9 -145 -12 -135.5 Q-15 -126 -15.5 -118 Q-16 -110 -16 -109 Q-16 -88 -10.5 -64 Q-5 -40 3 -15 Q11 10 20 35.5 Q29 61 36 86 Q11 103 7 121 Q3 139 3 157 Q3 167 6.5 193.5 Q10 220 15.5 249 Q21 278 26.5 303.5 Q32 329 37 337 Q50 336 56 331.5 Q62 327 64 322 Q66 317 65 312 Q64 307 64 305 Q64 300 61 286.5 Q58 273 54.5 257 Q51 241 48 227 Q45 213 45 209 L45 167 L52 159 Q66 171 79.5 190.5 Q93 210 105.5 231.5 Q118 253 129 274.5 Q140 296 150 313 L181 313 Q181 309 183.5 307.5 Q186 306 186 297 Z "/>
<glyph glyph-name="z" unicode="z" horiz-adv-x="255" d="M217 293 Q217 285 213 276 Q209 267 205 262 Q193 247 175.5 229.5 Q158 212 140 192.5 Q122 173 106 152 Q90 131 81 109 Q93 96 111 96 Q120 96 129 98.5 Q138 101 146 101 Q152 101 159 100 Q166 99 172.5 96.5 Q179 94 183.5 90 Q188 86 188 80 Q188 76 185 70 Q182 64 177 58 Q172 52 166 47 Q160 42 154 41 Q126 35 91 30 Q56 25 27 20 Q21 18 15 12.5 Q9 7 1 7 Q-7 7 -12.5 11.5 Q-18 16 -21 22 Q-24 28 -25.5 34 Q-27 40 -27 43 Q-27 50 -26 58.5 Q-25 67 -21 72 Q14 120 48 159.5 Q82 199 114 245 L114 257 Q108 258 100.5 257.5 Q93 257 84.5 255.5 Q76 254 68.5 252.5 Q61 251 57 251 Q41 251 30.5 266.5 Q20 282 20 296 Q20 308 38 316 Q56 324 79 328 Q102 332 122.5 333.5 Q143 335 149 335 Q163 335 175.5 334 Q188 333 197 329 Q206 325 211.5 316.5 Q217 308 217 293 Z "/>
<glyph glyph-name="braceleft" unicode="{" horiz-adv-x="360" d="M275 484 Q275 480 274 477 Q273 474 272 472 Q271 469 270 467 Q262 469 238 459 Q214 449 188 433.5 Q162 418 141.5 399.5 Q121 381 121 367 Q121 343 138 324.5 Q155 306 175 290.5 Q195 275 212 262.5 Q229 250 229 238 Q229 232 223.5 214.5 Q218 197 212 183 Q210 178 204.5 173 Q199 168 193.5 163 Q188 158 183.5 153.5 Q179 149 179 146 Q179 142 181.5 135 Q184 128 186.5 120 Q189 112 191.5 105 Q194 98 194 94 Q194 90 189.5 67.5 Q185 45 179 18 Q173 -9 168.5 -31.5 Q164 -54 164 -58 Q164 -73 169.5 -78.5 Q175 -84 181 -86.5 Q187 -89 192.5 -91 Q198 -93 198 -100 Q198 -106 194 -110 Q190 -114 185.5 -116.5 Q181 -119 176.5 -120 Q172 -121 171 -121 Q160 -121 151.5 -113.5 Q143 -106 137 -96.5 Q131 -87 128 -78 Q125 -69 125 -65 Q125 -62 130 -39.5 Q135 -17 140.5 8.5 Q146 34 151 56.5 Q156 79 156 82 Q156 102 149 106.5 Q142 111 133.5 114 Q125 117 118 125 Q111 133 110 159 Q114 162 127 169.5 Q140 177 154 186.5 Q168 196 179.5 206.5 Q191 217 191 227 Q191 230 183.5 236.5 Q176 243 167 249.5 Q158 256 150 261 Q142 266 141 268 Q135 274 125.5 286.5 Q116 299 106.5 313 Q97 327 90 341.5 Q83 356 83 367 Q83 373 87 387 Q91 401 96 412 Q101 420 115 433.5 Q129 447 139 453 Q145 457 158 465.5 Q171 474 186 483 Q201 492 216 498.5 Q231 505 242 505 Q250 505 262.5 500.5 Q275 496 275 484 Z "/>
<glyph glyph-name="bar" unicode="|" horiz-adv-x="150" d="M145 452 Q145 447 143 432.5 Q141 418 137.5 398.5 Q134 379 129.5 357 Q125 335 120 316 Q115 298 107 278.5 Q99 259 94 238 Q88 215 84.5 191.5 Q81 168 78 144 Q77 137 72.5 126 Q68 115 68 103 Q68 99 73 92 Q78 85 78 77 Q78 61 76.5 42.5 Q75 24 71 8 Q71 6 70 5 Q68 2 59 2 Q54 2 47.5 8.5 Q41 15 35 23.5 Q29 32 24.5 41 Q20 50 20 56 Q20 64 27 80 Q34 96 37 114 Q38 122 35 132.5 Q32 143 33 150 Q41 191 52 239.5 Q63 288 73.5 336 Q84 384 91 428.5 Q98 473 98 506 L113 506 Q126 506 132.5 499.5 Q139 493 142 484 Q145 475 145 466 Q145 457 145 452 Z "/>
<glyph glyph-name="braceright" unicode="}" horiz-adv-x="312" d="M213 459 Q213 447 207 428 Q201 409 193.5 388.5 Q186 368 178.5 348.5 Q171 329 167 316 Q164 304 158 285 Q152 266 146 247 Q140 228 136 213.5 Q132 199 132 195 Q132 188 133.5 182.5 Q135 177 142 177 Q149 177 153.5 181 Q158 185 167 185 Q176 185 182.5 176 Q189 167 189 161 Q189 154 186 149 Q183 144 181 138 Q175 131 168 121.5 Q161 112 154.5 102 Q148 92 143 82.5 Q138 73 137 66 Q135 56 132 42 Q129 28 126.5 14.5 Q124 1 122 -9.5 Q120 -20 120 -24 Q120 -27 122.5 -38 Q125 -49 128 -61 Q131 -73 133.5 -83.5 Q136 -94 136 -98 Q136 -100 133.5 -103.5 Q131 -107 129 -111 Q126 -115 123 -120 Q115 -118 108 -103.5 Q101 -89 96 -72 Q91 -55 87.5 -38.5 Q84 -22 84 -16 Q84 -13 85.5 -2.5 Q87 8 89.5 22 Q92 36 94.5 50 Q97 64 99 75 Q101 89 108.5 107.5 Q116 126 116 133 Q116 137 113 144.5 Q110 152 106 160 Q102 168 99 175.5 Q96 183 96 187 Q96 198 102 219.5 Q108 241 117 267 Q126 293 136.5 321 Q147 349 156 373 Q165 397 171 414.5 Q177 432 177 437 Q177 446 172.5 449.5 Q168 453 162 454.5 Q156 456 149.5 455.5 Q143 455 140 455 Q136 455 128 453 Q120 451 111 449 Q102 447 94 445 Q86 443 82 443 Q75 443 69.5 447.5 Q64 452 64 459 Q64 475 78 483.5 Q92 492 109.5 496.5 Q127 501 144 502 Q161 503 167 503 Q195 503 204 490 Q213 477 213 459 Z "/>
<glyph glyph-name="asciitilde" unicode="~" horiz-adv-x="406" d="M392 217 Q392 209 375.5 197.5 Q359 186 339.5 175.5 Q320 165 302.5 157.5 Q285 150 284 150 Q273 149 259.5 147.5 Q246 146 237 146 Q209 146 193.5 154.5 Q178 163 168 173 Q158 183 149 191.5 Q140 200 126 200 Q116 200 103 192.5 Q90 185 77 176.5 Q64 168 53.5 160.5 Q43 153 38 153 Q28 153 22 160.5 Q16 168 16 175 Q16 182 27.5 195.5 Q39 209 56 222 Q73 235 92 244.5 Q111 254 126 254 Q144 254 157 245 Q170 236 182.5 225 Q195 214 210 205 Q225 196 248 196 Q263 196 282 201.5 Q301 207 318.5 214.5 Q336 222 349.5 228.5 Q363 235 367 238 Q377 233 384.5 229 Q392 225 392 217 Z "/>
<glyph glyph-name="&amp;#x80;" unicode="" horiz-adv-x="255" d="M358 370 Q354 364 351 361 Q333 356 309 349.5 Q285 343 256.5 331.5 Q228 320 197 303 Q166 286 134 262 Q137 251 141.5 241 Q146 231 150 220 Q153 211 153 200 Q153 189 153 179 Q153 161 148 136 Q143 111 135.5 85.5 Q128 60 118.5 37.5 Q109 15 100 4 L78 4 Q71 11 64 21.5 Q57 32 57 39 Q57 51 59.5 68 Q62 85 63.5 103.5 Q65 122 62.5 142 Q60 162 50 180 Q47 186 37.5 198 Q28 210 18 223 Q8 236 0 246.5 Q-8 257 -8 262 Q-8 270 12.5 281 Q33 292 59 303.5 Q85 315 109 324 Q133 333 140 337 Q159 347 181.5 362 Q204 377 231 386 Q238 389 251 391 Q264 393 276.5 394.5 Q289 396 300 397 Q311 398 315 398 Q331 398 338.5 397.5 Q346 397 349 395 Q352 393 354 388.5 Q356 384 362 376 L358 370 Z M120 201 Q120 211 109.5 224.5 Q99 238 83 240 Q87 215 92.5 189 Q98 163 98 141 Q109 152 114.5 170.5 Q120 189 120 201 Z "/>
<glyph glyph-name="&amp;#x20ac;" unicode="" horiz-adv-x="255" d="M358 370 Q354 364 351 361 Q333 356 309 349.5 Q285 343 256.5 331.5 Q228 320 197 303 Q166 286 134 262 Q137 251 141.5 241 Q146 231 150 220 Q153 211 153 200 Q153 189 153 179 Q153 161 148 136 Q143 111 135.5 85.5 Q128 60 118.5 37.5 Q109 15 100 4 L78 4 Q71 11 64 21.5 Q57 32 57 39 Q57 51 59.5 68 Q62 85 63.5 103.5 Q65 122 62.5 142 Q60 162 50 180 Q47 186 37.5 198 Q28 210 18 223 Q8 236 0 246.5 Q-8 257 -8 262 Q-8 270 12.5 281 Q33 292 59 303.5 Q85 315 109 324 Q133 333 140 337 Q159 347 181.5 362 Q204 377 231 386 Q238 389 251 391 Q264 393 276.5 394.5 Q289 396 300 397 Q311 398 315 398 Q331 398 338.5 397.5 Q346 397 349 395 Q352 393 354 388.5 Q356 384 362 376 L358 370 Z M120 201 Q120 211 109.5 224.5 Q99 238 83 240 Q87 215 92.5 189 Q98 163 98 141 Q109 152 114.5 170.5 Q120 189 120 201 Z "/>
<glyph glyph-name="&amp;#xf700;" unicode="" horiz-adv-x="255" d="M358 370 Q354 364 351 361 Q333 356 309 349.5 Q285 343 256.5 331.5 Q228 320 197 303 Q166 286 134 262 Q137 251 141.5 241 Q146 231 150 220 Q153 211 153 200 Q153 189 153 179 Q153 161 148 136 Q143 111 135.5 85.5 Q128 60 118.5 37.5 Q109 15 100 4 L78 4 Q71 11 64 21.5 Q57 32 57 39 Q57 51 59.5 68 Q62 85 63.5 103.5 Q65 122 62.5 142 Q60 162 50 180 Q47 186 37.5 198 Q28 210 18 223 Q8 236 0 246.5 Q-8 257 -8 262 Q-8 270 12.5 281 Q33 292 59 303.5 Q85 315 109 324 Q133 333 140 337 Q159 347 181.5 362 Q204 377 231 386 Q238 389 251 391 Q264 393 276.5 394.5 Q289 396 300 397 Q311 398 315 398 Q331 398 338.5 397.5 Q346 397 349 395 Q352 393 354 388.5 Q356 384 362 376 L358 370 Z M120 201 Q120 211 109.5 224.5 Q99 238 83 240 Q87 215 92.5 189 Q98 163 98 141 Q109 152 114.5 170.5 Q120 189 120 201 Z "/>
<glyph glyph-name="&amp;#x81;" unicode="" d="M-58 507 Q-61 502 -62 494 Q-63 486 -72 486 Q-80 486 -93.5 492.5 Q-107 499 -116 499 Q-130 499 -134.5 494 Q-139 489 -142 483.5 Q-145 478 -150 473 Q-155 468 -170 468 Q-175 468 -187.5 471 Q-200 474 -214.5 477 Q-229 480 -242 483 Q-255 486 -259 486 Q-264 486 -273 484 Q-282 482 -292 480 Q-302 478 -311.5 476 Q-321 474 -325 474 Q-337 474 -341.5 481.5 Q-346 489 -347.5 499.5 Q-349 510 -349.5 521.5 Q-350 533 -353 540 Q-349 544 -345 549 Q-341 554 -337 557 Q-328 564 -314 564.5 Q-300 565 -290 567 Q-278 570 -261 573.5 Q-244 577 -228 579 Q-212 581 -199 582.5 Q-186 584 -182 584 Q-175 584 -149.5 577 Q-124 570 -98 563 Q-90 552 -77.5 539 Q-65 526 -58 507 Z "/>
<glyph glyph-name="&amp;#xf701;" unicode="" d="M-58 507 Q-61 502 -62 494 Q-63 486 -72 486 Q-80 486 -93.5 492.5 Q-107 499 -116 499 Q-130 499 -134.5 494 Q-139 489 -142 483.5 Q-145 478 -150 473 Q-155 468 -170 468 Q-175 468 -187.5 471 Q-200 474 -214.5 477 Q-229 480 -242 483 Q-255 486 -259 486 Q-264 486 -273 484 Q-282 482 -292 480 Q-302 478 -311.5 476 Q-321 474 -325 474 Q-337 474 -341.5 481.5 Q-346 489 -347.5 499.5 Q-349 510 -349.5 521.5 Q-350 533 -353 540 Q-349 544 -345 549 Q-341 554 -337 557 Q-328 564 -314 564.5 Q-300 565 -290 567 Q-278 570 -261 573.5 Q-244 577 -228 579 Q-212 581 -199 582.5 Q-186 584 -182 584 Q-175 584 -149.5 577 Q-124 570 -98 563 Q-90 552 -77.5 539 Q-65 526 -58 507 Z "/>
<glyph glyph-name="&amp;#x82;" unicode="" d="M-47 631 Q-47 620 -58 609.5 Q-69 599 -82 579 Q-89 569 -93.5 554 Q-98 539 -103 522.5 Q-108 506 -116 490.5 Q-124 475 -138 465 Q-161 477 -172 488.5 Q-183 500 -192.5 510 Q-202 520 -214.5 526 Q-227 532 -253 532 Q-267 532 -283.5 531.5 Q-300 531 -314 519 L-314 510 Q-300 508 -287 509.5 Q-274 511 -261 511 Q-248 511 -234 508 Q-220 505 -204 495 Q-207 490 -214.5 484.5 Q-222 479 -230 479 Q-235 479 -244 478 Q-253 477 -262.5 475.5 Q-272 474 -281 473 Q-290 472 -295 472 Q-311 472 -328 474 Q-345 476 -359.5 481.5 Q-374 487 -383 496 Q-392 505 -392 520 Q-392 536 -377 547 Q-362 558 -342 565 Q-322 572 -301.5 575 Q-281 578 -269 578 Q-255 578 -242.5 577 Q-230 576 -217 571.5 Q-204 567 -190 559 Q-176 551 -159 536 Q-145 544 -137 563 Q-136 566 -130 580.5 Q-124 595 -114.5 611 Q-105 627 -93 640 Q-81 653 -68 653 Q-49 653 -48 644.5 Q-47 636 -47 631 Z "/>
<glyph glyph-name="&amp;#x201a;" unicode="" d="M-47 631 Q-47 620 -58 609.5 Q-69 599 -82 579 Q-89 569 -93.5 554 Q-98 539 -103 522.5 Q-108 506 -116 490.5 Q-124 475 -138 465 Q-161 477 -172 488.5 Q-183 500 -192.5 510 Q-202 520 -214.5 526 Q-227 532 -253 532 Q-267 532 -283.5 531.5 Q-300 531 -314 519 L-314 510 Q-300 508 -287 509.5 Q-274 511 -261 511 Q-248 511 -234 508 Q-220 505 -204 495 Q-207 490 -214.5 484.5 Q-222 479 -230 479 Q-235 479 -244 478 Q-253 477 -262.5 475.5 Q-272 474 -281 473 Q-290 472 -295 472 Q-311 472 -328 474 Q-345 476 -359.5 481.5 Q-374 487 -383 496 Q-392 505 -392 520 Q-392 536 -377 547 Q-362 558 -342 565 Q-322 572 -301.5 575 Q-281 578 -269 578 Q-255 578 -242.5 577 Q-230 576 -217 571.5 Q-204 567 -190 559 Q-176 551 -159 536 Q-145 544 -137 563 Q-136 566 -130 580.5 Q-124 595 -114.5 611 Q-105 627 -93 640 Q-81 653 -68 653 Q-49 653 -48 644.5 Q-47 636 -47 631 Z "/>
<glyph glyph-name="&amp;#xf702;" unicode="" d="M-47 631 Q-47 620 -58 609.5 Q-69 599 -82 579 Q-89 569 -93.5 554 Q-98 539 -103 522.5 Q-108 506 -116 490.5 Q-124 475 -138 465 Q-161 477 -172 488.5 Q-183 500 -192.5 510 Q-202 520 -214.5 526 Q-227 532 -253 532 Q-267 532 -283.5 531.5 Q-300 531 -314 519 L-314 510 Q-300 508 -287 509.5 Q-274 511 -261 511 Q-248 511 -234 508 Q-220 505 -204 495 Q-207 490 -214.5 484.5 Q-222 479 -230 479 Q-235 479 -244 478 Q-253 477 -262.5 475.5 Q-272 474 -281 473 Q-290 472 -295 472 Q-311 472 -328 474 Q-345 476 -359.5 481.5 Q-374 487 -383 496 Q-392 505 -392 520 Q-392 536 -377 547 Q-362 558 -342 565 Q-322 572 -301.5 575 Q-281 578 -269 578 Q-255 578 -242.5 577 Q-230 576 -217 571.5 Q-204 567 -190 559 Q-176 551 -159 536 Q-145 544 -137 563 Q-136 566 -130 580.5 Q-124 595 -114.5 611 Q-105 627 -93 640 Q-81 653 -68 653 Q-49 653 -48 644.5 Q-47 636 -47 631 Z "/>
<glyph glyph-name="&amp;#x83;" unicode="" d="M6 594 Q6 565 -8 545.5 Q-22 526 -43 513.5 Q-64 501 -88 494.5 Q-112 488 -131 486 Q-139 485 -147.5 480.5 Q-156 476 -167 476 Q-178 476 -202 481 Q-226 486 -250.5 496 Q-275 506 -294 521.5 Q-313 537 -313 558 Q-313 569 -306 577 Q-299 585 -288 585 Q-278 585 -266 576 Q-254 567 -242 562 Q-233 559 -214 557 Q-195 555 -184 555 Q-162 555 -151.5 563 Q-141 571 -136.5 583 Q-132 595 -129 609.5 Q-126 624 -119.5 636 Q-113 648 -99 656 Q-85 664 -58 664 Q-21 664 -7.5 644.5 Q6 625 6 594 Z "/>
<glyph glyph-name="&amp;#x192;" unicode="" d="M6 594 Q6 565 -8 545.5 Q-22 526 -43 513.5 Q-64 501 -88 494.5 Q-112 488 -131 486 Q-139 485 -147.5 480.5 Q-156 476 -167 476 Q-178 476 -202 481 Q-226 486 -250.5 496 Q-275 506 -294 521.5 Q-313 537 -313 558 Q-313 569 -306 577 Q-299 585 -288 585 Q-278 585 -266 576 Q-254 567 -242 562 Q-233 559 -214 557 Q-195 555 -184 555 Q-162 555 -151.5 563 Q-141 571 -136.5 583 Q-132 595 -129 609.5 Q-126 624 -119.5 636 Q-113 648 -99 656 Q-85 664 -58 664 Q-21 664 -7.5 644.5 Q6 625 6 594 Z "/>
<glyph glyph-name="&amp;#xf703;" unicode="" d="M6 594 Q6 565 -8 545.5 Q-22 526 -43 513.5 Q-64 501 -88 494.5 Q-112 488 -131 486 Q-139 485 -147.5 480.5 Q-156 476 -167 476 Q-178 476 -202 481 Q-226 486 -250.5 496 Q-275 506 -294 521.5 Q-313 537 -313 558 Q-313 569 -306 577 Q-299 585 -288 585 Q-278 585 -266 576 Q-254 567 -242 562 Q-233 559 -214 557 Q-195 555 -184 555 Q-162 555 -151.5 563 Q-141 571 -136.5 583 Q-132 595 -129 609.5 Q-126 624 -119.5 636 Q-113 648 -99 656 Q-85 664 -58 664 Q-21 664 -7.5 644.5 Q6 625 6 594 Z "/>
<glyph glyph-name="&amp;#x84;" unicode="" d="M15 640 Q15 637 6 622 Q-3 607 -16.5 584.5 Q-30 562 -46.5 535.5 Q-63 509 -77 484 Q-78 482 -80 477 Q-82 472 -93 472 Q-106 472 -110.5 478.5 Q-115 485 -116 492.5 Q-117 500 -118 506.5 Q-119 513 -124 513 Q-132 513 -147.5 505.5 Q-163 498 -171 498 Q-175 498 -189.5 499 Q-204 500 -223.5 501.5 Q-243 503 -264 505.5 Q-285 508 -301 510 Q-309 511 -317 519.5 Q-325 528 -325 533 Q-325 542 -321 546.5 Q-317 551 -311 553.5 Q-305 556 -298 556.5 Q-291 557 -285 557 Q-281 557 -266 554.5 Q-251 552 -233.5 549.5 Q-216 547 -201 544.5 Q-186 542 -182 542 Q-161 542 -148 553.5 Q-135 565 -127 580 Q-119 595 -114.5 609.5 Q-110 624 -105 631 Q-103 633 -97.5 636.5 Q-92 640 -84 640 Q-75 640 -70 629 Q-65 618 -54 610 Q-48 613 -42 621 Q-36 629 -29 637.5 Q-22 646 -12.5 651.5 Q-3 657 10 654 Q10 651 12.5 649 Q15 647 15 640 Z "/>
<glyph glyph-name="&amp;#x201e;" unicode="" d="M15 640 Q15 637 6 622 Q-3 607 -16.5 584.5 Q-30 562 -46.5 535.5 Q-63 509 -77 484 Q-78 482 -80 477 Q-82 472 -93 472 Q-106 472 -110.5 478.5 Q-115 485 -116 492.5 Q-117 500 -118 506.5 Q-119 513 -124 513 Q-132 513 -147.5 505.5 Q-163 498 -171 498 Q-175 498 -189.5 499 Q-204 500 -223.5 501.5 Q-243 503 -264 505.5 Q-285 508 -301 510 Q-309 511 -317 519.5 Q-325 528 -325 533 Q-325 542 -321 546.5 Q-317 551 -311 553.5 Q-305 556 -298 556.5 Q-291 557 -285 557 Q-281 557 -266 554.5 Q-251 552 -233.5 549.5 Q-216 547 -201 544.5 Q-186 542 -182 542 Q-161 542 -148 553.5 Q-135 565 -127 580 Q-119 595 -114.5 609.5 Q-110 624 -105 631 Q-103 633 -97.5 636.5 Q-92 640 -84 640 Q-75 640 -70 629 Q-65 618 -54 610 Q-48 613 -42 621 Q-36 629 -29 637.5 Q-22 646 -12.5 651.5 Q-3 657 10 654 Q10 651 12.5 649 Q15 647 15 640 Z "/>
<glyph glyph-name="&amp;#xf704;" unicode="" d="M15 640 Q15 637 6 622 Q-3 607 -16.5 584.5 Q-30 562 -46.5 535.5 Q-63 509 -77 484 Q-78 482 -80 477 Q-82 472 -93 472 Q-106 472 -110.5 478.5 Q-115 485 -116 492.5 Q-117 500 -118 506.5 Q-119 513 -124 513 Q-132 513 -147.5 505.5 Q-163 498 -171 498 Q-175 498 -189.5 499 Q-204 500 -223.5 501.5 Q-243 503 -264 505.5 Q-285 508 -301 510 Q-309 511 -317 519.5 Q-325 528 -325 533 Q-325 542 -321 546.5 Q-317 551 -311 553.5 Q-305 556 -298 556.5 Q-291 557 -285 557 Q-281 557 -266 554.5 Q-251 552 -233.5 549.5 Q-216 547 -201 544.5 Q-186 542 -182 542 Q-161 542 -148 553.5 Q-135 565 -127 580 Q-119 595 -114.5 609.5 Q-110 624 -105 631 Q-103 633 -97.5 636.5 Q-92 640 -84 640 Q-75 640 -70 629 Q-65 618 -54 610 Q-48 613 -42 621 Q-36 629 -29 637.5 Q-22 646 -12.5 651.5 Q-3 657 10 654 Q10 651 12.5 649 Q15 647 15 640 Z "/>
<glyph glyph-name="&amp;#x85;" unicode="" horiz-adv-x="387" d="M365 89 Q365 83 361 78 Q357 73 352.5 67 Q348 61 346 52 Q344 43 348 30 Q344 25 338 21 Q332 17 321 17 Q312 17 306.5 23.5 Q301 30 298 38 Q295 46 294 53 Q293 60 293 61 Q293 81 305.5 93.5 Q318 106 332 106 Q343 106 354 103 Q365 100 365 89 Z M226 53 Q226 35 211.5 23 Q197 11 187 11 Q180 11 174.5 18 Q169 25 165.5 34.5 Q162 44 160.5 52.5 Q159 61 159 64 Q159 73 170 78.5 Q181 84 192 84 Q208 84 217 75 Q226 66 226 53 Z M114 65 Q108 55 105.5 43.5 Q103 32 100.5 20.5 Q98 9 93.5 -2 Q89 -13 79 -22 Q76 -21 70 -17 Q64 -13 57.5 -6.5 Q51 0 46.5 7.5 Q42 15 42 22 Q42 42 53.5 60 Q65 78 84 78 Q95 78 100.5 73.5 Q106 69 114 65 Z "/>
<glyph glyph-name="&amp;#x2026;" unicode="" horiz-adv-x="387" d="M365 89 Q365 83 361 78 Q357 73 352.5 67 Q348 61 346 52 Q344 43 348 30 Q344 25 338 21 Q332 17 321 17 Q312 17 306.5 23.5 Q301 30 298 38 Q295 46 294 53 Q293 60 293 61 Q293 81 305.5 93.5 Q318 106 332 106 Q343 106 354 103 Q365 100 365 89 Z M226 53 Q226 35 211.5 23 Q197 11 187 11 Q180 11 174.5 18 Q169 25 165.5 34.5 Q162 44 160.5 52.5 Q159 61 159 64 Q159 73 170 78.5 Q181 84 192 84 Q208 84 217 75 Q226 66 226 53 Z M114 65 Q108 55 105.5 43.5 Q103 32 100.5 20.5 Q98 9 93.5 -2 Q89 -13 79 -22 Q76 -21 70 -17 Q64 -13 57.5 -6.5 Q51 0 46.5 7.5 Q42 15 42 22 Q42 42 53.5 60 Q65 78 84 78 Q95 78 100.5 73.5 Q106 69 114 65 Z "/>
<glyph glyph-name="&amp;#x86;" unicode="" horiz-adv-x="19" d="M-149 583 Q-149 578 -154.5 563 Q-160 548 -168 532 Q-176 516 -184.5 503 Q-193 490 -199 490 Q-213 490 -213 501 Q-213 503 -209.5 514.5 Q-206 526 -200 541.5 Q-194 557 -187 573.5 Q-180 590 -173 604 L-153 604 Q-151 599 -150 593.5 Q-149 588 -149 583 Z "/>
<glyph glyph-name="&amp;#x2020;" unicode="" horiz-adv-x="19" d="M-149 583 Q-149 578 -154.5 563 Q-160 548 -168 532 Q-176 516 -184.5 503 Q-193 490 -199 490 Q-213 490 -213 501 Q-213 503 -209.5 514.5 Q-206 526 -200 541.5 Q-194 557 -187 573.5 Q-180 590 -173 604 L-153 604 Q-151 599 -150 593.5 Q-149 588 -149 583 Z "/>
<glyph glyph-name="&amp;#xf705;" unicode="" horiz-adv-x="19" d="M-149 583 Q-149 578 -154.5 563 Q-160 548 -168 532 Q-176 516 -184.5 503 Q-193 490 -199 490 Q-213 490 -213 501 Q-213 503 -209.5 514.5 Q-206 526 -200 541.5 Q-194 557 -187 573.5 Q-180 590 -173 604 L-153 604 Q-151 599 -150 593.5 Q-149 588 -149 583 Z "/>
<glyph glyph-name="&amp;#x87;" unicode="" d="M-17 601 Q-17 588 -63 567 Q-66 565 -77.5 556.5 Q-89 548 -105.5 536.5 Q-122 525 -141.5 511.5 Q-161 498 -180 486.5 Q-199 475 -215 467.5 Q-231 460 -240 460 Q-248 460 -253.5 464.5 Q-259 469 -264 475 Q-269 482 -273 491 Q-273 494 -265 503.5 Q-257 513 -248 524 Q-239 535 -231 544.5 Q-223 554 -223 558 L-223 586 Q-223 589 -226.5 589.5 Q-230 590 -235 590 Q-240 590 -245.5 589.5 Q-251 589 -255 589 Q-263 594 -273.5 602 Q-284 610 -284 617 Q-284 624 -277 630 Q-270 636 -260 640.5 Q-250 645 -240.5 647.5 Q-231 650 -226 650 Q-217 650 -207 647 Q-197 644 -188 638 Q-179 632 -173 624.5 Q-167 617 -166 608 Q-165 602 -166 591 Q-167 580 -169 569 Q-170 568 -169 567 Q-169 565 -164 563 Q-149 570 -130.5 580 Q-112 590 -94 599 Q-76 608 -61.5 614.5 Q-47 621 -42 621 Q-31 621 -30 619 Q-29 617 -24 617 Q-17 613 -17 601 Z "/>
<glyph glyph-name="&amp;#x2021;" unicode="" d="M-17 601 Q-17 588 -63 567 Q-66 565 -77.5 556.5 Q-89 548 -105.5 536.5 Q-122 525 -141.5 511.5 Q-161 498 -180 486.5 Q-199 475 -215 467.5 Q-231 460 -240 460 Q-248 460 -253.5 464.5 Q-259 469 -264 475 Q-269 482 -273 491 Q-273 494 -265 503.5 Q-257 513 -248 524 Q-239 535 -231 544.5 Q-223 554 -223 558 L-223 586 Q-223 589 -226.5 589.5 Q-230 590 -235 590 Q-240 590 -245.5 589.5 Q-251 589 -255 589 Q-263 594 -273.5 602 Q-284 610 -284 617 Q-284 624 -277 630 Q-270 636 -260 640.5 Q-250 645 -240.5 647.5 Q-231 650 -226 650 Q-217 650 -207 647 Q-197 644 -188 638 Q-179 632 -173 624.5 Q-167 617 -166 608 Q-165 602 -166 591 Q-167 580 -169 569 Q-170 568 -169 567 Q-169 565 -164 563 Q-149 570 -130.5 580 Q-112 590 -94 599 Q-76 608 -61.5 614.5 Q-47 621 -42 621 Q-31 621 -30 619 Q-29 617 -24 617 Q-17 613 -17 601 Z "/>
<glyph glyph-name="&amp;#xf706;" unicode="" d="M-17 601 Q-17 588 -63 567 Q-66 565 -77.5 556.5 Q-89 548 -105.5 536.5 Q-122 525 -141.5 511.5 Q-161 498 -180 486.5 Q-199 475 -215 467.5 Q-231 460 -240 460 Q-248 460 -253.5 464.5 Q-259 469 -264 475 Q-269 482 -273 491 Q-273 494 -265 503.5 Q-257 513 -248 524 Q-239 535 -231 544.5 Q-223 554 -223 558 L-223 586 Q-223 589 -226.5 589.5 Q-230 590 -235 590 Q-240 590 -245.5 589.5 Q-251 589 -255 589 Q-263 594 -273.5 602 Q-284 610 -284 617 Q-284 624 -277 630 Q-270 636 -260 640.5 Q-250 645 -240.5 647.5 Q-231 650 -226 650 Q-217 650 -207 647 Q-197 644 -188 638 Q-179 632 -173 624.5 Q-167 617 -166 608 Q-165 602 -166 591 Q-167 580 -169 569 Q-170 568 -169 567 Q-169 565 -164 563 Q-149 570 -130.5 580 Q-112 590 -94 599 Q-76 608 -61.5 614.5 Q-47 621 -42 621 Q-31 621 -30 619 Q-29 617 -24 617 Q-17 613 -17 601 Z "/>
<glyph glyph-name="&amp;#x88;" unicode="" d="M104 619 Q104 613 99.5 606.5 Q95 600 88.5 594 Q82 588 76 583 Q70 578 67 574 Q56 560 42 544.5 Q28 529 13 516 Q-2 503 -17.5 494.5 Q-33 486 -46 486 Q-52 486 -58.5 495 Q-65 504 -73 512 Q-81 506 -85.5 501.5 Q-90 497 -93 493.5 Q-96 490 -99 488 Q-102 486 -108 486 Q-120 486 -126 492 Q-132 498 -134 505.5 Q-136 513 -136 521 Q-136 529 -137 533 Q-137 536 -138.5 537.5 Q-140 539 -143 542 Q-148 540 -150.5 534.5 Q-153 529 -158 523 Q-152 500 -154.5 484 Q-157 468 -156 447 Q-158 447 -160.5 445 Q-163 443 -170 443 Q-179 443 -185 448.5 Q-191 454 -195 461 Q-199 468 -201 474.5 Q-203 481 -203 483 Q-203 491 -199 510.5 Q-195 530 -186.5 550 Q-178 570 -166 585.5 Q-154 601 -139 601 Q-129 601 -123 597 Q-117 593 -113 587 Q-109 581 -106 573.5 Q-103 566 -98 558 Q-91 562 -83 569 Q-75 576 -67.5 583 Q-60 590 -53.5 595.5 Q-47 601 -44 601 Q-33 601 -28 595 Q-23 589 -21.5 581.5 Q-20 574 -20 567 Q-20 560 -20 559 Q-20 557 -22 556 Q-24 555 -16 555 Q-13 555 -1 563 Q11 571 26.5 583 Q42 595 58.5 608.5 Q75 622 87 633 L99 633 Q104 629 104 619 Z "/>
<glyph glyph-name="&amp;#x2c6;" unicode="" d="M104 619 Q104 613 99.5 606.5 Q95 600 88.5 594 Q82 588 76 583 Q70 578 67 574 Q56 560 42 544.5 Q28 529 13 516 Q-2 503 -17.5 494.5 Q-33 486 -46 486 Q-52 486 -58.5 495 Q-65 504 -73 512 Q-81 506 -85.5 501.5 Q-90 497 -93 493.5 Q-96 490 -99 488 Q-102 486 -108 486 Q-120 486 -126 492 Q-132 498 -134 505.5 Q-136 513 -136 521 Q-136 529 -137 533 Q-137 536 -138.5 537.5 Q-140 539 -143 542 Q-148 540 -150.5 534.5 Q-153 529 -158 523 Q-152 500 -154.5 484 Q-157 468 -156 447 Q-158 447 -160.5 445 Q-163 443 -170 443 Q-179 443 -185 448.5 Q-191 454 -195 461 Q-199 468 -201 474.5 Q-203 481 -203 483 Q-203 491 -199 510.5 Q-195 530 -186.5 550 Q-178 570 -166 585.5 Q-154 601 -139 601 Q-129 601 -123 597 Q-117 593 -113 587 Q-109 581 -106 573.5 Q-103 566 -98 558 Q-91 562 -83 569 Q-75 576 -67.5 583 Q-60 590 -53.5 595.5 Q-47 601 -44 601 Q-33 601 -28 595 Q-23 589 -21.5 581.5 Q-20 574 -20 567 Q-20 560 -20 559 Q-20 557 -22 556 Q-24 555 -16 555 Q-13 555 -1 563 Q11 571 26.5 583 Q42 595 58.5 608.5 Q75 622 87 633 L99 633 Q104 629 104 619 Z "/>
<glyph glyph-name="&amp;#xf707;" unicode="" d="M104 619 Q104 613 99.5 606.5 Q95 600 88.5 594 Q82 588 76 583 Q70 578 67 574 Q56 560 42 544.5 Q28 529 13 516 Q-2 503 -17.5 494.5 Q-33 486 -46 486 Q-52 486 -58.5 495 Q-65 504 -73 512 Q-81 506 -85.5 501.5 Q-90 497 -93 493.5 Q-96 490 -99 488 Q-102 486 -108 486 Q-120 486 -126 492 Q-132 498 -134 505.5 Q-136 513 -136 521 Q-136 529 -137 533 Q-137 536 -138.5 537.5 Q-140 539 -143 542 Q-148 540 -150.5 534.5 Q-153 529 -158 523 Q-152 500 -154.5 484 Q-157 468 -156 447 Q-158 447 -160.5 445 Q-163 443 -170 443 Q-179 443 -185 448.5 Q-191 454 -195 461 Q-199 468 -201 474.5 Q-203 481 -203 483 Q-203 491 -199 510.5 Q-195 530 -186.5 550 Q-178 570 -166 585.5 Q-154 601 -139 601 Q-129 601 -123 597 Q-117 593 -113 587 Q-109 581 -106 573.5 Q-103 566 -98 558 Q-91 562 -83 569 Q-75 576 -67.5 583 Q-60 590 -53.5 595.5 Q-47 601 -44 601 Q-33 601 -28 595 Q-23 589 -21.5 581.5 Q-20 574 -20 567 Q-20 560 -20 559 Q-20 557 -22 556 Q-24 555 -16 555 Q-13 555 -1 563 Q11 571 26.5 583 Q42 595 58.5 608.5 Q75 622 87 633 L99 633 Q104 629 104 619 Z "/>
<glyph glyph-name="&amp;#x89;" unicode="" d="M-125 569 Q-138 564 -151.5 560.5 Q-165 557 -175 553 Q-188 549 -194 536.5 Q-200 524 -205 514 Q-210 505 -218 497 Q-226 489 -219 478 Q-222 478 -224.5 476.5 Q-227 475 -235 475 Q-249 475 -251 484 Q-252 488 -251 494 Q-251 496 -248 502.5 Q-245 509 -241 516.5 Q-237 524 -234 531 Q-231 538 -231 540 Q-231 545 -232.5 544 Q-234 543 -234 547 Q-241 546 -249.5 546 Q-258 546 -265.5 548 Q-273 550 -278 554 Q-283 558 -283 564 Q-283 571 -273 574.5 Q-263 578 -250.5 580 Q-238 582 -227 583.5 Q-216 585 -214 588 Q-208 596 -199.5 606.5 Q-191 617 -185 626 L-162 626 Q-162 618 -162.5 609.5 Q-163 601 -166 591 Q-158 586 -147 583 Q-136 580 -125 578 L-125 569 L-125 569 Z "/>
<glyph glyph-name="&amp;#x2030;" unicode="" d="M-125 569 Q-138 564 -151.5 560.5 Q-165 557 -175 553 Q-188 549 -194 536.5 Q-200 524 -205 514 Q-210 505 -218 497 Q-226 489 -219 478 Q-222 478 -224.5 476.5 Q-227 475 -235 475 Q-249 475 -251 484 Q-252 488 -251 494 Q-251 496 -248 502.5 Q-245 509 -241 516.5 Q-237 524 -234 531 Q-231 538 -231 540 Q-231 545 -232.5 544 Q-234 543 -234 547 Q-241 546 -249.5 546 Q-258 546 -265.5 548 Q-273 550 -278 554 Q-283 558 -283 564 Q-283 571 -273 574.5 Q-263 578 -250.5 580 Q-238 582 -227 583.5 Q-216 585 -214 588 Q-208 596 -199.5 606.5 Q-191 617 -185 626 L-162 626 Q-162 618 -162.5 609.5 Q-163 601 -166 591 Q-158 586 -147 583 Q-136 580 -125 578 L-125 569 L-125 569 Z "/>
<glyph glyph-name="&amp;#xf708;" unicode="" d="M-125 569 Q-138 564 -151.5 560.5 Q-165 557 -175 553 Q-188 549 -194 536.5 Q-200 524 -205 514 Q-210 505 -218 497 Q-226 489 -219 478 Q-222 478 -224.5 476.5 Q-227 475 -235 475 Q-249 475 -251 484 Q-252 488 -251 494 Q-251 496 -248 502.5 Q-245 509 -241 516.5 Q-237 524 -234 531 Q-231 538 -231 540 Q-231 545 -232.5 544 Q-234 543 -234 547 Q-241 546 -249.5 546 Q-258 546 -265.5 548 Q-273 550 -278 554 Q-283 558 -283 564 Q-283 571 -273 574.5 Q-263 578 -250.5 580 Q-238 582 -227 583.5 Q-216 585 -214 588 Q-208 596 -199.5 606.5 Q-191 617 -185 626 L-162 626 Q-162 618 -162.5 609.5 Q-163 601 -166 591 Q-158 586 -147 583 Q-136 580 -125 578 L-125 569 L-125 569 Z "/>
<glyph glyph-name="&amp;#x8a;" unicode="" d="M139 615 Q139 609 134 606.5 Q129 604 121.5 602.5 Q114 601 105.5 599.5 Q97 598 90 595 Q53 578 12 560.5 Q-29 543 -57 518 Q-59 516 -58.5 511 Q-58 506 -57 500 Q-56 494 -55 487.5 Q-54 481 -55 475 Q-56 470 -64.5 462.5 Q-73 455 -81 450 Q-85 449 -87.5 449 Q-90 449 -101 449 Q-109 449 -118.5 453.5 Q-128 458 -136 464 Q-144 470 -149 476.5 Q-154 483 -154 488 Q-154 505 -139.5 521 Q-125 537 -102.5 550.5 Q-80 564 -53 576 Q-26 588 -1.5 596.5 Q23 605 41.5 610.5 Q60 616 66 618 Q76 621 89.5 626 Q103 631 112 631 Q123 631 128.5 629 Q134 627 139 627 L139 615 L139 615 Z "/>
<glyph glyph-name="&amp;#x160;" unicode="" d="M139 615 Q139 609 134 606.5 Q129 604 121.5 602.5 Q114 601 105.5 599.5 Q97 598 90 595 Q53 578 12 560.5 Q-29 543 -57 518 Q-59 516 -58.5 511 Q-58 506 -57 500 Q-56 494 -55 487.5 Q-54 481 -55 475 Q-56 470 -64.5 462.5 Q-73 455 -81 450 Q-85 449 -87.5 449 Q-90 449 -101 449 Q-109 449 -118.5 453.5 Q-128 458 -136 464 Q-144 470 -149 476.5 Q-154 483 -154 488 Q-154 505 -139.5 521 Q-125 537 -102.5 550.5 Q-80 564 -53 576 Q-26 588 -1.5 596.5 Q23 605 41.5 610.5 Q60 616 66 618 Q76 621 89.5 626 Q103 631 112 631 Q123 631 128.5 629 Q134 627 139 627 L139 615 L139 615 Z "/>
<glyph glyph-name="&amp;#xf709;" unicode="" d="M139 615 Q139 609 134 606.5 Q129 604 121.5 602.5 Q114 601 105.5 599.5 Q97 598 90 595 Q53 578 12 560.5 Q-29 543 -57 518 Q-59 516 -58.5 511 Q-58 506 -57 500 Q-56 494 -55 487.5 Q-54 481 -55 475 Q-56 470 -64.5 462.5 Q-73 455 -81 450 Q-85 449 -87.5 449 Q-90 449 -101 449 Q-109 449 -118.5 453.5 Q-128 458 -136 464 Q-144 470 -149 476.5 Q-154 483 -154 488 Q-154 505 -139.5 521 Q-125 537 -102.5 550.5 Q-80 564 -53 576 Q-26 588 -1.5 596.5 Q23 605 41.5 610.5 Q60 616 66 618 Q76 621 89.5 626 Q103 631 112 631 Q123 631 128.5 629 Q134 627 139 627 L139 615 L139 615 Z "/>
<glyph glyph-name="&amp;#x8b;" unicode="" d="M77 586 Q77 582 67 560 Q57 538 43 513.5 Q29 489 13 469.5 Q-3 450 -16 450 Q-27 450 -34.5 454 Q-42 458 -42 466 Q-42 470 -34 487 Q-26 504 -15 527 Q-4 550 9 574.5 Q22 599 32 619 L69 619 Q74 611 75.5 602 Q77 593 77 586 Z "/>
<glyph glyph-name="&amp;#x2039;" unicode="" d="M77 586 Q77 582 67 560 Q57 538 43 513.5 Q29 489 13 469.5 Q-3 450 -16 450 Q-27 450 -34.5 454 Q-42 458 -42 466 Q-42 470 -34 487 Q-26 504 -15 527 Q-4 550 9 574.5 Q22 599 32 619 L69 619 Q74 611 75.5 602 Q77 593 77 586 Z "/>
<glyph glyph-name="&amp;#xf70a;" unicode="" d="M77 586 Q77 582 67 560 Q57 538 43 513.5 Q29 489 13 469.5 Q-3 450 -16 450 Q-27 450 -34.5 454 Q-42 458 -42 466 Q-42 470 -34 487 Q-26 504 -15 527 Q-4 550 9 574.5 Q22 599 32 619 L69 619 Q74 611 75.5 602 Q77 593 77 586 Z "/>
<glyph glyph-name="&amp;#x8c;" unicode="" d="M51 527 Q29 518 6.5 505 Q-16 492 -38.5 480 Q-61 468 -82.5 459.5 Q-104 451 -124 451 Q-143 451 -162 460 Q-181 469 -181 480 Q-181 483 -171 498.5 Q-161 514 -148.5 532 Q-136 550 -126 566 Q-116 582 -116 585 Q-116 591 -118.5 590.5 Q-121 590 -121 595 L-140 595 Q-145 595 -153.5 591 Q-162 587 -172 582.5 Q-182 578 -191 574.5 Q-200 571 -205 571 Q-214 571 -218.5 574.5 Q-223 578 -225.5 582.5 Q-228 587 -228.5 590.5 Q-229 594 -229 595 Q-229 605 -218.5 614 Q-208 623 -192.5 629.5 Q-177 636 -158.5 639.5 Q-140 643 -124 643 Q-108 643 -97 635.5 Q-86 628 -79 618 Q-72 608 -69.5 598 Q-67 588 -67 583 Q-67 577 -71.5 567.5 Q-76 558 -81.5 548 Q-87 538 -92.5 528.5 Q-98 519 -100 515 Q-95 513 -96 513 Q-97 513 -86 513 Q-82 513 -65.5 519 Q-49 525 -30 531.5 Q-11 538 5.5 544 Q22 550 27 550 Q38 550 42 543.5 Q46 537 51 527 Z "/>
<glyph glyph-name="&amp;#x152;" unicode="" d="M51 527 Q29 518 6.5 505 Q-16 492 -38.5 480 Q-61 468 -82.5 459.5 Q-104 451 -124 451 Q-143 451 -162 460 Q-181 469 -181 480 Q-181 483 -171 498.5 Q-161 514 -148.5 532 Q-136 550 -126 566 Q-116 582 -116 585 Q-116 591 -118.5 590.5 Q-121 590 -121 595 L-140 595 Q-145 595 -153.5 591 Q-162 587 -172 582.5 Q-182 578 -191 574.5 Q-200 571 -205 571 Q-214 571 -218.5 574.5 Q-223 578 -225.5 582.5 Q-228 587 -228.5 590.5 Q-229 594 -229 595 Q-229 605 -218.5 614 Q-208 623 -192.5 629.5 Q-177 636 -158.5 639.5 Q-140 643 -124 643 Q-108 643 -97 635.5 Q-86 628 -79 618 Q-72 608 -69.5 598 Q-67 588 -67 583 Q-67 577 -71.5 567.5 Q-76 558 -81.5 548 Q-87 538 -92.5 528.5 Q-98 519 -100 515 Q-95 513 -96 513 Q-97 513 -86 513 Q-82 513 -65.5 519 Q-49 525 -30 531.5 Q-11 538 5.5 544 Q22 550 27 550 Q38 550 42 543.5 Q46 537 51 527 Z "/>
<glyph glyph-name="&amp;#xf70b;" unicode="" d="M51 527 Q29 518 6.5 505 Q-16 492 -38.5 480 Q-61 468 -82.5 459.5 Q-104 451 -124 451 Q-143 451 -162 460 Q-181 469 -181 480 Q-181 483 -171 498.5 Q-161 514 -148.5 532 Q-136 550 -126 566 Q-116 582 -116 585 Q-116 591 -118.5 590.5 Q-121 590 -121 595 L-140 595 Q-145 595 -153.5 591 Q-162 587 -172 582.5 Q-182 578 -191 574.5 Q-200 571 -205 571 Q-214 571 -218.5 574.5 Q-223 578 -225.5 582.5 Q-228 587 -228.5 590.5 Q-229 594 -229 595 Q-229 605 -218.5 614 Q-208 623 -192.5 629.5 Q-177 636 -158.5 639.5 Q-140 643 -124 643 Q-108 643 -97 635.5 Q-86 628 -79 618 Q-72 608 -69.5 598 Q-67 588 -67 583 Q-67 577 -71.5 567.5 Q-76 558 -81.5 548 Q-87 538 -92.5 528.5 Q-98 519 -100 515 Q-95 513 -96 513 Q-97 513 -86 513 Q-82 513 -65.5 519 Q-49 525 -30 531.5 Q-11 538 5.5 544 Q22 550 27 550 Q38 550 42 543.5 Q46 537 51 527 Z "/>
<glyph glyph-name="&amp;#x8d;" unicode="" d="M250 679 Q231 657 208 629 Q185 601 156 567 Q151 562 139 545.5 Q127 529 111.5 511.5 Q96 494 79.5 480.5 Q63 467 50 467 Q45 467 37.5 472.5 Q30 478 25 481 Q21 490 18.5 498 Q16 506 18 517 Q19 519 21.5 523 Q24 527 24 532 Q24 534 23.5 538 Q23 542 23 547 L23 548 Q23 550 21 552 Q15 552 9 546 Q6 541 -0.5 534 Q-7 527 -15 519.5 Q-23 512 -30.5 505 Q-38 498 -42 492 Q-47 491 -55.5 496.5 Q-64 502 -66 508 Q-70 519 -66.5 532 Q-63 545 -63 561 Q-66 561 -65.5 562.5 Q-65 564 -73 564 Q-79 564 -85 558 Q-91 552 -96.5 544 Q-102 536 -105.5 529 Q-109 522 -109 520 Q-109 514 -101.5 504 Q-94 494 -94 488 Q-94 484 -97 477.5 Q-100 471 -105 464.5 Q-110 458 -115.5 453.5 Q-121 449 -126 449 Q-132 449 -137.5 454 Q-143 459 -146.5 465 Q-150 471 -152 477 Q-154 483 -154 485 Q-154 488 -152.5 496 Q-151 504 -148 514.5 Q-145 525 -141.5 536 Q-138 547 -133 554 Q-127 563 -120.5 572.5 Q-114 582 -105.5 590 Q-97 598 -87.5 603.5 Q-78 609 -67 609 Q-56 609 -50 605 Q-44 601 -40.5 595 Q-37 589 -33.5 582.5 Q-30 576 -24 570 Q-17 574 -8.5 581 Q0 588 8 594 Q16 600 22.5 604.5 Q29 609 33 609 Q48 609 52.5 599 Q57 589 57 583 L57 530 L63 524 Q112 561 149.5 605 Q187 649 229 696 Q240 696 243.5 694 Q247 692 250 692 L250 679 Z "/>
<glyph glyph-name="&amp;#xf70c;" unicode="" d="M250 679 Q231 657 208 629 Q185 601 156 567 Q151 562 139 545.5 Q127 529 111.5 511.5 Q96 494 79.5 480.5 Q63 467 50 467 Q45 467 37.5 472.5 Q30 478 25 481 Q21 490 18.5 498 Q16 506 18 517 Q19 519 21.5 523 Q24 527 24 532 Q24 534 23.5 538 Q23 542 23 547 L23 548 Q23 550 21 552 Q15 552 9 546 Q6 541 -0.5 534 Q-7 527 -15 519.5 Q-23 512 -30.5 505 Q-38 498 -42 492 Q-47 491 -55.5 496.5 Q-64 502 -66 508 Q-70 519 -66.5 532 Q-63 545 -63 561 Q-66 561 -65.5 562.5 Q-65 564 -73 564 Q-79 564 -85 558 Q-91 552 -96.5 544 Q-102 536 -105.5 529 Q-109 522 -109 520 Q-109 514 -101.5 504 Q-94 494 -94 488 Q-94 484 -97 477.5 Q-100 471 -105 464.5 Q-110 458 -115.5 453.5 Q-121 449 -126 449 Q-132 449 -137.5 454 Q-143 459 -146.5 465 Q-150 471 -152 477 Q-154 483 -154 485 Q-154 488 -152.5 496 Q-151 504 -148 514.5 Q-145 525 -141.5 536 Q-138 547 -133 554 Q-127 563 -120.5 572.5 Q-114 582 -105.5 590 Q-97 598 -87.5 603.5 Q-78 609 -67 609 Q-56 609 -50 605 Q-44 601 -40.5 595 Q-37 589 -33.5 582.5 Q-30 576 -24 570 Q-17 574 -8.5 581 Q0 588 8 594 Q16 600 22.5 604.5 Q29 609 33 609 Q48 609 52.5 599 Q57 589 57 583 L57 530 L63 524 Q112 561 149.5 605 Q187 649 229 696 Q240 696 243.5 694 Q247 692 250 692 L250 679 Z "/>
<glyph glyph-name="&amp;#x8e;" unicode="" d="M39 574 Q39 569 29 565.5 Q19 562 6.5 559 Q-6 556 -17.5 553 Q-29 550 -31 545 Q-39 530 -39 514.5 Q-39 499 -44 484 Q-47 475 -50 464 Q-53 453 -57 442 Q-59 444 -67.5 448.5 Q-76 453 -76 458 Q-76 461 -74 471 Q-72 481 -69 493 Q-66 505 -64 515 Q-62 525 -62 528 Q-62 533 -66.5 536 Q-71 539 -77 539 Q-84 539 -95 538 Q-106 537 -113 537 Q-123 537 -137.5 538 Q-152 539 -161 548 Q-160 552 -163.5 556 Q-167 560 -167 565 Q-167 573 -156 577 Q-145 581 -140 581 Q-133 581 -124.5 578 Q-116 575 -109 575 Q-105 575 -96.5 576.5 Q-88 578 -79 580 Q-70 582 -63 583.5 Q-56 585 -56 585 Q-52 595 -50 606 Q-48 617 -46 628 Q-44 635 -37 640 L-23 640 Q-18 640 -17.5 635 Q-17 630 -17 626 Q-17 619 -21 610.5 Q-25 602 -25 597 Q-25 589 -16 588.5 Q-7 588 -5 588 Q3 588 8 589.5 Q13 591 19 591 Q30 591 34.5 585 Q39 579 39 574 Z "/>
<glyph glyph-name="&amp;#x17d;" unicode="" d="M39 574 Q39 569 29 565.5 Q19 562 6.5 559 Q-6 556 -17.5 553 Q-29 550 -31 545 Q-39 530 -39 514.5 Q-39 499 -44 484 Q-47 475 -50 464 Q-53 453 -57 442 Q-59 444 -67.5 448.5 Q-76 453 -76 458 Q-76 461 -74 471 Q-72 481 -69 493 Q-66 505 -64 515 Q-62 525 -62 528 Q-62 533 -66.5 536 Q-71 539 -77 539 Q-84 539 -95 538 Q-106 537 -113 537 Q-123 537 -137.5 538 Q-152 539 -161 548 Q-160 552 -163.5 556 Q-167 560 -167 565 Q-167 573 -156 577 Q-145 581 -140 581 Q-133 581 -124.5 578 Q-116 575 -109 575 Q-105 575 -96.5 576.5 Q-88 578 -79 580 Q-70 582 -63 583.5 Q-56 585 -56 585 Q-52 595 -50 606 Q-48 617 -46 628 Q-44 635 -37 640 L-23 640 Q-18 640 -17.5 635 Q-17 630 -17 626 Q-17 619 -21 610.5 Q-25 602 -25 597 Q-25 589 -16 588.5 Q-7 588 -5 588 Q3 588 8 589.5 Q13 591 19 591 Q30 591 34.5 585 Q39 579 39 574 Z "/>
<glyph glyph-name="&amp;#xf70d;" unicode="" d="M39 574 Q39 569 29 565.5 Q19 562 6.5 559 Q-6 556 -17.5 553 Q-29 550 -31 545 Q-39 530 -39 514.5 Q-39 499 -44 484 Q-47 475 -50 464 Q-53 453 -57 442 Q-59 444 -67.5 448.5 Q-76 453 -76 458 Q-76 461 -74 471 Q-72 481 -69 493 Q-66 505 -64 515 Q-62 525 -62 528 Q-62 533 -66.5 536 Q-71 539 -77 539 Q-84 539 -95 538 Q-106 537 -113 537 Q-123 537 -137.5 538 Q-152 539 -161 548 Q-160 552 -163.5 556 Q-167 560 -167 565 Q-167 573 -156 577 Q-145 581 -140 581 Q-133 581 -124.5 578 Q-116 575 -109 575 Q-105 575 -96.5 576.5 Q-88 578 -79 580 Q-70 582 -63 583.5 Q-56 585 -56 585 Q-52 595 -50 606 Q-48 617 -46 628 Q-44 635 -37 640 L-23 640 Q-18 640 -17.5 635 Q-17 630 -17 626 Q-17 619 -21 610.5 Q-25 602 -25 597 Q-25 589 -16 588.5 Q-7 588 -5 588 Q3 588 8 589.5 Q13 591 19 591 Q30 591 34.5 585 Q39 579 39 574 Z "/>
<glyph glyph-name="&amp;#x8f;" unicode="" d="M172 648 Q172 644 157 637.5 Q142 631 122 623 Q102 615 80.5 607 Q59 599 46 592 Q21 579 -14 560 Q-49 541 -88 518 Q-88 516 -88.5 515.5 Q-89 515 -85 513 Q-73 514 -65.5 510 Q-58 506 -53.5 499.5 Q-49 493 -47.5 487 Q-46 481 -46 478 Q-46 474 -47.5 468 Q-49 462 -53.5 456.5 Q-58 451 -66 447 Q-74 443 -88 443 Q-107 443 -119.5 449.5 Q-132 456 -139.5 464 Q-147 472 -150 480.5 Q-153 489 -153 492 Q-153 507 -144 520 Q-135 533 -124 544 Q-120 548 -108.5 554 Q-97 560 -83.5 566 Q-70 572 -58 577.5 Q-46 583 -41 585 Q-18 595 4.5 606.5 Q27 618 48 625 Q58 628 71.5 633 Q85 638 98.5 642.5 Q112 647 122.5 650.5 Q133 654 138 654 L167 654 Q168 654 169 653 Q172 650 172 648 Z M-93 486 Q-97 486 -102 487.5 Q-107 489 -111 489 Q-107 485 -102 480.5 Q-97 476 -93 477 L-93 486 Z "/>
<glyph glyph-name="&amp;#xf70e;" unicode="" d="M172 648 Q172 644 157 637.5 Q142 631 122 623 Q102 615 80.5 607 Q59 599 46 592 Q21 579 -14 560 Q-49 541 -88 518 Q-88 516 -88.5 515.5 Q-89 515 -85 513 Q-73 514 -65.5 510 Q-58 506 -53.5 499.5 Q-49 493 -47.5 487 Q-46 481 -46 478 Q-46 474 -47.5 468 Q-49 462 -53.5 456.5 Q-58 451 -66 447 Q-74 443 -88 443 Q-107 443 -119.5 449.5 Q-132 456 -139.5 464 Q-147 472 -150 480.5 Q-153 489 -153 492 Q-153 507 -144 520 Q-135 533 -124 544 Q-120 548 -108.5 554 Q-97 560 -83.5 566 Q-70 572 -58 577.5 Q-46 583 -41 585 Q-18 595 4.5 606.5 Q27 618 48 625 Q58 628 71.5 633 Q85 638 98.5 642.5 Q112 647 122.5 650.5 Q133 654 138 654 L167 654 Q168 654 169 653 Q172 650 172 648 Z M-93 486 Q-97 486 -102 487.5 Q-107 489 -111 489 Q-107 485 -102 480.5 Q-97 476 -93 477 L-93 486 Z "/>
<glyph glyph-name="&amp;#x90;" unicode="" horiz-adv-x="517" d="M492 345 Q492 337 480.5 309.5 Q469 282 451.5 245.5 Q434 209 412.5 169 Q391 129 370.5 95 Q350 61 332.5 39 Q315 17 306 17 Q303 17 294.5 26 Q286 35 277 46.5 Q268 58 260.5 69.5 Q253 81 253 86 Q253 92 261.5 120 Q270 148 280.5 181 Q291 214 300 242 Q309 270 309 276 Q309 297 304 308 Q299 319 291 324.5 Q283 330 273 331 Q263 332 253 332 Q247 332 235.5 329.5 Q224 327 210 323 Q196 319 181.5 314 Q167 309 156 305 Q147 302 142 292 Q137 282 134 270 Q131 258 129.5 247 Q128 236 126 231 Q133 223 140.5 219.5 Q148 216 155 211.5 Q162 207 166.5 198.5 Q171 190 171 172 Q171 168 164.5 154 Q158 140 148.5 121 Q139 102 127 81.5 Q115 61 104 44 Q93 27 83.5 15.5 Q74 4 70 4 Q65 4 58.5 10 Q52 16 46 24.5 Q40 33 36 42.5 Q32 52 32 58 Q32 63 36 78 Q40 93 46 112.5 Q52 132 58 153 Q64 174 68 191 Q72 207 73 235 Q74 263 80 286 Q88 311 98 338.5 Q108 366 122 393 Q138 391 158.5 391.5 Q179 392 198 392.5 Q217 393 232 394 Q247 395 253 395 Q290 395 310.5 383 Q331 371 341.5 349.5 Q352 328 357 299.5 Q362 271 370 238 Q391 271 410.5 311.5 Q430 352 449 395 L485 395 Q485 385 488.5 372 Q492 359 492 345 Z "/>
<glyph glyph-name="&amp;#xf70f;" unicode="" horiz-adv-x="517" d="M492 345 Q492 337 480.5 309.5 Q469 282 451.5 245.5 Q434 209 412.5 169 Q391 129 370.5 95 Q350 61 332.5 39 Q315 17 306 17 Q303 17 294.5 26 Q286 35 277 46.5 Q268 58 260.5 69.5 Q253 81 253 86 Q253 92 261.5 120 Q270 148 280.5 181 Q291 214 300 242 Q309 270 309 276 Q309 297 304 308 Q299 319 291 324.5 Q283 330 273 331 Q263 332 253 332 Q247 332 235.5 329.5 Q224 327 210 323 Q196 319 181.5 314 Q167 309 156 305 Q147 302 142 292 Q137 282 134 270 Q131 258 129.5 247 Q128 236 126 231 Q133 223 140.5 219.5 Q148 216 155 211.5 Q162 207 166.5 198.5 Q171 190 171 172 Q171 168 164.5 154 Q158 140 148.5 121 Q139 102 127 81.5 Q115 61 104 44 Q93 27 83.5 15.5 Q74 4 70 4 Q65 4 58.5 10 Q52 16 46 24.5 Q40 33 36 42.5 Q32 52 32 58 Q32 63 36 78 Q40 93 46 112.5 Q52 132 58 153 Q64 174 68 191 Q72 207 73 235 Q74 263 80 286 Q88 311 98 338.5 Q108 366 122 393 Q138 391 158.5 391.5 Q179 392 198 392.5 Q217 393 232 394 Q247 395 253 395 Q290 395 310.5 383 Q331 371 341.5 349.5 Q352 328 357 299.5 Q362 271 370 238 Q391 271 410.5 311.5 Q430 352 449 395 L485 395 Q485 385 488.5 372 Q492 359 492 345 Z "/>
<glyph glyph-name="&amp;#x91;" unicode="" horiz-adv-x="237" d="M172 452 Q165 446 157 436.5 Q149 427 141.5 418 Q134 409 129 401.5 Q124 394 124 391 Q124 388 127.5 384 Q131 380 135.5 375.5 Q140 371 144 367 Q148 363 148 360 Q148 354 144.5 348 Q141 342 137 338 Q130 330 117.5 325 Q105 320 100 320 Q91 320 86.5 324 Q82 328 79.5 334 Q77 340 76.5 346.5 Q76 353 76 358 Q76 364 76.5 368 Q77 372 77 377 Q77 381 87 396.5 Q97 412 110.5 429 Q124 446 137.5 459 Q151 472 157 472 Q162 472 166 467.5 Q170 463 172 461 L172 452 L172 452 Z "/>
<glyph glyph-name="&amp;#x2018;" unicode="" horiz-adv-x="237" d="M172 452 Q165 446 157 436.5 Q149 427 141.5 418 Q134 409 129 401.5 Q124 394 124 391 Q124 388 127.5 384 Q131 380 135.5 375.5 Q140 371 144 367 Q148 363 148 360 Q148 354 144.5 348 Q141 342 137 338 Q130 330 117.5 325 Q105 320 100 320 Q91 320 86.5 324 Q82 328 79.5 334 Q77 340 76.5 346.5 Q76 353 76 358 Q76 364 76.5 368 Q77 372 77 377 Q77 381 87 396.5 Q97 412 110.5 429 Q124 446 137.5 459 Q151 472 157 472 Q162 472 166 467.5 Q170 463 172 461 L172 452 L172 452 Z "/>
<glyph glyph-name="&amp;#x92;" unicode="" horiz-adv-x="237" d="M161 435 Q161 429 160 425 Q159 421 159 415 Q159 410 149.5 393.5 Q140 377 127.5 359.5 Q115 342 102 328 Q89 314 82 314 Q77 314 76 316 Q75 318 71 318 Q71 321 69 326.5 Q67 332 67 335 Q73 341 81 350.5 Q89 360 96.5 370 Q104 380 109 388.5 Q114 397 114 400 Q114 403 110.5 407.5 Q107 412 102.5 416.5 Q98 421 94.5 425.5 Q91 430 91 433 Q91 440 94 446 Q97 452 101 457 Q108 465 120.5 470.5 Q133 476 138 476 Q146 476 150.5 471.5 Q155 467 157.5 460.5 Q160 454 160.5 447 Q161 440 161 435 Z "/>
<glyph glyph-name="&amp;#x2019;" unicode="" horiz-adv-x="237" d="M161 435 Q161 429 160 425 Q159 421 159 415 Q159 410 149.5 393.5 Q140 377 127.5 359.5 Q115 342 102 328 Q89 314 82 314 Q77 314 76 316 Q75 318 71 318 Q71 321 69 326.5 Q67 332 67 335 Q73 341 81 350.5 Q89 360 96.5 370 Q104 380 109 388.5 Q114 397 114 400 Q114 403 110.5 407.5 Q107 412 102.5 416.5 Q98 421 94.5 425.5 Q91 430 91 433 Q91 440 94 446 Q97 452 101 457 Q108 465 120.5 470.5 Q133 476 138 476 Q146 476 150.5 471.5 Q155 467 157.5 460.5 Q160 454 160.5 447 Q161 440 161 435 Z "/>
<glyph glyph-name="&amp;#x93;" unicode="" horiz-adv-x="168" d="M239 450 Q239 447 229.5 438 Q220 429 207 417.5 Q194 406 182 393 Q170 380 164 370 Q159 362 164 349.5 Q169 337 173 327 Q169 325 167 322 Q165 319 155 319 Q149 319 134 325.5 Q119 332 102.5 341 Q86 350 72.5 360 Q59 370 57 377 Q57 379 55.5 382.5 Q54 386 54 392 Q54 398 56.5 401.5 Q59 405 57 407 Q61 413 62 421.5 Q63 430 64.5 439 Q66 448 69.5 457 Q73 466 82 472 L102 472 Q118 466 120 456.5 Q122 447 119.5 436.5 Q117 426 115 417 Q113 408 122 402 Q128 406 134.5 415 Q141 424 150 433.5 Q159 443 170 451.5 Q181 460 196 464 Q200 465 220 465 Q228 465 233.5 460 Q239 455 239 450 Z "/>
<glyph glyph-name="&amp;#x201c;" unicode="" horiz-adv-x="168" d="M239 450 Q239 447 229.5 438 Q220 429 207 417.5 Q194 406 182 393 Q170 380 164 370 Q159 362 164 349.5 Q169 337 173 327 Q169 325 167 322 Q165 319 155 319 Q149 319 134 325.5 Q119 332 102.5 341 Q86 350 72.5 360 Q59 370 57 377 Q57 379 55.5 382.5 Q54 386 54 392 Q54 398 56.5 401.5 Q59 405 57 407 Q61 413 62 421.5 Q63 430 64.5 439 Q66 448 69.5 457 Q73 466 82 472 L102 472 Q118 466 120 456.5 Q122 447 119.5 436.5 Q117 426 115 417 Q113 408 122 402 Q128 406 134.5 415 Q141 424 150 433.5 Q159 443 170 451.5 Q181 460 196 464 Q200 465 220 465 Q228 465 233.5 460 Q239 455 239 450 Z "/>
<glyph glyph-name="&amp;#x94;" unicode="" horiz-adv-x="254" d="M226 436 Q226 432 219.5 421.5 Q213 411 204 396.5 Q195 382 184.5 365 Q174 348 165 330 Q163 328 157.5 322.5 Q152 317 143 317 Q133 317 128 322 Q123 327 123 335 Q123 336 130 352.5 Q137 369 147 390 Q157 411 168.5 430 Q180 449 188 457 L220 457 Q220 454 223 449 Q226 444 226 436 Z M138 456 Q138 450 129 428.5 Q120 407 108 383 Q96 359 83.5 340 Q71 321 64 321 Q56 321 48 328.5 Q40 336 40 341 Q40 345 47.5 359.5 Q55 374 65 393.5 Q75 413 86 433.5 Q97 454 105 469 L132 469 Q132 466 135 465 Q138 464 138 456 Z "/>
<glyph glyph-name="&amp;#x201d;" unicode="" horiz-adv-x="254" d="M226 436 Q226 432 219.5 421.5 Q213 411 204 396.5 Q195 382 184.5 365 Q174 348 165 330 Q163 328 157.5 322.5 Q152 317 143 317 Q133 317 128 322 Q123 327 123 335 Q123 336 130 352.5 Q137 369 147 390 Q157 411 168.5 430 Q180 449 188 457 L220 457 Q220 454 223 449 Q226 444 226 436 Z M138 456 Q138 450 129 428.5 Q120 407 108 383 Q96 359 83.5 340 Q71 321 64 321 Q56 321 48 328.5 Q40 336 40 341 Q40 345 47.5 359.5 Q55 374 65 393.5 Q75 413 86 433.5 Q97 454 105 469 L132 469 Q132 466 135 465 Q138 464 138 456 Z "/>
<glyph glyph-name="&amp;#x95;" unicode="" horiz-adv-x="358" d="M291 207 Q291 195 279.5 172.5 Q268 150 250.5 127 Q233 104 211.5 87 Q190 70 170 70 Q156 70 138 79 Q120 88 103.5 101.5 Q87 115 75.5 132 Q64 149 64 166 Q64 184 70 197.5 Q76 211 87.5 223.5 Q99 236 115.5 249.5 Q132 263 153 281 Q161 288 175.5 290 Q190 292 205 292 Q247 292 269 266.5 Q291 241 291 207 Z "/>
<glyph glyph-name="&amp;#x2022;" unicode="" horiz-adv-x="358" d="M291 207 Q291 195 279.5 172.5 Q268 150 250.5 127 Q233 104 211.5 87 Q190 70 170 70 Q156 70 138 79 Q120 88 103.5 101.5 Q87 115 75.5 132 Q64 149 64 166 Q64 184 70 197.5 Q76 211 87.5 223.5 Q99 236 115.5 249.5 Q132 263 153 281 Q161 288 175.5 290 Q190 292 205 292 Q247 292 269 266.5 Q291 241 291 207 Z "/>
<glyph glyph-name="&amp;#x96;" unicode="" horiz-adv-x="456" d="M404 219 Q404 216 401 210.5 Q398 205 392.5 199.5 Q387 194 380.5 190 Q374 186 367 186 Q357 186 336.5 189 Q316 192 302 192 Q295 192 268.5 190.5 Q242 189 212 187.5 Q182 186 155.5 184.5 Q129 183 122 183 Q113 183 103.5 185 Q94 187 86 190 Q78 193 73 197 Q68 201 68 204 Q68 215 82.5 220 Q97 225 114 227 Q144 229 183.5 230.5 Q223 232 260 233.5 Q297 235 325 236 Q353 237 360 237 Q379 237 391.5 230.5 Q404 224 404 219 Z "/>
<glyph glyph-name="&amp;#x2013;" unicode="" horiz-adv-x="456" d="M404 219 Q404 216 401 210.5 Q398 205 392.5 199.5 Q387 194 380.5 190 Q374 186 367 186 Q357 186 336.5 189 Q316 192 302 192 Q295 192 268.5 190.5 Q242 189 212 187.5 Q182 186 155.5 184.5 Q129 183 122 183 Q113 183 103.5 185 Q94 187 86 190 Q78 193 73 197 Q68 201 68 204 Q68 215 82.5 220 Q97 225 114 227 Q144 229 183.5 230.5 Q223 232 260 233.5 Q297 235 325 236 Q353 237 360 237 Q379 237 391.5 230.5 Q404 224 404 219 Z "/>
<glyph glyph-name="&amp;#x97;" unicode="" horiz-adv-x="560" d="M490 225 Q485 216 479.5 206.5 Q474 197 469 188 Q460 188 446.5 190.5 Q433 193 420 193 Q416 193 394 191 Q372 189 341 185.5 Q310 182 274.5 178.5 Q239 175 208 171.5 Q177 168 155 166 Q133 164 129 164 L88 164 Q78 171 69 179.5 Q60 188 60 193 Q60 203 74.5 205.5 Q89 208 99 208 Q112 208 118.5 206.5 Q125 205 136 205 Q140 205 162.5 207 Q185 209 216.5 212.5 Q248 216 284.5 220 Q321 224 353 227.5 Q385 231 407.5 233 Q430 235 434 235 Q446 235 460.5 232.5 Q475 230 490 225 Z "/>
<glyph glyph-name="&amp;#x2014;" unicode="" horiz-adv-x="560" d="M490 225 Q485 216 479.5 206.5 Q474 197 469 188 Q460 188 446.5 190.5 Q433 193 420 193 Q416 193 394 191 Q372 189 341 185.5 Q310 182 274.5 178.5 Q239 175 208 171.5 Q177 168 155 166 Q133 164 129 164 L88 164 Q78 171 69 179.5 Q60 188 60 193 Q60 203 74.5 205.5 Q89 208 99 208 Q112 208 118.5 206.5 Q125 205 136 205 Q140 205 162.5 207 Q185 209 216.5 212.5 Q248 216 284.5 220 Q321 224 353 227.5 Q385 231 407.5 233 Q430 235 434 235 Q446 235 460.5 232.5 Q475 230 490 225 Z "/>
<glyph glyph-name="&amp;#x98;" unicode="" d="M120 604 Q120 599 115 590.5 Q110 582 108 578 Q93 567 65.5 555 Q38 543 10.5 532.5 Q-17 522 -38.5 515 Q-60 508 -64 508 L-112 508 Q-128 508 -146 513 Q-164 518 -179 528.5 Q-194 539 -204 556 Q-214 573 -214 597 Q-214 603 -213.5 611.5 Q-213 620 -209.5 628.5 Q-206 637 -198.5 643 Q-191 649 -178 649 Q-157 649 -145.5 637.5 Q-134 626 -127 612.5 Q-120 599 -113.5 587.5 Q-107 576 -95 576 Q-87 576 -79 579 Q-71 582 -62 582 Q-54 582 -37.5 587.5 Q-21 593 -9 596 Q6 599 26 598.5 Q46 598 63 608 Q71 612 77.5 621.5 Q84 631 93 631 Q102 631 109 622 Q116 613 120 604 Z "/>
<glyph glyph-name="&amp;#x2dc;" unicode="" d="M120 604 Q120 599 115 590.5 Q110 582 108 578 Q93 567 65.5 555 Q38 543 10.5 532.5 Q-17 522 -38.5 515 Q-60 508 -64 508 L-112 508 Q-128 508 -146 513 Q-164 518 -179 528.5 Q-194 539 -204 556 Q-214 573 -214 597 Q-214 603 -213.5 611.5 Q-213 620 -209.5 628.5 Q-206 637 -198.5 643 Q-191 649 -178 649 Q-157 649 -145.5 637.5 Q-134 626 -127 612.5 Q-120 599 -113.5 587.5 Q-107 576 -95 576 Q-87 576 -79 579 Q-71 582 -62 582 Q-54 582 -37.5 587.5 Q-21 593 -9 596 Q6 599 26 598.5 Q46 598 63 608 Q71 612 77.5 621.5 Q84 631 93 631 Q102 631 109 622 Q116 613 120 604 Z "/>
<glyph glyph-name="&amp;#xf710;" unicode="" d="M120 604 Q120 599 115 590.5 Q110 582 108 578 Q93 567 65.5 555 Q38 543 10.5 532.5 Q-17 522 -38.5 515 Q-60 508 -64 508 L-112 508 Q-128 508 -146 513 Q-164 518 -179 528.5 Q-194 539 -204 556 Q-214 573 -214 597 Q-214 603 -213.5 611.5 Q-213 620 -209.5 628.5 Q-206 637 -198.5 643 Q-191 649 -178 649 Q-157 649 -145.5 637.5 Q-134 626 -127 612.5 Q-120 599 -113.5 587.5 Q-107 576 -95 576 Q-87 576 -79 579 Q-71 582 -62 582 Q-54 582 -37.5 587.5 Q-21 593 -9 596 Q6 599 26 598.5 Q46 598 63 608 Q71 612 77.5 621.5 Q84 631 93 631 Q102 631 109 622 Q116 613 120 604 Z "/>
<glyph glyph-name="&amp;#x99;" unicode="" d="M-56 577 Q-56 567 -64 550 Q-72 533 -84.5 516.5 Q-97 500 -112 488 Q-127 476 -141 476 Q-150 476 -162.5 482.5 Q-175 489 -186.5 499.5 Q-198 510 -206 522.5 Q-214 535 -214 547 Q-214 567 -197.5 586 Q-181 605 -152 631 Q-146 636 -136.5 638 Q-127 640 -116 640 Q-91 640 -73.5 622 Q-56 604 -56 577 Z M-119 590 Q-132 582 -143 569 Q-154 556 -154 547 Q-154 536 -152.5 535.5 Q-151 535 -146 530 Q-129 543 -116.5 560 Q-104 577 -100 590 L-119 590 Z "/>
<glyph glyph-name="&amp;#x2122;" unicode="" d="M-56 577 Q-56 567 -64 550 Q-72 533 -84.5 516.5 Q-97 500 -112 488 Q-127 476 -141 476 Q-150 476 -162.5 482.5 Q-175 489 -186.5 499.5 Q-198 510 -206 522.5 Q-214 535 -214 547 Q-214 567 -197.5 586 Q-181 605 -152 631 Q-146 636 -136.5 638 Q-127 640 -116 640 Q-91 640 -73.5 622 Q-56 604 -56 577 Z M-119 590 Q-132 582 -143 569 Q-154 556 -154 547 Q-154 536 -152.5 535.5 Q-151 535 -146 530 Q-129 543 -116.5 560 Q-104 577 -100 590 L-119 590 Z "/>
<glyph glyph-name="&amp;#xf711;" unicode="" d="M-56 577 Q-56 567 -64 550 Q-72 533 -84.5 516.5 Q-97 500 -112 488 Q-127 476 -141 476 Q-150 476 -162.5 482.5 Q-175 489 -186.5 499.5 Q-198 510 -206 522.5 Q-214 535 -214 547 Q-214 567 -197.5 586 Q-181 605 -152 631 Q-146 636 -136.5 638 Q-127 640 -116 640 Q-91 640 -73.5 622 Q-56 604 -56 577 Z M-119 590 Q-132 582 -143 569 Q-154 556 -154 547 Q-154 536 -152.5 535.5 Q-151 535 -146 530 Q-129 543 -116.5 560 Q-104 577 -100 590 L-119 590 Z "/>
<glyph glyph-name="&amp;#x9a;" unicode="" d="M93 695 Q93 692 92.5 688.5 Q92 685 88 683 Q76 680 60.5 677.5 Q45 675 34 671 Q23 668 12 660.5 Q1 653 -13 650 Q-24 647 -39.5 641 Q-55 635 -69 628 Q-83 621 -93.5 614.5 Q-104 608 -104 604 Q-104 599 -94.5 593.5 Q-85 588 -80 581 Q-74 572 -72 557 Q-70 542 -70 535 Q-70 512 -81.5 486.5 Q-93 461 -104 436 L-124 436 Q-142 449 -145.5 466.5 Q-149 484 -151 496 Q-150 496 -149 497 Q-149 499 -154 499 Q-162 499 -171 490.5 Q-180 482 -188 482 Q-199 482 -206.5 487.5 Q-214 493 -218.5 499.5 Q-223 506 -224.5 512 Q-226 518 -226 520 Q-226 542 -206 574 Q-186 606 -157 632 Q-151 637 -136 639.5 Q-121 642 -112 649 Q-66 683 -23 692.5 Q20 702 60 702 Q68 702 77.5 699.5 Q87 697 93 695 Z M-108 544 Q-111 548 -117.5 551.5 Q-124 555 -129.5 559 Q-135 563 -137.5 567.5 Q-140 572 -134 578 Q-144 573 -154 567 Q-164 561 -167 556 Q-154 554 -138.5 547.5 Q-123 541 -113 536 Q-113 537 -111 541 Q-110 543 -108 544 Z "/>
<glyph glyph-name="&amp;#x161;" unicode="" d="M93 695 Q93 692 92.5 688.5 Q92 685 88 683 Q76 680 60.5 677.5 Q45 675 34 671 Q23 668 12 660.5 Q1 653 -13 650 Q-24 647 -39.5 641 Q-55 635 -69 628 Q-83 621 -93.5 614.5 Q-104 608 -104 604 Q-104 599 -94.5 593.5 Q-85 588 -80 581 Q-74 572 -72 557 Q-70 542 -70 535 Q-70 512 -81.5 486.5 Q-93 461 -104 436 L-124 436 Q-142 449 -145.5 466.5 Q-149 484 -151 496 Q-150 496 -149 497 Q-149 499 -154 499 Q-162 499 -171 490.5 Q-180 482 -188 482 Q-199 482 -206.5 487.5 Q-214 493 -218.5 499.5 Q-223 506 -224.5 512 Q-226 518 -226 520 Q-226 542 -206 574 Q-186 606 -157 632 Q-151 637 -136 639.5 Q-121 642 -112 649 Q-66 683 -23 692.5 Q20 702 60 702 Q68 702 77.5 699.5 Q87 697 93 695 Z M-108 544 Q-111 548 -117.5 551.5 Q-124 555 -129.5 559 Q-135 563 -137.5 567.5 Q-140 572 -134 578 Q-144 573 -154 567 Q-164 561 -167 556 Q-154 554 -138.5 547.5 Q-123 541 -113 536 Q-113 537 -111 541 Q-110 543 -108 544 Z "/>
<glyph glyph-name="&amp;#xf712;" unicode="" d="M93 695 Q93 692 92.5 688.5 Q92 685 88 683 Q76 680 60.5 677.5 Q45 675 34 671 Q23 668 12 660.5 Q1 653 -13 650 Q-24 647 -39.5 641 Q-55 635 -69 628 Q-83 621 -93.5 614.5 Q-104 608 -104 604 Q-104 599 -94.5 593.5 Q-85 588 -80 581 Q-74 572 -72 557 Q-70 542 -70 535 Q-70 512 -81.5 486.5 Q-93 461 -104 436 L-124 436 Q-142 449 -145.5 466.5 Q-149 484 -151 496 Q-150 496 -149 497 Q-149 499 -154 499 Q-162 499 -171 490.5 Q-180 482 -188 482 Q-199 482 -206.5 487.5 Q-214 493 -218.5 499.5 Q-223 506 -224.5 512 Q-226 518 -226 520 Q-226 542 -206 574 Q-186 606 -157 632 Q-151 637 -136 639.5 Q-121 642 -112 649 Q-66 683 -23 692.5 Q20 702 60 702 Q68 702 77.5 699.5 Q87 697 93 695 Z M-108 544 Q-111 548 -117.5 551.5 Q-124 555 -129.5 559 Q-135 563 -137.5 567.5 Q-140 572 -134 578 Q-144 573 -154 567 Q-164 561 -167 556 Q-154 554 -138.5 547.5 Q-123 541 -113 536 Q-113 537 -111 541 Q-110 543 -108 544 Z "/>
<glyph glyph-name="&amp;#x9b;" unicode="" horiz-adv-x="10" d="M57 797 Q57 795 50 785.5 Q43 776 34 763 Q25 750 16 735.5 Q7 721 3 711 Q1 704 2 694.5 Q3 685 8 677 Q8 676 9 675 Q10 674 10.5 672.5 Q11 671 13 670 Q10 668 7.5 664.5 Q5 661 -1 661 Q-7 661 -13 665.5 Q-19 670 -23.5 675.5 Q-28 681 -31 686 Q-34 691 -34 692 Q-34 694 -32 702.5 Q-30 711 -27 721.5 Q-24 732 -20 743 Q-16 754 -13 761 Q-13 762 -8 770.5 Q-3 779 4 789 Q11 799 19.5 807.5 Q28 816 35 816 Q49 816 53 807.5 Q57 799 57 797 Z "/>
<glyph glyph-name="&amp;#x203a;" unicode="" horiz-adv-x="10" d="M57 797 Q57 795 50 785.5 Q43 776 34 763 Q25 750 16 735.5 Q7 721 3 711 Q1 704 2 694.5 Q3 685 8 677 Q8 676 9 675 Q10 674 10.5 672.5 Q11 671 13 670 Q10 668 7.5 664.5 Q5 661 -1 661 Q-7 661 -13 665.5 Q-19 670 -23.5 675.5 Q-28 681 -31 686 Q-34 691 -34 692 Q-34 694 -32 702.5 Q-30 711 -27 721.5 Q-24 732 -20 743 Q-16 754 -13 761 Q-13 762 -8 770.5 Q-3 779 4 789 Q11 799 19.5 807.5 Q28 816 35 816 Q49 816 53 807.5 Q57 799 57 797 Z "/>
<glyph glyph-name="&amp;#xf713;" unicode="" horiz-adv-x="10" d="M57 797 Q57 795 50 785.5 Q43 776 34 763 Q25 750 16 735.5 Q7 721 3 711 Q1 704 2 694.5 Q3 685 8 677 Q8 676 9 675 Q10 674 10.5 672.5 Q11 671 13 670 Q10 668 7.5 664.5 Q5 661 -1 661 Q-7 661 -13 665.5 Q-19 670 -23.5 675.5 Q-28 681 -31 686 Q-34 691 -34 692 Q-34 694 -32 702.5 Q-30 711 -27 721.5 Q-24 732 -20 743 Q-16 754 -13 761 Q-13 762 -8 770.5 Q-3 779 4 789 Q11 799 19.5 807.5 Q28 816 35 816 Q49 816 53 807.5 Q57 799 57 797 Z "/>
<glyph glyph-name="&amp;#x9c;" unicode="" d="M29 823 Q29 814 15 806 Q1 798 -16 788 Q-34 779 -60.5 759 Q-87 739 -116 719.5 Q-145 700 -172 685 Q-199 670 -218 670 Q-227 670 -234 675 Q-241 680 -246 687 Q-252 694 -256 704 Q-256 708 -247 718 Q-238 728 -227.5 740 Q-217 752 -208 762 Q-199 772 -199 776 L-199 807 Q-199 813 -212.5 811 Q-226 809 -235 810 Q-245 815 -257 824 Q-269 833 -269 840 Q-269 847 -260.5 854 Q-252 861 -241 865.5 Q-230 870 -219 873 Q-208 876 -202 876 Q-192 876 -180.5 872.5 Q-169 869 -159 863 Q-149 857 -142 848.5 Q-135 840 -134 831 Q-133 824 -134.5 811.5 Q-136 799 -138 787 Q-139 786 -138 785 Q-136 783 -132 781 Q-118 788 -97.5 799 Q-77 810 -57.5 820 Q-38 830 -22 837 Q-6 844 0 844 Q12 844 14 842 Q16 840 21 840 Q26 837 27.5 834 Q29 831 29 823 Z "/>
<glyph glyph-name="&amp;#x153;" unicode="" d="M29 823 Q29 814 15 806 Q1 798 -16 788 Q-34 779 -60.5 759 Q-87 739 -116 719.5 Q-145 700 -172 685 Q-199 670 -218 670 Q-227 670 -234 675 Q-241 680 -246 687 Q-252 694 -256 704 Q-256 708 -247 718 Q-238 728 -227.5 740 Q-217 752 -208 762 Q-199 772 -199 776 L-199 807 Q-199 813 -212.5 811 Q-226 809 -235 810 Q-245 815 -257 824 Q-269 833 -269 840 Q-269 847 -260.5 854 Q-252 861 -241 865.5 Q-230 870 -219 873 Q-208 876 -202 876 Q-192 876 -180.5 872.5 Q-169 869 -159 863 Q-149 857 -142 848.5 Q-135 840 -134 831 Q-133 824 -134.5 811.5 Q-136 799 -138 787 Q-139 786 -138 785 Q-136 783 -132 781 Q-118 788 -97.5 799 Q-77 810 -57.5 820 Q-38 830 -22 837 Q-6 844 0 844 Q12 844 14 842 Q16 840 21 840 Q26 837 27.5 834 Q29 831 29 823 Z "/>
<glyph glyph-name="&amp;#xf714;" unicode="" d="M29 823 Q29 814 15 806 Q1 798 -16 788 Q-34 779 -60.5 759 Q-87 739 -116 719.5 Q-145 700 -172 685 Q-199 670 -218 670 Q-227 670 -234 675 Q-241 680 -246 687 Q-252 694 -256 704 Q-256 708 -247 718 Q-238 728 -227.5 740 Q-217 752 -208 762 Q-199 772 -199 776 L-199 807 Q-199 813 -212.5 811 Q-226 809 -235 810 Q-245 815 -257 824 Q-269 833 -269 840 Q-269 847 -260.5 854 Q-252 861 -241 865.5 Q-230 870 -219 873 Q-208 876 -202 876 Q-192 876 -180.5 872.5 Q-169 869 -159 863 Q-149 857 -142 848.5 Q-135 840 -134 831 Q-133 824 -134.5 811.5 Q-136 799 -138 787 Q-139 786 -138 785 Q-136 783 -132 781 Q-118 788 -97.5 799 Q-77 810 -57.5 820 Q-38 830 -22 837 Q-6 844 0 844 Q12 844 14 842 Q16 840 21 840 Q26 837 27.5 834 Q29 831 29 823 Z "/>
<glyph glyph-name="&amp;#x9d;" unicode="" d="M160 851 Q160 844 155.5 837.5 Q151 831 145 825 Q139 819 133 813.5 Q127 808 125 805 Q113 787 100 772 Q87 757 74.5 746 Q62 735 50 728.5 Q38 722 29 722 Q23 722 17.5 731.5 Q12 741 5 749 Q-9 737 -12.5 729.5 Q-16 722 -26 722 Q-36 722 -41 727.5 Q-46 733 -48.5 740.5 Q-51 748 -51 755.5 Q-51 763 -51 766 Q-51 769 -52.5 770.5 Q-54 772 -57 775 Q-62 773 -64 767.5 Q-66 762 -70 759 Q-65 736 -67 720.5 Q-69 705 -68 684 Q-70 684 -72 682 Q-74 680 -80 680 Q-88 680 -93.5 685 Q-99 690 -102.5 697 Q-106 704 -107.5 710.5 Q-109 717 -109 719 Q-109 726 -105.5 745 Q-102 764 -94.5 783.5 Q-87 803 -77 818 Q-67 833 -53 833 Q-36 833 -31 819.5 Q-26 806 -17 791 Q-11 795 -4 802 Q3 809 9.5 816 Q16 823 21.5 828 Q27 833 30 833 Q40 833 44 827 Q48 821 49.5 813.5 Q51 806 51 799.5 Q51 793 51 792 Q51 790 49.5 789 Q48 788 54 788 Q57 788 67.5 796 Q78 804 91.5 816 Q105 828 119.5 841.5 Q134 855 145 866 L156 866 Q160 862 160 851 Z "/>
<glyph glyph-name="&amp;#xf715;" unicode="" d="M160 851 Q160 844 155.5 837.5 Q151 831 145 825 Q139 819 133 813.5 Q127 808 125 805 Q113 787 100 772 Q87 757 74.5 746 Q62 735 50 728.5 Q38 722 29 722 Q23 722 17.5 731.5 Q12 741 5 749 Q-9 737 -12.5 729.5 Q-16 722 -26 722 Q-36 722 -41 727.5 Q-46 733 -48.5 740.5 Q-51 748 -51 755.5 Q-51 763 -51 766 Q-51 769 -52.5 770.5 Q-54 772 -57 775 Q-62 773 -64 767.5 Q-66 762 -70 759 Q-65 736 -67 720.5 Q-69 705 -68 684 Q-70 684 -72 682 Q-74 680 -80 680 Q-88 680 -93.5 685 Q-99 690 -102.5 697 Q-106 704 -107.5 710.5 Q-109 717 -109 719 Q-109 726 -105.5 745 Q-102 764 -94.5 783.5 Q-87 803 -77 818 Q-67 833 -53 833 Q-36 833 -31 819.5 Q-26 806 -17 791 Q-11 795 -4 802 Q3 809 9.5 816 Q16 823 21.5 828 Q27 833 30 833 Q40 833 44 827 Q48 821 49.5 813.5 Q51 806 51 799.5 Q51 793 51 792 Q51 790 49.5 789 Q48 788 54 788 Q57 788 67.5 796 Q78 804 91.5 816 Q105 828 119.5 841.5 Q134 855 145 866 L156 866 Q160 862 160 851 Z "/>
<glyph glyph-name="&amp;#x9e;" unicode="" d="M-91 770 Q-105 765 -119.5 761.5 Q-134 758 -145 754 Q-159 749 -166 736.5 Q-173 724 -178 713 Q-181 708 -185 703.5 Q-189 699 -192 694.5 Q-195 690 -196 685 Q-197 680 -193 675 Q-196 675 -199 673.5 Q-202 672 -210 672 Q-219 672 -222.5 675 Q-226 678 -227.5 681.5 Q-229 685 -228.5 688.5 Q-228 692 -228 692 Q-228 694 -224.5 701 Q-221 708 -217 716 Q-213 724 -209.5 731 Q-206 738 -206 740 Q-206 745 -207.5 744.5 Q-209 744 -209 748 Q-216 747 -225.5 747 Q-235 747 -243 749 Q-251 751 -257 755 Q-263 759 -263 765 Q-263 772 -252 776 Q-241 780 -227.5 782 Q-214 784 -202 785.5 Q-190 787 -188 790 Q-181 799 -172 809.5 Q-163 820 -156 830 L-131 830 Q-131 822 -131.5 813 Q-132 804 -135 794 Q-127 789 -115 785.5 Q-103 782 -91 780 L-91 770 L-91 770 Z "/>
<glyph glyph-name="&amp;#x17e;" unicode="" d="M-91 770 Q-105 765 -119.5 761.5 Q-134 758 -145 754 Q-159 749 -166 736.5 Q-173 724 -178 713 Q-181 708 -185 703.5 Q-189 699 -192 694.5 Q-195 690 -196 685 Q-197 680 -193 675 Q-196 675 -199 673.5 Q-202 672 -210 672 Q-219 672 -222.5 675 Q-226 678 -227.5 681.5 Q-229 685 -228.5 688.5 Q-228 692 -228 692 Q-228 694 -224.5 701 Q-221 708 -217 716 Q-213 724 -209.5 731 Q-206 738 -206 740 Q-206 745 -207.5 744.5 Q-209 744 -209 748 Q-216 747 -225.5 747 Q-235 747 -243 749 Q-251 751 -257 755 Q-263 759 -263 765 Q-263 772 -252 776 Q-241 780 -227.5 782 Q-214 784 -202 785.5 Q-190 787 -188 790 Q-181 799 -172 809.5 Q-163 820 -156 830 L-131 830 Q-131 822 -131.5 813 Q-132 804 -135 794 Q-127 789 -115 785.5 Q-103 782 -91 780 L-91 770 L-91 770 Z "/>
<glyph glyph-name="&amp;#xf716;" unicode="" d="M-91 770 Q-105 765 -119.5 761.5 Q-134 758 -145 754 Q-159 749 -166 736.5 Q-173 724 -178 713 Q-181 708 -185 703.5 Q-189 699 -192 694.5 Q-195 690 -196 685 Q-197 680 -193 675 Q-196 675 -199 673.5 Q-202 672 -210 672 Q-219 672 -222.5 675 Q-226 678 -227.5 681.5 Q-229 685 -228.5 688.5 Q-228 692 -228 692 Q-228 694 -224.5 701 Q-221 708 -217 716 Q-213 724 -209.5 731 Q-206 738 -206 740 Q-206 745 -207.5 744.5 Q-209 744 -209 748 Q-216 747 -225.5 747 Q-235 747 -243 749 Q-251 751 -257 755 Q-263 759 -263 765 Q-263 772 -252 776 Q-241 780 -227.5 782 Q-214 784 -202 785.5 Q-190 787 -188 790 Q-181 799 -172 809.5 Q-163 820 -156 830 L-131 830 Q-131 822 -131.5 813 Q-132 804 -135 794 Q-127 789 -115 785.5 Q-103 782 -91 780 L-91 770 L-91 770 Z "/>
<glyph glyph-name="&amp;#x9f;" unicode="" d="M33 789 Q33 785 20.5 778.5 Q8 772 -9.5 764 Q-27 756 -45.5 747.5 Q-64 739 -75 733 Q-101 717 -131 699.5 Q-161 682 -190 662 Q-190 660 -190.5 659.5 Q-191 659 -188 657 Q-178 658 -171 654 Q-164 650 -160.5 643.5 Q-157 637 -155.5 631 Q-154 625 -154 622 Q-154 618 -155.5 612 Q-157 606 -160.5 600.5 Q-164 595 -171 591 Q-178 587 -190 587 Q-207 587 -217.5 593.5 Q-228 600 -234.5 608 Q-241 616 -243.5 624.5 Q-246 633 -246 636 Q-246 651 -240.5 665 Q-235 679 -221 688 Q-192 708 -152 728.5 Q-112 749 -74 766 Q-67 769 -54.5 774 Q-42 779 -29 783.5 Q-16 788 -6.5 791.5 Q3 795 4 795 L28 795 Q29 795 30 794 Q33 791 33 789 Z M-195 630 Q-198 630 -202.5 631.5 Q-207 633 -210 633 Q-207 628 -202.5 624.5 Q-198 621 -195 621 L-195 630 Z "/>
<glyph glyph-name="&amp;#x178;" unicode="" d="M33 789 Q33 785 20.5 778.5 Q8 772 -9.5 764 Q-27 756 -45.5 747.5 Q-64 739 -75 733 Q-101 717 -131 699.5 Q-161 682 -190 662 Q-190 660 -190.5 659.5 Q-191 659 -188 657 Q-178 658 -171 654 Q-164 650 -160.5 643.5 Q-157 637 -155.5 631 Q-154 625 -154 622 Q-154 618 -155.5 612 Q-157 606 -160.5 600.5 Q-164 595 -171 591 Q-178 587 -190 587 Q-207 587 -217.5 593.5 Q-228 600 -234.5 608 Q-241 616 -243.5 624.5 Q-246 633 -246 636 Q-246 651 -240.5 665 Q-235 679 -221 688 Q-192 708 -152 728.5 Q-112 749 -74 766 Q-67 769 -54.5 774 Q-42 779 -29 783.5 Q-16 788 -6.5 791.5 Q3 795 4 795 L28 795 Q29 795 30 794 Q33 791 33 789 Z M-195 630 Q-198 630 -202.5 631.5 Q-207 633 -210 633 Q-207 628 -202.5 624.5 Q-198 621 -195 621 L-195 630 Z "/>
<glyph glyph-name="&amp;#xf717;" unicode="" d="M33 789 Q33 785 20.5 778.5 Q8 772 -9.5 764 Q-27 756 -45.5 747.5 Q-64 739 -75 733 Q-101 717 -131 699.5 Q-161 682 -190 662 Q-190 660 -190.5 659.5 Q-191 659 -188 657 Q-178 658 -171 654 Q-164 650 -160.5 643.5 Q-157 637 -155.5 631 Q-154 625 -154 622 Q-154 618 -155.5 612 Q-157 606 -160.5 600.5 Q-164 595 -171 591 Q-178 587 -190 587 Q-207 587 -217.5 593.5 Q-228 600 -234.5 608 Q-241 616 -243.5 624.5 Q-246 633 -246 636 Q-246 651 -240.5 665 Q-235 679 -221 688 Q-192 708 -152 728.5 Q-112 749 -74 766 Q-67 769 -54.5 774 Q-42 779 -29 783.5 Q-16 788 -6.5 791.5 Q3 795 4 795 L28 795 Q29 795 30 794 Q33 791 33 789 Z M-195 630 Q-198 630 -202.5 631.5 Q-207 633 -210 633 Q-207 628 -202.5 624.5 Q-198 621 -195 621 L-195 630 Z "/>
<glyph glyph-name="&amp;#xa0;" unicode="" horiz-adv-x="452" d=""/>
<glyph glyph-name="&amp;#xe00;" unicode="" horiz-adv-x="452" d=""/>
<glyph glyph-name="&amp;#xa1;" unicode="" horiz-adv-x="380" d="M317 290 Q317 264 310 229.5 Q303 195 294 159 Q285 123 277 89 Q269 55 266 29 Q264 24 259.5 16 Q255 8 250 3 Q232 9 224 13 Q216 17 213 21 Q210 25 210.5 29.5 Q211 34 211 41 Q211 45 216 63.5 Q221 82 228 108.5 Q235 135 243.5 165.5 Q252 196 259 222.5 Q266 249 271 267.5 Q276 286 276 290 Q276 313 265.5 320.5 Q255 328 241 328 Q232 328 216 324.5 Q200 321 184 313 Q168 305 154.5 290 Q141 275 135 253 Q129 227 128 197 Q127 167 124 141 Q119 105 112.5 69 Q106 33 97 -3 L76 -3 Q68 5 62.5 14.5 Q57 24 57 35 Q57 39 59 49 Q61 59 64 71.5 Q67 84 69.5 98 Q72 112 73 124 Q74 148 77.5 176.5 Q81 205 85.5 234.5 Q90 264 95.5 292.5 Q101 321 107 345 Q148 360 184 376.5 Q220 393 252 393 Q277 393 290.5 380.5 Q304 368 310 350.5 Q316 333 316.5 316 Q317 299 317 290 Z "/>
<glyph glyph-name="&amp;#xe01;" unicode="" horiz-adv-x="380" d="M317 290 Q317 264 310 229.5 Q303 195 294 159 Q285 123 277 89 Q269 55 266 29 Q264 24 259.5 16 Q255 8 250 3 Q232 9 224 13 Q216 17 213 21 Q210 25 210.5 29.5 Q211 34 211 41 Q211 45 216 63.5 Q221 82 228 108.5 Q235 135 243.5 165.5 Q252 196 259 222.5 Q266 249 271 267.5 Q276 286 276 290 Q276 313 265.5 320.5 Q255 328 241 328 Q232 328 216 324.5 Q200 321 184 313 Q168 305 154.5 290 Q141 275 135 253 Q129 227 128 197 Q127 167 124 141 Q119 105 112.5 69 Q106 33 97 -3 L76 -3 Q68 5 62.5 14.5 Q57 24 57 35 Q57 39 59 49 Q61 59 64 71.5 Q67 84 69.5 98 Q72 112 73 124 Q74 148 77.5 176.5 Q81 205 85.5 234.5 Q90 264 95.5 292.5 Q101 321 107 345 Q148 360 184 376.5 Q220 393 252 393 Q277 393 290.5 380.5 Q304 368 310 350.5 Q316 333 316.5 316 Q317 299 317 290 Z "/>
<glyph glyph-name="&amp;#xa2;" unicode="" horiz-adv-x="363" d="M303 359 Q303 354 299.5 341 Q296 328 291.5 311.5 Q287 295 282 277 Q277 259 273 246 Q259 195 234.5 136 Q210 77 188 21 Q186 17 177 9 Q168 1 157 1 Q146 1 138.5 7 Q131 13 126 21.5 Q121 30 118.5 38 Q116 46 116 51 Q116 57 124 82 Q132 107 141 136.5 Q150 166 158 191.5 Q166 217 166 223 L166 295 Q162 295 160.5 297.5 Q159 300 147 300 Q136 300 124 286 Q112 272 99 258 Q97 253 97 245 Q97 237 95 231 Q95 228 94 225 Q92 219 82 219 Q76 219 67.5 225 Q59 231 52 239 Q45 247 40 255.5 Q35 264 35 269 Q35 274 39 284 Q43 294 49.5 305.5 Q56 317 64.5 328.5 Q73 340 81 347 Q85 351 94 355 Q103 359 113 362 Q123 365 132 367 Q141 369 147 369 Q160 369 168.5 365.5 Q177 362 184 354 Q191 346 199 332.5 Q207 319 219 300 Q228 312 236.5 328 Q245 344 252.5 358.5 Q260 373 266 383.5 Q272 394 278 394 Q287 394 292 390 Q297 386 299.5 380 Q302 374 302.5 368 Q303 362 303 359 Z "/>
<glyph glyph-name="&amp;#xe02;" unicode="" horiz-adv-x="363" d="M303 359 Q303 354 299.5 341 Q296 328 291.5 311.5 Q287 295 282 277 Q277 259 273 246 Q259 195 234.5 136 Q210 77 188 21 Q186 17 177 9 Q168 1 157 1 Q146 1 138.5 7 Q131 13 126 21.5 Q121 30 118.5 38 Q116 46 116 51 Q116 57 124 82 Q132 107 141 136.5 Q150 166 158 191.5 Q166 217 166 223 L166 295 Q162 295 160.5 297.5 Q159 300 147 300 Q136 300 124 286 Q112 272 99 258 Q97 253 97 245 Q97 237 95 231 Q95 228 94 225 Q92 219 82 219 Q76 219 67.5 225 Q59 231 52 239 Q45 247 40 255.5 Q35 264 35 269 Q35 274 39 284 Q43 294 49.5 305.5 Q56 317 64.5 328.5 Q73 340 81 347 Q85 351 94 355 Q103 359 113 362 Q123 365 132 367 Q141 369 147 369 Q160 369 168.5 365.5 Q177 362 184 354 Q191 346 199 332.5 Q207 319 219 300 Q228 312 236.5 328 Q245 344 252.5 358.5 Q260 373 266 383.5 Q272 394 278 394 Q287 394 292 390 Q297 386 299.5 380 Q302 374 302.5 368 Q303 362 303 359 Z "/>
<glyph glyph-name="&amp;#xa3;" unicode="" horiz-adv-x="371" d="M351 365 Q351 361 345 342 Q339 323 329.5 294.5 Q320 266 308 232 Q296 198 284 163.5 Q272 129 260 98.5 Q248 68 240 48 Q234 33 229 24.5 Q224 16 219 11.5 Q214 7 206.5 5.5 Q199 4 188 4 Q173 4 164.5 10 Q156 16 151.5 25 Q147 34 146 44 Q145 54 145 62 Q145 68 148 82 Q151 96 155 114.5 Q159 133 162 153.5 Q165 174 165 192 Q153 184 149 176 Q145 168 142.5 162 Q140 156 135.5 152.5 Q131 149 118 149 Q107 149 105 149.5 Q103 150 98 151 Q90 162 85.5 177 Q81 192 67 202 Q64 205 55 209 Q46 213 36.5 218.5 Q27 224 19.5 230 Q12 236 12 243 Q12 249 20.5 271 Q29 293 40.5 317.5 Q52 342 64 361 Q76 380 84 380 Q102 380 112 372 Q122 364 128 353.5 Q134 343 138 331.5 Q142 320 148 313 Q155 320 163 330 Q171 340 179.5 350 Q188 360 195.5 367 Q203 374 209 374 Q219 374 224.5 369.5 Q230 365 232.5 359.5 Q235 354 235.5 348.5 Q236 343 236 341 L236 245 Q241 240 243.5 236.5 Q246 233 255 233 Q255 247 261 269.5 Q267 292 278.5 316 Q290 340 306 362 Q322 384 342 398 Q351 390 351 365 Z M235 223 L228 207 L236 203 L244 220 L235 223 Z "/>
<glyph glyph-name="&amp;#xe03;" unicode="" horiz-adv-x="371" d="M351 365 Q351 361 345 342 Q339 323 329.5 294.5 Q320 266 308 232 Q296 198 284 163.5 Q272 129 260 98.5 Q248 68 240 48 Q234 33 229 24.5 Q224 16 219 11.5 Q214 7 206.5 5.5 Q199 4 188 4 Q173 4 164.5 10 Q156 16 151.5 25 Q147 34 146 44 Q145 54 145 62 Q145 68 148 82 Q151 96 155 114.5 Q159 133 162 153.5 Q165 174 165 192 Q153 184 149 176 Q145 168 142.5 162 Q140 156 135.5 152.5 Q131 149 118 149 Q107 149 105 149.5 Q103 150 98 151 Q90 162 85.5 177 Q81 192 67 202 Q64 205 55 209 Q46 213 36.5 218.5 Q27 224 19.5 230 Q12 236 12 243 Q12 249 20.5 271 Q29 293 40.5 317.5 Q52 342 64 361 Q76 380 84 380 Q102 380 112 372 Q122 364 128 353.5 Q134 343 138 331.5 Q142 320 148 313 Q155 320 163 330 Q171 340 179.5 350 Q188 360 195.5 367 Q203 374 209 374 Q219 374 224.5 369.5 Q230 365 232.5 359.5 Q235 354 235.5 348.5 Q236 343 236 341 L236 245 Q241 240 243.5 236.5 Q246 233 255 233 Q255 247 261 269.5 Q267 292 278.5 316 Q290 340 306 362 Q322 384 342 398 Q351 390 351 365 Z M235 223 L228 207 L236 203 L244 220 L235 223 Z "/>
<glyph glyph-name="&amp;#xa4;" unicode="" horiz-adv-x="426" d="M422 258 Q422 255 419 235 Q416 215 411 187 Q406 159 398.5 127 Q391 95 382 68 Q373 41 363 23 Q353 5 343 5 Q333 5 320.5 15.5 Q308 26 308 36 Q308 41 316 61 Q324 81 334 104.5 Q344 128 352 148 Q360 168 360 173 L360 200 Q361 201 361 202 Q359 204 351 204 Q343 204 327 192 Q311 180 291 161.5 Q271 143 249.5 121.5 Q228 100 210 81.5 Q192 63 179 51 Q166 39 163 39 Q153 39 140.5 51.5 Q128 64 115 68 Q129 128 142.5 191.5 Q156 255 164 315 Q165 327 171.5 338 Q178 349 186 357 Q194 365 203 370.5 Q212 376 219 378 Q236 383 258 387.5 Q280 392 291 392 Q330 392 355.5 382.5 Q381 373 396 356 Q411 339 416.5 314 Q422 289 422 258 Z M371 301 Q371 312 359.5 320.5 Q348 329 337 329 Q327 329 309.5 326.5 Q292 324 274 319.5 Q256 315 240.5 308.5 Q225 302 219 294 Q214 288 210 276.5 Q206 265 202.5 253.5 Q199 242 197 232 Q195 222 195 218 L195 181 Q223 202 259 224 Q295 246 346 268 Q357 273 364 282 Q371 291 371 301 Z "/>
<glyph glyph-name="&amp;#xe04;" unicode="" horiz-adv-x="426" d="M422 258 Q422 255 419 235 Q416 215 411 187 Q406 159 398.5 127 Q391 95 382 68 Q373 41 363 23 Q353 5 343 5 Q333 5 320.5 15.5 Q308 26 308 36 Q308 41 316 61 Q324 81 334 104.5 Q344 128 352 148 Q360 168 360 173 L360 200 Q361 201 361 202 Q359 204 351 204 Q343 204 327 192 Q311 180 291 161.5 Q271 143 249.5 121.5 Q228 100 210 81.5 Q192 63 179 51 Q166 39 163 39 Q153 39 140.5 51.5 Q128 64 115 68 Q129 128 142.5 191.5 Q156 255 164 315 Q165 327 171.5 338 Q178 349 186 357 Q194 365 203 370.5 Q212 376 219 378 Q236 383 258 387.5 Q280 392 291 392 Q330 392 355.5 382.5 Q381 373 396 356 Q411 339 416.5 314 Q422 289 422 258 Z M371 301 Q371 312 359.5 320.5 Q348 329 337 329 Q327 329 309.5 326.5 Q292 324 274 319.5 Q256 315 240.5 308.5 Q225 302 219 294 Q214 288 210 276.5 Q206 265 202.5 253.5 Q199 242 197 232 Q195 222 195 218 L195 181 Q223 202 259 224 Q295 246 346 268 Q357 273 364 282 Q371 291 371 301 Z "/>
<glyph glyph-name="&amp;#xa5;" unicode="" horiz-adv-x="380" d="M342 301 Q342 296 337 265 Q332 234 324.5 191.5 Q317 149 309.5 103 Q302 57 297 22 L281 22 Q278 33 270 47.5 Q262 62 262 76 Q262 81 264.5 97.5 Q267 114 270.5 135.5 Q274 157 278 181.5 Q282 206 285 227 Q274 219 266 201.5 Q258 184 251 166 Q244 148 237 134.5 Q230 121 222 121 Q214 121 209 129.5 Q204 138 202 139 Q197 148 197.5 157.5 Q198 167 197.5 176.5 Q197 186 193 197 Q189 208 175 221 Q164 208 157.5 196 Q151 184 146.5 171.5 Q142 159 137.5 147 Q133 135 127 122 Q125 117 118 97.5 Q111 78 102.5 56 Q94 34 85.5 16.5 Q77 -1 71 -1 Q61 -1 53.5 14.5 Q46 30 40 50 Q33 72 27 101 Q27 104 29 117.5 Q31 131 34 148.5 Q37 166 39.5 185 Q42 204 43 219 Q44 223 46.5 227 Q49 231 50 235 Q52 248 57.5 263 Q63 278 68 286 Q98 336 126 364.5 Q154 393 182 393 Q198 393 207.5 383.5 Q217 374 223.5 360.5 Q230 347 235 331.5 Q240 316 247 304 Q261 319 269 333.5 Q277 348 283 358.5 Q289 369 295 375.5 Q301 382 311 382 Q323 382 329 369 Q335 356 338 341 Q342 323 342 301 Z M117 237 Q108 230 101.5 217.5 Q95 205 90.5 191 Q86 177 83 164 Q80 151 79 143 Q87 164 99.5 190 Q112 216 117 237 Z "/>
<glyph glyph-name="&amp;#xe05;" unicode="" horiz-adv-x="380" d="M342 301 Q342 296 337 265 Q332 234 324.5 191.5 Q317 149 309.5 103 Q302 57 297 22 L281 22 Q278 33 270 47.5 Q262 62 262 76 Q262 81 264.5 97.5 Q267 114 270.5 135.5 Q274 157 278 181.5 Q282 206 285 227 Q274 219 266 201.5 Q258 184 251 166 Q244 148 237 134.5 Q230 121 222 121 Q214 121 209 129.5 Q204 138 202 139 Q197 148 197.5 157.5 Q198 167 197.5 176.5 Q197 186 193 197 Q189 208 175 221 Q164 208 157.5 196 Q151 184 146.5 171.5 Q142 159 137.5 147 Q133 135 127 122 Q125 117 118 97.5 Q111 78 102.5 56 Q94 34 85.5 16.5 Q77 -1 71 -1 Q61 -1 53.5 14.5 Q46 30 40 50 Q33 72 27 101 Q27 104 29 117.5 Q31 131 34 148.5 Q37 166 39.5 185 Q42 204 43 219 Q44 223 46.5 227 Q49 231 50 235 Q52 248 57.5 263 Q63 278 68 286 Q98 336 126 364.5 Q154 393 182 393 Q198 393 207.5 383.5 Q217 374 223.5 360.5 Q230 347 235 331.5 Q240 316 247 304 Q261 319 269 333.5 Q277 348 283 358.5 Q289 369 295 375.5 Q301 382 311 382 Q323 382 329 369 Q335 356 338 341 Q342 323 342 301 Z M117 237 Q108 230 101.5 217.5 Q95 205 90.5 191 Q86 177 83 164 Q80 151 79 143 Q87 164 99.5 190 Q112 216 117 237 Z "/>
<glyph glyph-name="&amp;#xa6;" unicode="" horiz-adv-x="451" d="M438 335 Q438 331 434 319 Q430 307 424 292 Q418 277 412 260.5 Q406 244 402 231 Q401 227 397 209.5 Q393 192 388 168 Q383 144 376 117.5 Q369 91 361 68.5 Q353 46 345 31.5 Q337 17 329 17 Q319 17 311 26.5 Q303 36 296 48.5 Q289 61 281.5 74.5 Q274 88 265 96 Q262 94 254 79 Q246 64 235.5 47 Q225 30 213 15.5 Q201 1 191 1 Q188 1 180 3.5 Q172 6 163.5 10.5 Q155 15 148 21.5 Q141 28 141 35 Q141 39 145 52 Q149 65 155.5 81 Q162 97 169.5 113.5 Q177 130 185 141 Q188 145 195 149 Q202 153 210 157.5 Q218 162 225 167.5 Q232 173 235 180 Q241 194 244 213 Q247 232 247 242 Q247 251 247.5 254.5 Q248 258 243 266 Q233 261 225 248.5 Q217 236 210.5 221.5 Q204 207 198.5 193 Q193 179 187 171 Q180 170 169.5 177.5 Q159 185 153 193 Q151 196 152.5 211.5 Q154 227 155.5 244 Q157 261 156 274.5 Q155 288 146 288 Q137 288 129 279 Q121 270 115 258.5 Q109 247 105 236 Q101 225 101 222 Q114 210 113.5 199.5 Q113 189 106 181.5 Q99 174 90 169.5 Q81 165 77 165 Q74 165 68.5 171.5 Q63 178 57.5 187 Q52 196 48.5 204.5 Q45 213 45 216 Q45 222 51 237.5 Q57 253 66 273 Q75 293 86.5 314.5 Q98 336 110 353.5 Q122 371 132.5 382.5 Q143 394 151 394 Q162 394 170.5 386 Q179 378 185.5 367.5 Q192 357 196 347.5 Q200 338 202 335 Q208 339 214.5 345.5 Q221 352 228 358 Q235 364 241 368.5 Q247 373 252 373 Q261 373 268.5 366.5 Q276 360 282 350 Q296 325 296 301 Q296 283 293 265 Q290 247 287.5 229 Q285 211 283.5 193.5 Q282 176 285 158 Q287 150 296.5 140.5 Q306 131 314 123 Q322 126 327 135 Q332 144 333 152 Q336 175 342.5 206.5 Q349 238 357 264 Q364 287 374 311.5 Q384 336 393 359 Q396 361 404 364.5 Q412 368 420 373 Q424 368 431 357 Q438 346 438 335 Z "/>
<glyph glyph-name="&amp;#xe06;" unicode="" horiz-adv-x="451" d="M438 335 Q438 331 434 319 Q430 307 424 292 Q418 277 412 260.5 Q406 244 402 231 Q401 227 397 209.5 Q393 192 388 168 Q383 144 376 117.5 Q369 91 361 68.5 Q353 46 345 31.5 Q337 17 329 17 Q319 17 311 26.5 Q303 36 296 48.5 Q289 61 281.5 74.5 Q274 88 265 96 Q262 94 254 79 Q246 64 235.5 47 Q225 30 213 15.5 Q201 1 191 1 Q188 1 180 3.5 Q172 6 163.5 10.5 Q155 15 148 21.5 Q141 28 141 35 Q141 39 145 52 Q149 65 155.5 81 Q162 97 169.5 113.5 Q177 130 185 141 Q188 145 195 149 Q202 153 210 157.5 Q218 162 225 167.5 Q232 173 235 180 Q241 194 244 213 Q247 232 247 242 Q247 251 247.5 254.5 Q248 258 243 266 Q233 261 225 248.5 Q217 236 210.5 221.5 Q204 207 198.5 193 Q193 179 187 171 Q180 170 169.5 177.5 Q159 185 153 193 Q151 196 152.5 211.5 Q154 227 155.5 244 Q157 261 156 274.5 Q155 288 146 288 Q137 288 129 279 Q121 270 115 258.5 Q109 247 105 236 Q101 225 101 222 Q114 210 113.5 199.5 Q113 189 106 181.5 Q99 174 90 169.5 Q81 165 77 165 Q74 165 68.5 171.5 Q63 178 57.5 187 Q52 196 48.5 204.5 Q45 213 45 216 Q45 222 51 237.5 Q57 253 66 273 Q75 293 86.5 314.5 Q98 336 110 353.5 Q122 371 132.5 382.5 Q143 394 151 394 Q162 394 170.5 386 Q179 378 185.5 367.5 Q192 357 196 347.5 Q200 338 202 335 Q208 339 214.5 345.5 Q221 352 228 358 Q235 364 241 368.5 Q247 373 252 373 Q261 373 268.5 366.5 Q276 360 282 350 Q296 325 296 301 Q296 283 293 265 Q290 247 287.5 229 Q285 211 283.5 193.5 Q282 176 285 158 Q287 150 296.5 140.5 Q306 131 314 123 Q322 126 327 135 Q332 144 333 152 Q336 175 342.5 206.5 Q349 238 357 264 Q364 287 374 311.5 Q384 336 393 359 Q396 361 404 364.5 Q412 368 420 373 Q424 368 431 357 Q438 346 438 335 Z "/>
<glyph glyph-name="&amp;#xa7;" unicode="" horiz-adv-x="323" d="M244 263 Q244 232 236 198 Q228 164 217 133.5 Q206 103 193 78.5 Q180 54 170 42 Q158 27 146 15 Q134 3 126 3 Q110 3 95.5 15.5 Q81 28 68.5 47.5 Q56 67 46 90 Q36 113 29 134.5 Q22 156 18 172 Q14 188 14 194 L14 211 Q19 215 27 219 Q35 223 39 223 Q54 205 59.5 186.5 Q65 168 71 148.5 Q77 129 88 107.5 Q99 86 124 62 Q141 77 155.5 101 Q170 125 180.5 154 Q191 183 196.5 214 Q202 245 202 274 Q202 283 196.5 292 Q191 301 188 309 Q180 301 173.5 289.5 Q167 278 162 266 Q144 276 135 284 Q126 292 126 303 Q126 307 129.5 318 Q133 329 138 341.5 Q143 354 149.5 366 Q156 378 161 386 Q164 388 171 391 Q178 394 188 394 Q199 394 212 383.5 Q225 373 230 360 Q234 348 236.5 333 Q239 318 240.5 304 Q242 290 243 279 Q244 268 244 263 Z "/>
<glyph glyph-name="&amp;#xe07;" unicode="" horiz-adv-x="323" d="M244 263 Q244 232 236 198 Q228 164 217 133.5 Q206 103 193 78.5 Q180 54 170 42 Q158 27 146 15 Q134 3 126 3 Q110 3 95.5 15.5 Q81 28 68.5 47.5 Q56 67 46 90 Q36 113 29 134.5 Q22 156 18 172 Q14 188 14 194 L14 211 Q19 215 27 219 Q35 223 39 223 Q54 205 59.5 186.5 Q65 168 71 148.5 Q77 129 88 107.5 Q99 86 124 62 Q141 77 155.5 101 Q170 125 180.5 154 Q191 183 196.5 214 Q202 245 202 274 Q202 283 196.5 292 Q191 301 188 309 Q180 301 173.5 289.5 Q167 278 162 266 Q144 276 135 284 Q126 292 126 303 Q126 307 129.5 318 Q133 329 138 341.5 Q143 354 149.5 366 Q156 378 161 386 Q164 388 171 391 Q178 394 188 394 Q199 394 212 383.5 Q225 373 230 360 Q234 348 236.5 333 Q239 318 240.5 304 Q242 290 243 279 Q244 268 244 263 Z "/>
<glyph glyph-name="&amp;#xa8;" unicode="" horiz-adv-x="370" d="M290 254 Q290 251 285.5 236.5 Q281 222 275 203 Q269 184 263 164.5 Q257 145 253 130 Q250 119 247.5 102.5 Q245 86 241 68.5 Q237 51 232 34 Q227 17 219 5 Q205 13 195.5 27.5 Q186 42 186 47 Q186 51 193 71.5 Q200 92 208.5 116 Q217 140 224 160 Q231 180 231 185 L231 198 Q232 199 232 200 Q232 202 223 202 Q215 202 202.5 192 Q190 182 179 182 Q160 182 153.5 193 Q147 204 147 217 Q147 235 163 245.5 Q179 256 198.5 263.5 Q218 271 234 278 Q250 285 250 298 Q250 300 248.5 305.5 Q247 311 244.5 316.5 Q242 322 238 326 Q234 330 228 330 Q223 330 203.5 320 Q184 310 161.5 298 Q139 286 119 276 Q99 266 95 266 Q88 266 78 276 Q68 286 68 296 Q68 315 88 333 Q108 351 134.5 364.5 Q161 378 186.5 386 Q212 394 223 394 Q241 394 260 378 Q279 362 281 333 Q282 324 283.5 312 Q285 300 286.5 288.5 Q288 277 289 267.5 Q290 258 290 254 Z "/>
<glyph glyph-name="&amp;#xe08;" unicode="" horiz-adv-x="370" d="M290 254 Q290 251 285.5 236.5 Q281 222 275 203 Q269 184 263 164.5 Q257 145 253 130 Q250 119 247.5 102.5 Q245 86 241 68.5 Q237 51 232 34 Q227 17 219 5 Q205 13 195.5 27.5 Q186 42 186 47 Q186 51 193 71.5 Q200 92 208.5 116 Q217 140 224 160 Q231 180 231 185 L231 198 Q232 199 232 200 Q232 202 223 202 Q215 202 202.5 192 Q190 182 179 182 Q160 182 153.5 193 Q147 204 147 217 Q147 235 163 245.5 Q179 256 198.5 263.5 Q218 271 234 278 Q250 285 250 298 Q250 300 248.5 305.5 Q247 311 244.5 316.5 Q242 322 238 326 Q234 330 228 330 Q223 330 203.5 320 Q184 310 161.5 298 Q139 286 119 276 Q99 266 95 266 Q88 266 78 276 Q68 286 68 296 Q68 315 88 333 Q108 351 134.5 364.5 Q161 378 186.5 386 Q212 394 223 394 Q241 394 260 378 Q279 362 281 333 Q282 324 283.5 312 Q285 300 286.5 288.5 Q288 277 289 267.5 Q290 258 290 254 Z "/>
<glyph glyph-name="&amp;#xa9;" unicode="" horiz-adv-x="436" d="M369 151 Q369 146 366 130.5 Q363 115 359 94 Q355 73 349.5 50 Q344 27 340 8 Q336 8 333 5 Q330 2 319 2 Q309 2 302 13 Q295 24 289 32 Q291 53 294.5 77 Q298 101 302 122 L294 131 Q279 116 262.5 95 Q246 74 231 54.5 Q216 35 204 21.5 Q192 8 187 8 Q183 8 177 13 Q171 18 165 25 Q159 32 155 40 Q151 48 151 53 Q151 58 157 82.5 Q163 107 170.5 135.5 Q178 164 184 188.5 Q190 213 190 218 Q190 229 190 241.5 Q190 254 176 265 Q163 261 151.5 252 Q140 243 129.5 232 Q119 221 109 209.5 Q99 198 88 189 Q83 187 79 184 Q75 181 64 181 Q50 181 40 191.5 Q30 202 23.5 215.5 Q17 229 14 241.5 Q11 254 11 257 Q11 264 21 279 Q31 294 45 310 Q59 326 73 339.5 Q87 353 96 358 Q126 375 157.5 384.5 Q189 394 224 394 Q228 394 236.5 393.5 Q245 393 254 391.5 Q263 390 271 387 Q279 384 284 380 Q301 366 316.5 334 Q332 302 343.5 267 Q355 232 362 199.5 Q369 167 369 151 Z M302 251 Q302 260 296.5 272.5 Q291 285 283 297 Q275 309 264 317.5 Q253 326 243 326 L224 326 Q224 309 230 292 Q236 275 236 263 Q236 242 239 219 Q242 196 242 182 Q251 190 261.5 200 Q272 210 281 220 Q290 230 296 238 Q302 246 302 251 Z "/>
<glyph glyph-name="&amp;#xe09;" unicode="" horiz-adv-x="436" d="M369 151 Q369 146 366 130.5 Q363 115 359 94 Q355 73 349.5 50 Q344 27 340 8 Q336 8 333 5 Q330 2 319 2 Q309 2 302 13 Q295 24 289 32 Q291 53 294.5 77 Q298 101 302 122 L294 131 Q279 116 262.5 95 Q246 74 231 54.5 Q216 35 204 21.5 Q192 8 187 8 Q183 8 177 13 Q171 18 165 25 Q159 32 155 40 Q151 48 151 53 Q151 58 157 82.5 Q163 107 170.5 135.5 Q178 164 184 188.5 Q190 213 190 218 Q190 229 190 241.5 Q190 254 176 265 Q163 261 151.5 252 Q140 243 129.5 232 Q119 221 109 209.5 Q99 198 88 189 Q83 187 79 184 Q75 181 64 181 Q50 181 40 191.5 Q30 202 23.5 215.5 Q17 229 14 241.5 Q11 254 11 257 Q11 264 21 279 Q31 294 45 310 Q59 326 73 339.5 Q87 353 96 358 Q126 375 157.5 384.5 Q189 394 224 394 Q228 394 236.5 393.5 Q245 393 254 391.5 Q263 390 271 387 Q279 384 284 380 Q301 366 316.5 334 Q332 302 343.5 267 Q355 232 362 199.5 Q369 167 369 151 Z M302 251 Q302 260 296.5 272.5 Q291 285 283 297 Q275 309 264 317.5 Q253 326 243 326 L224 326 Q224 309 230 292 Q236 275 236 263 Q236 242 239 219 Q242 196 242 182 Q251 190 261.5 200 Q272 210 281 220 Q290 230 296 238 Q302 246 302 251 Z "/>
<glyph glyph-name="&amp;#xaa;" unicode="" horiz-adv-x="360" d="M449 431 Q449 420 440.5 412.5 Q432 405 421 400.5 Q410 396 399.5 393.5 Q389 391 386 389 Q353 367 324.5 345 Q296 323 275.5 299 Q255 275 244.5 247.5 Q234 220 237 189 Q237 187 234.5 172.5 Q232 158 227.5 137 Q223 116 216.5 92 Q210 68 201 48 Q192 28 181 14.5 Q170 1 157 1 Q145 1 137 10 Q129 19 124.5 31 Q120 43 118.5 54 Q117 65 117 70 Q117 74 120 98.5 Q123 123 126.5 151 Q130 179 133 203 Q136 227 136 231 Q136 247 136.5 260.5 Q137 274 124 286 Q106 272 95 255 Q84 238 73 220 Q66 219 53.5 229 Q41 239 41 250 Q41 257 46.5 271.5 Q52 286 60.5 301.5 Q69 317 78 330.5 Q87 344 94 350 Q99 355 107 356 Q115 357 124 357 Q140 357 150.5 345 Q161 333 167.5 317 Q174 301 176.5 285 Q179 269 179 260 Q179 255 176 235 Q173 215 169.5 191 Q166 167 163 146.5 Q160 126 160 122 Q160 113 161.5 111 Q163 109 167 106 Q183 125 190 148 Q197 171 199.5 196 Q202 221 202 247 Q202 273 205 298 Q207 316 221 335 Q235 354 255 372.5 Q275 391 299 407 Q323 423 345 435.5 Q367 448 385.5 455 Q404 462 413 462 Q430 462 439.5 451 Q449 440 449 431 Z "/>
<glyph glyph-name="&amp;#xe0a;" unicode="" horiz-adv-x="360" d="M449 431 Q449 420 440.5 412.5 Q432 405 421 400.5 Q410 396 399.5 393.5 Q389 391 386 389 Q353 367 324.5 345 Q296 323 275.5 299 Q255 275 244.5 247.5 Q234 220 237 189 Q237 187 234.5 172.5 Q232 158 227.5 137 Q223 116 216.5 92 Q210 68 201 48 Q192 28 181 14.5 Q170 1 157 1 Q145 1 137 10 Q129 19 124.5 31 Q120 43 118.5 54 Q117 65 117 70 Q117 74 120 98.5 Q123 123 126.5 151 Q130 179 133 203 Q136 227 136 231 Q136 247 136.5 260.5 Q137 274 124 286 Q106 272 95 255 Q84 238 73 220 Q66 219 53.5 229 Q41 239 41 250 Q41 257 46.5 271.5 Q52 286 60.5 301.5 Q69 317 78 330.5 Q87 344 94 350 Q99 355 107 356 Q115 357 124 357 Q140 357 150.5 345 Q161 333 167.5 317 Q174 301 176.5 285 Q179 269 179 260 Q179 255 176 235 Q173 215 169.5 191 Q166 167 163 146.5 Q160 126 160 122 Q160 113 161.5 111 Q163 109 167 106 Q183 125 190 148 Q197 171 199.5 196 Q202 221 202 247 Q202 273 205 298 Q207 316 221 335 Q235 354 255 372.5 Q275 391 299 407 Q323 423 345 435.5 Q367 448 385.5 455 Q404 462 413 462 Q430 462 439.5 451 Q449 440 449 431 Z "/>
<glyph glyph-name="&amp;#xab;" unicode="" horiz-adv-x="353" d="M457 438 Q457 421 441 414.5 Q425 408 401 394 Q371 377 342.5 348 Q314 319 290 285.5 Q266 252 247.5 217.5 Q229 183 219 156 Q215 146 207.5 121 Q200 96 190 69.5 Q180 43 168 23 Q156 3 143 3 Q134 3 126 12 Q118 21 112.5 32 Q107 43 103.5 52.5 Q100 62 100 63 Q100 68 104.5 88 Q109 108 115 130.5 Q121 153 125.5 172.5 Q130 192 130 197 L130 211 L123 219 Q114 209 100.5 199 Q87 189 77 189 Q68 189 58.5 196.5 Q49 204 40 204 Q36 204 29.5 197.5 Q23 191 16.5 183.5 Q10 176 3 170 Q-4 164 -8 164 Q-18 164 -27 174.5 Q-36 185 -36 194 Q-36 198 -29 211.5 Q-22 225 -11.5 242 Q-1 259 10.5 278 Q22 297 31 314 Q34 318 35.5 319 Q37 320 47 320 Q57 320 63 314.5 Q69 309 72 300.5 Q75 292 75 282.5 Q75 273 74 264 Q78 264 78 262 Q78 260 87 260 Q91 260 96.5 266.5 Q102 273 108 282.5 Q114 292 120 303 Q126 314 132 323 Q135 325 136.5 325 Q138 325 148 325 Q162 325 168 320.5 Q174 316 177 293 Q180 266 174.5 237.5 Q169 209 173 179 Q182 198 194 219 Q206 240 218 261.5 Q230 283 240.5 303 Q251 323 257 339 Q266 359 283.5 378 Q301 397 322 412.5 Q343 428 363.5 439 Q384 450 399 454 Q406 456 413 458.5 Q420 461 430 461 Q444 461 450.5 453 Q457 445 457 438 Z "/>
<glyph glyph-name="&amp;#xe0b;" unicode="" horiz-adv-x="353" d="M457 438 Q457 421 441 414.5 Q425 408 401 394 Q371 377 342.5 348 Q314 319 290 285.5 Q266 252 247.5 217.5 Q229 183 219 156 Q215 146 207.5 121 Q200 96 190 69.5 Q180 43 168 23 Q156 3 143 3 Q134 3 126 12 Q118 21 112.5 32 Q107 43 103.5 52.5 Q100 62 100 63 Q100 68 104.5 88 Q109 108 115 130.5 Q121 153 125.5 172.5 Q130 192 130 197 L130 211 L123 219 Q114 209 100.5 199 Q87 189 77 189 Q68 189 58.5 196.5 Q49 204 40 204 Q36 204 29.5 197.5 Q23 191 16.5 183.5 Q10 176 3 170 Q-4 164 -8 164 Q-18 164 -27 174.5 Q-36 185 -36 194 Q-36 198 -29 211.5 Q-22 225 -11.5 242 Q-1 259 10.5 278 Q22 297 31 314 Q34 318 35.5 319 Q37 320 47 320 Q57 320 63 314.5 Q69 309 72 300.5 Q75 292 75 282.5 Q75 273 74 264 Q78 264 78 262 Q78 260 87 260 Q91 260 96.5 266.5 Q102 273 108 282.5 Q114 292 120 303 Q126 314 132 323 Q135 325 136.5 325 Q138 325 148 325 Q162 325 168 320.5 Q174 316 177 293 Q180 266 174.5 237.5 Q169 209 173 179 Q182 198 194 219 Q206 240 218 261.5 Q230 283 240.5 303 Q251 323 257 339 Q266 359 283.5 378 Q301 397 322 412.5 Q343 428 363.5 439 Q384 450 399 454 Q406 456 413 458.5 Q420 461 430 461 Q444 461 450.5 453 Q457 445 457 438 Z "/>
<glyph glyph-name="&amp;#xac;" unicode="" horiz-adv-x="522" d="M510 324 Q510 319 505 305.5 Q500 292 494 274 Q488 256 482 237 Q476 218 473 203 Q471 191 466.5 169 Q462 147 462 126 Q462 123 458.5 108 Q455 93 449.5 76.5 Q444 60 436.5 46.5 Q429 33 421 33 Q414 33 402 46 Q390 59 376 76 Q362 93 348 108 Q334 123 323 128 Q314 122 303 102 Q292 82 280 60.5 Q268 39 255.5 22 Q243 5 231 5 Q219 5 212 12.5 Q205 20 202 29 Q199 38 198 46 Q197 54 197 56 Q197 76 206 95 Q215 114 227.5 133 Q240 152 254 169.5 Q268 187 277 204 Q275 209 278 212 Q281 215 281 226 Q281 257 260.5 282 Q240 307 206 307 Q197 307 176.5 304 Q156 301 139 300 Q131 295 126.5 287 Q122 279 120 271 Q112 226 99 163 Q86 100 77 40 Q76 38 74 36 Q72 34 70 32 Q68 30 66 28 Q57 32 48 41 Q39 50 31 58 Q34 66 31.5 72 Q29 78 29 89 Q29 93 30.5 103.5 Q32 114 34 127 Q36 140 38.5 153 Q41 166 44 177 Q47 189 53 202 Q59 215 67 227 Q69 232 68.5 238 Q68 244 66 249 Q73 263 76 281.5 Q79 300 81 319.5 Q83 339 86.5 357.5 Q90 376 98 391 Q109 392 122.5 385.5 Q136 379 150 376 Q175 371 201 371.5 Q227 372 251 367 Q275 362 287 343.5 Q299 325 304.5 302.5 Q310 280 312.5 258 Q315 236 321 223 Q333 196 359.5 177.5 Q386 159 412 134 Q420 189 431.5 247 Q443 305 456 369 L492 369 Q500 362 505 347.5 Q510 333 510 324 Z "/>
<glyph glyph-name="&amp;#xe0c;" unicode="" horiz-adv-x="522" d="M510 324 Q510 319 505 305.5 Q500 292 494 274 Q488 256 482 237 Q476 218 473 203 Q471 191 466.5 169 Q462 147 462 126 Q462 123 458.5 108 Q455 93 449.5 76.5 Q444 60 436.5 46.5 Q429 33 421 33 Q414 33 402 46 Q390 59 376 76 Q362 93 348 108 Q334 123 323 128 Q314 122 303 102 Q292 82 280 60.5 Q268 39 255.5 22 Q243 5 231 5 Q219 5 212 12.5 Q205 20 202 29 Q199 38 198 46 Q197 54 197 56 Q197 76 206 95 Q215 114 227.5 133 Q240 152 254 169.5 Q268 187 277 204 Q275 209 278 212 Q281 215 281 226 Q281 257 260.5 282 Q240 307 206 307 Q197 307 176.5 304 Q156 301 139 300 Q131 295 126.5 287 Q122 279 120 271 Q112 226 99 163 Q86 100 77 40 Q76 38 74 36 Q72 34 70 32 Q68 30 66 28 Q57 32 48 41 Q39 50 31 58 Q34 66 31.5 72 Q29 78 29 89 Q29 93 30.5 103.5 Q32 114 34 127 Q36 140 38.5 153 Q41 166 44 177 Q47 189 53 202 Q59 215 67 227 Q69 232 68.5 238 Q68 244 66 249 Q73 263 76 281.5 Q79 300 81 319.5 Q83 339 86.5 357.5 Q90 376 98 391 Q109 392 122.5 385.5 Q136 379 150 376 Q175 371 201 371.5 Q227 372 251 367 Q275 362 287 343.5 Q299 325 304.5 302.5 Q310 280 312.5 258 Q315 236 321 223 Q333 196 359.5 177.5 Q386 159 412 134 Q420 189 431.5 247 Q443 305 456 369 L492 369 Q500 362 505 347.5 Q510 333 510 324 Z "/>
<glyph glyph-name="&amp;#xad;" unicode="" horiz-adv-x="554" d="M528 341 Q528 330 525.5 314 Q523 298 519 289 Q488 227 451 164.5 Q414 102 373 36 Q371 34 372 33 Q372 31 383 31 Q389 31 397.5 35 Q406 39 416 44.5 Q426 50 436 54 Q446 58 454 58 Q460 58 466 51 Q472 44 477 36 Q482 26 488 14 Q488 10 475 -4 Q462 -18 442 -37 Q422 -56 398.5 -77.5 Q375 -99 353.5 -116.5 Q332 -134 316 -145.5 Q300 -157 296 -157 Q283 -157 275.5 -150.5 Q268 -144 264.5 -135.5 Q261 -127 260 -119.5 Q259 -112 259 -110 Q259 -88 268.5 -72.5 Q278 -57 289.5 -45 Q301 -33 310.5 -24 Q320 -15 320 -6 Q320 0 312.5 9.5 Q305 19 296 29.5 Q287 40 279.5 49.5 Q272 59 272 65 Q272 69 276.5 84.5 Q281 100 288 121 Q295 142 302.5 166 Q310 190 317 211 Q324 232 328.5 247.5 Q333 263 333 267 Q333 289 327.5 301 Q322 313 313.5 319 Q305 325 294 326 Q283 327 272 327 Q266 327 254 324 Q242 321 227 317 Q212 313 196.5 307.5 Q181 302 169 298 Q160 294 154.5 283.5 Q149 273 146 260.5 Q143 248 141.5 236.5 Q140 225 138 219 Q145 210 153.5 206.5 Q162 203 169 198.5 Q176 194 180.5 185 Q185 176 185 156 Q185 151 178.5 136 Q172 121 161.5 101 Q151 81 138.5 59 Q126 37 114 19 Q102 1 92 -11 Q82 -23 77 -23 Q72 -23 65 -16.5 Q58 -10 52 -1 Q46 8 41.5 18 Q37 28 37 35 Q37 40 41.5 56 Q46 72 52 93 Q58 114 64.5 136.5 Q71 159 75 177 Q77 185 78 197.5 Q79 210 80 224 Q81 238 83 252 Q85 266 88 278 Q96 304 107 333.5 Q118 363 133 392 Q151 390 172.5 390.5 Q194 391 214 392 Q234 393 250 394 Q266 395 272 395 Q312 395 333.5 382 Q355 369 366.5 346 Q378 323 384 292.5 Q390 262 398 226 Q421 261 442 304.5 Q463 348 483 394 L520 394 Q520 384 524 370 Q528 356 528 341 Z "/>
<glyph glyph-name="&amp;#xde;" unicode="" horiz-adv-x="554" d="M528 341 Q528 330 525.5 314 Q523 298 519 289 Q488 227 451 164.5 Q414 102 373 36 Q371 34 372 33 Q372 31 383 31 Q389 31 397.5 35 Q406 39 416 44.5 Q426 50 436 54 Q446 58 454 58 Q460 58 466 51 Q472 44 477 36 Q482 26 488 14 Q488 10 475 -4 Q462 -18 442 -37 Q422 -56 398.5 -77.5 Q375 -99 353.5 -116.5 Q332 -134 316 -145.5 Q300 -157 296 -157 Q283 -157 275.5 -150.5 Q268 -144 264.5 -135.5 Q261 -127 260 -119.5 Q259 -112 259 -110 Q259 -88 268.5 -72.5 Q278 -57 289.5 -45 Q301 -33 310.5 -24 Q320 -15 320 -6 Q320 0 312.5 9.5 Q305 19 296 29.5 Q287 40 279.5 49.5 Q272 59 272 65 Q272 69 276.5 84.5 Q281 100 288 121 Q295 142 302.5 166 Q310 190 317 211 Q324 232 328.5 247.5 Q333 263 333 267 Q333 289 327.5 301 Q322 313 313.5 319 Q305 325 294 326 Q283 327 272 327 Q266 327 254 324 Q242 321 227 317 Q212 313 196.5 307.5 Q181 302 169 298 Q160 294 154.5 283.5 Q149 273 146 260.5 Q143 248 141.5 236.5 Q140 225 138 219 Q145 210 153.5 206.5 Q162 203 169 198.5 Q176 194 180.5 185 Q185 176 185 156 Q185 151 178.5 136 Q172 121 161.5 101 Q151 81 138.5 59 Q126 37 114 19 Q102 1 92 -11 Q82 -23 77 -23 Q72 -23 65 -16.5 Q58 -10 52 -1 Q46 8 41.5 18 Q37 28 37 35 Q37 40 41.5 56 Q46 72 52 93 Q58 114 64.5 136.5 Q71 159 75 177 Q77 185 78 197.5 Q79 210 80 224 Q81 238 83 252 Q85 266 88 278 Q96 304 107 333.5 Q118 363 133 392 Q151 390 172.5 390.5 Q194 391 214 392 Q234 393 250 394 Q266 395 272 395 Q312 395 333.5 382 Q355 369 366.5 346 Q378 323 384 292.5 Q390 262 398 226 Q421 261 442 304.5 Q463 348 483 394 L520 394 Q520 384 524 370 Q528 356 528 341 Z "/>
<glyph glyph-name="&amp;#xe0d;" unicode="" horiz-adv-x="554" d="M528 341 Q528 330 525.5 314 Q523 298 519 289 Q488 227 451 164.5 Q414 102 373 36 Q371 34 372 33 Q372 31 383 31 Q389 31 397.5 35 Q406 39 416 44.5 Q426 50 436 54 Q446 58 454 58 Q460 58 466 51 Q472 44 477 36 Q482 26 488 14 Q488 10 475 -4 Q462 -18 442 -37 Q422 -56 398.5 -77.5 Q375 -99 353.5 -116.5 Q332 -134 316 -145.5 Q300 -157 296 -157 Q283 -157 275.5 -150.5 Q268 -144 264.5 -135.5 Q261 -127 260 -119.5 Q259 -112 259 -110 Q259 -88 268.5 -72.5 Q278 -57 289.5 -45 Q301 -33 310.5 -24 Q320 -15 320 -6 Q320 0 312.5 9.5 Q305 19 296 29.5 Q287 40 279.5 49.5 Q272 59 272 65 Q272 69 276.5 84.5 Q281 100 288 121 Q295 142 302.5 166 Q310 190 317 211 Q324 232 328.5 247.5 Q333 263 333 267 Q333 289 327.5 301 Q322 313 313.5 319 Q305 325 294 326 Q283 327 272 327 Q266 327 254 324 Q242 321 227 317 Q212 313 196.5 307.5 Q181 302 169 298 Q160 294 154.5 283.5 Q149 273 146 260.5 Q143 248 141.5 236.5 Q140 225 138 219 Q145 210 153.5 206.5 Q162 203 169 198.5 Q176 194 180.5 185 Q185 176 185 156 Q185 151 178.5 136 Q172 121 161.5 101 Q151 81 138.5 59 Q126 37 114 19 Q102 1 92 -11 Q82 -23 77 -23 Q72 -23 65 -16.5 Q58 -10 52 -1 Q46 8 41.5 18 Q37 28 37 35 Q37 40 41.5 56 Q46 72 52 93 Q58 114 64.5 136.5 Q71 159 75 177 Q77 185 78 197.5 Q79 210 80 224 Q81 238 83 252 Q85 266 88 278 Q96 304 107 333.5 Q118 363 133 392 Q151 390 172.5 390.5 Q194 391 214 392 Q234 393 250 394 Q266 395 272 395 Q312 395 333.5 382 Q355 369 366.5 346 Q378 323 384 292.5 Q390 262 398 226 Q421 261 442 304.5 Q463 348 483 394 L520 394 Q520 384 524 370 Q528 356 528 341 Z "/>
<glyph glyph-name="&amp;#xae;" unicode="" horiz-adv-x="419" d="M424 286 Q424 276 420.5 253 Q417 230 411 200.5 Q405 171 398.5 139 Q392 107 385.5 78.5 Q379 50 374.5 29.5 Q370 9 369 4 Q359 -40 350.5 -88 Q342 -136 337 -189 Q336 -194 329.5 -201.5 Q323 -209 324 -214 L301 -214 Q286 -190 278.5 -164 Q271 -138 261 -116.5 Q251 -95 233.5 -81.5 Q216 -68 183 -68 Q164 -68 151 -72.5 Q138 -77 126.5 -84.5 Q115 -92 102.5 -102 Q90 -112 72 -124 L81 -133 Q90 -128 102 -122 Q114 -116 126 -110.5 Q138 -105 148.5 -101.5 Q159 -98 164 -98 L188 -98 L201 -113 Q187 -127 172.5 -142 Q158 -157 142.5 -169 Q127 -181 111 -189 Q95 -197 78 -197 Q64 -197 48.5 -190 Q33 -183 20 -172 Q7 -161 -1.5 -147 Q-10 -133 -10 -118 Q-10 -99 2 -83.5 Q14 -68 33 -55 Q52 -42 74 -32.5 Q96 -23 116.5 -16.5 Q137 -10 152 -7 Q167 -4 172 -4 Q182 -4 196 -6.5 Q210 -9 224.5 -13 Q239 -17 251 -23.5 Q263 -30 269 -37 Q273 -42 281 -53.5 Q289 -65 297 -68 Q304 -63 312 -40.5 Q320 -18 327.5 15 Q335 48 341.5 86.5 Q348 125 353.5 162 Q359 199 362 230 Q365 261 365 278 Q365 294 362.5 301.5 Q360 309 355 311.5 Q350 314 343.5 313.5 Q337 313 330 313 Q316 313 308.5 312.5 Q301 312 296 297 Q294 289 293 277 Q292 265 290 257 Q287 228 277 195.5 Q267 163 239 121 Q235 115 228.5 108.5 Q222 102 215.5 95 Q209 88 204 81.5 Q199 75 198 69 Q182 58 160 47.5 Q138 37 125 37 Q114 37 103.5 44.5 Q93 52 85 62.5 Q77 73 71.5 83.5 Q66 94 66 99 Q66 120 79.5 143.5 Q93 167 109 183 L141 183 Q146 171 143.5 154 Q141 137 136 123 Q134 122 135 121 Q135 119 145 119 Q163 119 180.5 140 Q198 161 212.5 186.5 Q227 212 236.5 233.5 Q246 255 246 257 Q251 291 251 306.5 Q251 322 250.5 330.5 Q250 339 251.5 345.5 Q253 352 262 368 Q267 376 280 382.5 Q293 389 307 389 Q311 389 322.5 387.5 Q334 386 348 383 Q362 380 376 376.5 Q390 373 399 369 Q408 364 413.5 352.5 Q419 341 419 333 Q419 324 421.5 310.5 Q424 297 424 286 Z "/>
<glyph glyph-name="&amp;#xe0e;" unicode="" horiz-adv-x="419" d="M424 286 Q424 276 420.5 253 Q417 230 411 200.5 Q405 171 398.5 139 Q392 107 385.5 78.5 Q379 50 374.5 29.5 Q370 9 369 4 Q359 -40 350.5 -88 Q342 -136 337 -189 Q336 -194 329.5 -201.5 Q323 -209 324 -214 L301 -214 Q286 -190 278.5 -164 Q271 -138 261 -116.5 Q251 -95 233.5 -81.5 Q216 -68 183 -68 Q164 -68 151 -72.5 Q138 -77 126.5 -84.5 Q115 -92 102.5 -102 Q90 -112 72 -124 L81 -133 Q90 -128 102 -122 Q114 -116 126 -110.5 Q138 -105 148.5 -101.5 Q159 -98 164 -98 L188 -98 L201 -113 Q187 -127 172.5 -142 Q158 -157 142.5 -169 Q127 -181 111 -189 Q95 -197 78 -197 Q64 -197 48.5 -190 Q33 -183 20 -172 Q7 -161 -1.5 -147 Q-10 -133 -10 -118 Q-10 -99 2 -83.5 Q14 -68 33 -55 Q52 -42 74 -32.5 Q96 -23 116.5 -16.5 Q137 -10 152 -7 Q167 -4 172 -4 Q182 -4 196 -6.5 Q210 -9 224.5 -13 Q239 -17 251 -23.5 Q263 -30 269 -37 Q273 -42 281 -53.5 Q289 -65 297 -68 Q304 -63 312 -40.5 Q320 -18 327.5 15 Q335 48 341.5 86.5 Q348 125 353.5 162 Q359 199 362 230 Q365 261 365 278 Q365 294 362.5 301.5 Q360 309 355 311.5 Q350 314 343.5 313.5 Q337 313 330 313 Q316 313 308.5 312.5 Q301 312 296 297 Q294 289 293 277 Q292 265 290 257 Q287 228 277 195.5 Q267 163 239 121 Q235 115 228.5 108.5 Q222 102 215.5 95 Q209 88 204 81.5 Q199 75 198 69 Q182 58 160 47.5 Q138 37 125 37 Q114 37 103.5 44.5 Q93 52 85 62.5 Q77 73 71.5 83.5 Q66 94 66 99 Q66 120 79.5 143.5 Q93 167 109 183 L141 183 Q146 171 143.5 154 Q141 137 136 123 Q134 122 135 121 Q135 119 145 119 Q163 119 180.5 140 Q198 161 212.5 186.5 Q227 212 236.5 233.5 Q246 255 246 257 Q251 291 251 306.5 Q251 322 250.5 330.5 Q250 339 251.5 345.5 Q253 352 262 368 Q267 376 280 382.5 Q293 389 307 389 Q311 389 322.5 387.5 Q334 386 348 383 Q362 380 376 376.5 Q390 373 399 369 Q408 364 413.5 352.5 Q419 341 419 333 Q419 324 421.5 310.5 Q424 297 424 286 Z "/>
<glyph glyph-name="&amp;#xaf;" unicode="" horiz-adv-x="317" d="M351 297 Q351 292 348.5 275 Q346 258 342.5 235 Q339 212 334 186.5 Q329 161 323 140 Q303 66 278 -7 Q253 -80 233 -153 Q233 -155 231 -160 Q229 -165 226 -170.5 Q223 -176 219 -180 Q215 -184 210 -184 L190 -184 Q182 -162 180.5 -141 Q179 -120 174 -98 Q156 -113 148.5 -129 Q141 -145 136.5 -160.5 Q132 -176 128 -190.5 Q124 -205 114 -218 L86 -218 Q71 -184 58 -150.5 Q45 -117 29 -91.5 Q13 -66 -9 -50 Q-31 -34 -64 -34 Q-73 -34 -93.5 -38.5 Q-114 -43 -129 -48 Q-137 -50 -144 -59.5 Q-151 -69 -162 -69 Q-173 -69 -183.5 -61 Q-194 -53 -202 -45 L-202 -18 Q-179 -1 -161.5 9.5 Q-144 20 -129.5 25.5 Q-115 31 -101.5 33 Q-88 35 -73 35 Q-42 35 -19.5 26.5 Q3 18 21.5 2.5 Q40 -13 57 -35.5 Q74 -58 95 -86 Q107 -74 117 -55 Q127 -36 137.5 -17 Q148 2 160 15.5 Q172 29 189 29 Q199 29 210 24.5 Q221 20 231 17 Q251 69 267 124 Q283 179 285 222 Q286 230 289.5 243.5 Q293 257 293 268 Q293 272 292 279.5 Q291 287 289 294 Q287 301 283 306 Q279 311 273 311 Q253 311 239.5 289.5 Q226 268 215.5 236 Q205 204 194.5 167 Q184 130 169.5 98 Q155 66 135.5 44.5 Q116 23 86 23 Q74 23 61.5 34 Q49 45 39.5 59 Q30 73 23.5 85.5 Q17 98 17 101 Q17 111 23.5 133 Q30 155 35 172 L73 172 Q73 160 70.5 146 Q68 132 68 121 Q68 111 71 105.5 Q74 100 79 92 L94 92 Q111 101 123.5 114.5 Q136 128 145 144.5 Q154 161 160 178 Q166 195 170 211 Q173 222 175.5 240 Q178 258 182 269 Q183 273 190 292.5 Q197 312 208 334 Q219 356 232.5 374 Q246 392 261 392 Q266 392 275.5 387 Q285 382 296.5 374 Q308 366 319.5 356.5 Q331 347 340 338 Q339 330 345 318.5 Q351 307 351 297 Z "/>
<glyph glyph-name="&amp;#xe0f;" unicode="" horiz-adv-x="317" d="M351 297 Q351 292 348.5 275 Q346 258 342.5 235 Q339 212 334 186.5 Q329 161 323 140 Q303 66 278 -7 Q253 -80 233 -153 Q233 -155 231 -160 Q229 -165 226 -170.5 Q223 -176 219 -180 Q215 -184 210 -184 L190 -184 Q182 -162 180.5 -141 Q179 -120 174 -98 Q156 -113 148.5 -129 Q141 -145 136.5 -160.5 Q132 -176 128 -190.5 Q124 -205 114 -218 L86 -218 Q71 -184 58 -150.5 Q45 -117 29 -91.5 Q13 -66 -9 -50 Q-31 -34 -64 -34 Q-73 -34 -93.5 -38.5 Q-114 -43 -129 -48 Q-137 -50 -144 -59.5 Q-151 -69 -162 -69 Q-173 -69 -183.5 -61 Q-194 -53 -202 -45 L-202 -18 Q-179 -1 -161.5 9.5 Q-144 20 -129.5 25.5 Q-115 31 -101.5 33 Q-88 35 -73 35 Q-42 35 -19.5 26.5 Q3 18 21.5 2.5 Q40 -13 57 -35.5 Q74 -58 95 -86 Q107 -74 117 -55 Q127 -36 137.5 -17 Q148 2 160 15.5 Q172 29 189 29 Q199 29 210 24.5 Q221 20 231 17 Q251 69 267 124 Q283 179 285 222 Q286 230 289.5 243.5 Q293 257 293 268 Q293 272 292 279.5 Q291 287 289 294 Q287 301 283 306 Q279 311 273 311 Q253 311 239.5 289.5 Q226 268 215.5 236 Q205 204 194.5 167 Q184 130 169.5 98 Q155 66 135.5 44.5 Q116 23 86 23 Q74 23 61.5 34 Q49 45 39.5 59 Q30 73 23.5 85.5 Q17 98 17 101 Q17 111 23.5 133 Q30 155 35 172 L73 172 Q73 160 70.5 146 Q68 132 68 121 Q68 111 71 105.5 Q74 100 79 92 L94 92 Q111 101 123.5 114.5 Q136 128 145 144.5 Q154 161 160 178 Q166 195 170 211 Q173 222 175.5 240 Q178 258 182 269 Q183 273 190 292.5 Q197 312 208 334 Q219 356 232.5 374 Q246 392 261 392 Q266 392 275.5 387 Q285 382 296.5 374 Q308 366 319.5 356.5 Q331 347 340 338 Q339 330 345 318.5 Q351 307 351 297 Z "/>
<glyph glyph-name="&amp;#xb0;" unicode="" horiz-adv-x="344" d="M460 350 Q449 347 438 346.5 Q427 346 419 343 Q381 331 337 317.5 Q293 304 258 281 Q257 271 263.5 262 Q270 253 272 242 Q274 228 274.5 213.5 Q275 199 275 191 Q275 147 268 113 Q261 79 253 55.5 Q245 32 238 17.5 Q231 3 231 -2 Q231 -10 238.5 -15.5 Q246 -21 246 -27 Q245 -37 249 -47.5 Q253 -58 253 -66 Q253 -73 247 -95 Q241 -117 237 -133 Q232 -153 220.5 -175.5 Q209 -198 195 -218 Q186 -216 173 -203 Q160 -190 158 -176 Q157 -169 159 -160.5 Q161 -152 160 -146 Q158 -135 150.5 -126 Q143 -117 135 -117 Q119 -117 102.5 -129.5 Q86 -142 70 -156.5 Q54 -171 38.5 -183.5 Q23 -196 10 -196 Q-3 -196 -11 -187 Q-19 -178 -19 -167 Q-19 -164 -16 -155 Q-13 -146 -9 -135.5 Q-5 -125 0 -113.5 Q5 -102 8 -93 Q11 -91 12 -90.5 Q13 -90 21 -90 Q28 -90 33.5 -96.5 Q39 -103 47 -103 Q50 -103 57 -99 Q64 -95 72.5 -89 Q81 -83 91 -77 Q101 -71 110 -66 Q114 -64 128 -64 Q144 -64 160.5 -71.5 Q177 -79 191 -108 Q194 -108 195.5 -106 Q197 -104 199 -101 Q202 -80 199 -61 Q201 -58 203 -56 Q205 -54 205 -46 Q205 -42 199.5 -34 Q194 -26 187.5 -17.5 Q181 -9 175.5 -1 Q170 7 170 11 Q170 15 175 37.5 Q180 60 185.5 86.5 Q191 113 196 135.5 Q201 158 201 162 Q201 170 198.5 177.5 Q196 185 185 195 Q165 175 151 147 Q140 154 136 164 Q132 174 131 183 Q130 192 129 198 Q128 204 122 204 Q118 204 112.5 201.5 Q107 199 100.5 195.5 Q94 192 88 189.5 Q82 187 78 187 Q72 187 66.5 191.5 Q61 196 56.5 201.5 Q52 207 49.5 211.5 Q47 216 47 217 Q47 230 52.5 236 Q58 242 66.5 246 Q75 250 86 254 Q97 258 109 266 Q142 288 183.5 310 Q225 332 269 349.5 Q313 367 357 378 Q401 389 438 389 Q446 389 451 381 Q456 373 460 370 L460 350 Z M237 230 L230 230 L230 200 L237 200 L237 230 Z "/>
<glyph glyph-name="&amp;#xe10;" unicode="" horiz-adv-x="344" d="M460 350 Q449 347 438 346.5 Q427 346 419 343 Q381 331 337 317.5 Q293 304 258 281 Q257 271 263.5 262 Q270 253 272 242 Q274 228 274.5 213.5 Q275 199 275 191 Q275 147 268 113 Q261 79 253 55.5 Q245 32 238 17.5 Q231 3 231 -2 Q231 -10 238.5 -15.5 Q246 -21 246 -27 Q245 -37 249 -47.5 Q253 -58 253 -66 Q253 -73 247 -95 Q241 -117 237 -133 Q232 -153 220.5 -175.5 Q209 -198 195 -218 Q186 -216 173 -203 Q160 -190 158 -176 Q157 -169 159 -160.5 Q161 -152 160 -146 Q158 -135 150.5 -126 Q143 -117 135 -117 Q119 -117 102.5 -129.5 Q86 -142 70 -156.5 Q54 -171 38.5 -183.5 Q23 -196 10 -196 Q-3 -196 -11 -187 Q-19 -178 -19 -167 Q-19 -164 -16 -155 Q-13 -146 -9 -135.5 Q-5 -125 0 -113.5 Q5 -102 8 -93 Q11 -91 12 -90.5 Q13 -90 21 -90 Q28 -90 33.5 -96.5 Q39 -103 47 -103 Q50 -103 57 -99 Q64 -95 72.5 -89 Q81 -83 91 -77 Q101 -71 110 -66 Q114 -64 128 -64 Q144 -64 160.5 -71.5 Q177 -79 191 -108 Q194 -108 195.5 -106 Q197 -104 199 -101 Q202 -80 199 -61 Q201 -58 203 -56 Q205 -54 205 -46 Q205 -42 199.5 -34 Q194 -26 187.5 -17.5 Q181 -9 175.5 -1 Q170 7 170 11 Q170 15 175 37.5 Q180 60 185.5 86.5 Q191 113 196 135.5 Q201 158 201 162 Q201 170 198.5 177.5 Q196 185 185 195 Q165 175 151 147 Q140 154 136 164 Q132 174 131 183 Q130 192 129 198 Q128 204 122 204 Q118 204 112.5 201.5 Q107 199 100.5 195.5 Q94 192 88 189.5 Q82 187 78 187 Q72 187 66.5 191.5 Q61 196 56.5 201.5 Q52 207 49.5 211.5 Q47 216 47 217 Q47 230 52.5 236 Q58 242 66.5 246 Q75 250 86 254 Q97 258 109 266 Q142 288 183.5 310 Q225 332 269 349.5 Q313 367 357 378 Q401 389 438 389 Q446 389 451 381 Q456 373 460 370 L460 350 Z M237 230 L230 230 L230 200 L237 200 L237 230 Z "/>
<glyph glyph-name="&amp;#xb1;" unicode="" horiz-adv-x="443" d="M389 277 Q389 252 380.5 215.5 Q372 179 361.5 144 Q351 109 341 82.5 Q331 56 329 50 Q327 46 317.5 39 Q308 32 299 31 Q294 36 289.5 40.5 Q285 45 285 57 Q285 60 288.5 75 Q292 90 297 110 Q302 130 308 152.5 Q314 175 319.5 195 Q325 215 328.5 229.5 Q332 244 332 248 L332 280 Q319 275 315.5 271.5 Q312 268 307 266 Q268 209 248 163.5 Q228 118 213 84 Q198 50 182 28 Q166 6 137 -4 Q129 4 123.5 12 Q118 20 118 31 Q118 36 122.5 53.5 Q127 71 132.5 90.5 Q138 110 142.5 127.5 Q147 145 147 150 L147 189 Q141 193 134.5 187 Q128 181 118 181 Q108 181 95 194.5 Q82 208 73 222 Q67 220 60.5 214 Q54 208 48 202 Q42 196 36.5 191.5 Q31 187 25 187 Q15 187 5.5 198.5 Q-4 210 -4 219 Q-4 223 2 237 Q8 251 17.5 270.5 Q27 290 38.5 312 Q50 334 61 352.5 Q72 371 81 383 Q90 395 95 395 Q107 395 113.5 386 Q120 377 123.5 365 Q127 353 128 342.5 Q129 332 129 329 L129 306 L138 297 Q144 301 151 311.5 Q158 322 165.5 333 Q173 344 180.5 352 Q188 360 196 360 Q210 360 215 344 Q220 328 220.5 307.5 Q221 287 219.5 268.5 Q218 250 219 245 Q227 257 239.5 274 Q252 291 264 305 Q271 313 280 323.5 Q289 334 299 343.5 Q309 353 319.5 359.5 Q330 366 340 366 Q354 366 363.5 355.5 Q373 345 378.5 330.5 Q384 316 386.5 301 Q389 286 389 277 Z "/>
<glyph glyph-name="&amp;#xe11;" unicode="" horiz-adv-x="443" d="M389 277 Q389 252 380.5 215.5 Q372 179 361.5 144 Q351 109 341 82.5 Q331 56 329 50 Q327 46 317.5 39 Q308 32 299 31 Q294 36 289.5 40.5 Q285 45 285 57 Q285 60 288.5 75 Q292 90 297 110 Q302 130 308 152.5 Q314 175 319.5 195 Q325 215 328.5 229.5 Q332 244 332 248 L332 280 Q319 275 315.5 271.5 Q312 268 307 266 Q268 209 248 163.5 Q228 118 213 84 Q198 50 182 28 Q166 6 137 -4 Q129 4 123.5 12 Q118 20 118 31 Q118 36 122.5 53.5 Q127 71 132.5 90.5 Q138 110 142.5 127.5 Q147 145 147 150 L147 189 Q141 193 134.5 187 Q128 181 118 181 Q108 181 95 194.5 Q82 208 73 222 Q67 220 60.5 214 Q54 208 48 202 Q42 196 36.5 191.5 Q31 187 25 187 Q15 187 5.5 198.5 Q-4 210 -4 219 Q-4 223 2 237 Q8 251 17.5 270.5 Q27 290 38.5 312 Q50 334 61 352.5 Q72 371 81 383 Q90 395 95 395 Q107 395 113.5 386 Q120 377 123.5 365 Q127 353 128 342.5 Q129 332 129 329 L129 306 L138 297 Q144 301 151 311.5 Q158 322 165.5 333 Q173 344 180.5 352 Q188 360 196 360 Q210 360 215 344 Q220 328 220.5 307.5 Q221 287 219.5 268.5 Q218 250 219 245 Q227 257 239.5 274 Q252 291 264 305 Q271 313 280 323.5 Q289 334 299 343.5 Q309 353 319.5 359.5 Q330 366 340 366 Q354 366 363.5 355.5 Q373 345 378.5 330.5 Q384 316 386.5 301 Q389 286 389 277 Z "/>
<glyph glyph-name="&amp;#xb2;" unicode="" horiz-adv-x="505" d="M496 332 Q496 328 490.5 317.5 Q485 307 478 294 Q471 281 463.5 267 Q456 253 453 241 Q448 227 450.5 211 Q453 195 451 179 Q449 159 443 136.5 Q437 114 432 91 Q430 86 423 80 Q416 74 406 74 Q394 74 386.5 83 Q379 92 371.5 102.5 Q364 113 353 122 Q342 131 323 131 Q311 131 302.5 117 Q294 103 286.5 86.5 Q279 70 271 56.5 Q263 43 251 43 Q239 43 231.5 48 Q224 53 219.5 60.5 Q215 68 213.5 76.5 Q212 85 212 92 Q212 121 221.5 139.5 Q231 158 243 172.5 Q255 187 264.5 200.5 Q274 214 274 234 Q274 239 273.5 246 Q273 253 271.5 259.5 Q270 266 266 270.5 Q262 275 256 275 Q250 275 238 270 Q226 265 214 257.5 Q202 250 192.5 241.5 Q183 233 182 226 Q180 210 183 191.5 Q186 173 182 153 Q181 148 172.5 124 Q164 100 151 72.5 Q138 45 121.5 23 Q105 1 88 1 Q74 1 63 6 Q52 11 45 34 Q40 53 40 80 Q40 107 40 128 Q40 137 30.5 150.5 Q21 164 21 175 Q21 190 26.5 194 Q32 198 38.5 205.5 Q45 213 50.5 232.5 Q56 252 55 299 Q64 316 67.5 340 Q71 364 79 393 L118 393 Q118 379 120.5 359 Q123 339 120 323 Q118 324 117 324 Q114 324 114 315 L114 279 L122 270 Q144 288 161.5 301 Q179 314 194 322 Q209 330 223.5 333.5 Q238 337 256 337 Q271 337 282 331 Q293 325 300.5 314.5 Q308 304 314.5 290.5 Q321 277 327 263 Q320 237 323.5 219 Q327 201 337 189 Q347 177 360 168 Q373 159 385 151 Q389 155 391.5 160.5 Q394 166 396 170 Q398 193 400.5 213 Q403 233 407 263 Q407 267 412.5 284 Q418 301 426.5 319.5 Q435 338 444.5 353 Q454 368 463 368 Q472 368 478 363 Q484 358 488 351.5 Q492 345 494 339 Q496 333 496 332 Z M132 193 Q132 192 123.5 182.5 Q115 173 105 160.5 Q95 148 86.5 135 Q78 122 78 115 Q78 107 85 99.5 Q92 92 96 84 Q103 97 111 111.5 Q119 126 125 140.5 Q131 155 133.5 168.5 Q136 182 132 193 Z "/>
<glyph glyph-name="&amp;#xe12;" unicode="" horiz-adv-x="505" d="M496 332 Q496 328 490.5 317.5 Q485 307 478 294 Q471 281 463.5 267 Q456 253 453 241 Q448 227 450.5 211 Q453 195 451 179 Q449 159 443 136.5 Q437 114 432 91 Q430 86 423 80 Q416 74 406 74 Q394 74 386.5 83 Q379 92 371.5 102.5 Q364 113 353 122 Q342 131 323 131 Q311 131 302.5 117 Q294 103 286.5 86.5 Q279 70 271 56.5 Q263 43 251 43 Q239 43 231.5 48 Q224 53 219.5 60.5 Q215 68 213.5 76.5 Q212 85 212 92 Q212 121 221.5 139.5 Q231 158 243 172.5 Q255 187 264.5 200.5 Q274 214 274 234 Q274 239 273.5 246 Q273 253 271.5 259.5 Q270 266 266 270.5 Q262 275 256 275 Q250 275 238 270 Q226 265 214 257.5 Q202 250 192.5 241.5 Q183 233 182 226 Q180 210 183 191.5 Q186 173 182 153 Q181 148 172.5 124 Q164 100 151 72.5 Q138 45 121.5 23 Q105 1 88 1 Q74 1 63 6 Q52 11 45 34 Q40 53 40 80 Q40 107 40 128 Q40 137 30.5 150.5 Q21 164 21 175 Q21 190 26.5 194 Q32 198 38.5 205.5 Q45 213 50.5 232.5 Q56 252 55 299 Q64 316 67.5 340 Q71 364 79 393 L118 393 Q118 379 120.5 359 Q123 339 120 323 Q118 324 117 324 Q114 324 114 315 L114 279 L122 270 Q144 288 161.5 301 Q179 314 194 322 Q209 330 223.5 333.5 Q238 337 256 337 Q271 337 282 331 Q293 325 300.5 314.5 Q308 304 314.5 290.5 Q321 277 327 263 Q320 237 323.5 219 Q327 201 337 189 Q347 177 360 168 Q373 159 385 151 Q389 155 391.5 160.5 Q394 166 396 170 Q398 193 400.5 213 Q403 233 407 263 Q407 267 412.5 284 Q418 301 426.5 319.5 Q435 338 444.5 353 Q454 368 463 368 Q472 368 478 363 Q484 358 488 351.5 Q492 345 494 339 Q496 333 496 332 Z M132 193 Q132 192 123.5 182.5 Q115 173 105 160.5 Q95 148 86.5 135 Q78 122 78 115 Q78 107 85 99.5 Q92 92 96 84 Q103 97 111 111.5 Q119 126 125 140.5 Q131 155 133.5 168.5 Q136 182 132 193 Z "/>
<glyph glyph-name="&amp;#xb3;" unicode="" horiz-adv-x="542" d="M507 358 Q507 354 498 338 Q489 322 478.5 299 Q468 276 459 249 Q450 222 451 197 Q451 193 447.5 186.5 Q444 180 444 171 Q444 166 447.5 155.5 Q451 145 455.5 134 Q460 123 463.5 112.5 Q467 102 467 96 Q467 86 464 74 Q461 62 456.5 51.5 Q452 41 445.5 34 Q439 27 433 27 Q425 27 417.5 35.5 Q410 44 403.5 55 Q397 66 391.5 76.5 Q386 87 383 91 Q372 89 355.5 74.5 Q339 60 323 43 Q307 26 293.5 12.5 Q280 -1 274 -1 Q269 -1 262.5 3 Q256 7 250.5 12.5 Q245 18 241 24.5 Q237 31 237 36 Q237 39 241 55 Q245 71 250.5 93 Q256 115 263 139.5 Q270 164 275.5 186 Q281 208 285 223.5 Q289 239 289 243 Q289 252 283.5 262.5 Q278 273 270.5 282 Q263 291 254.5 297 Q246 303 240 303 Q235 303 226 303 Q217 303 205.5 302 Q194 301 182.5 298 Q171 295 161 290 Q151 285 145.5 273 Q140 261 136 247.5 Q132 234 130 221.5 Q128 209 125 202 Q120 185 115 170 Q110 155 110 140 Q110 135 113 127 Q116 119 119 110 Q122 101 123.5 91.5 Q125 82 123 75 Q119 61 106 38.5 Q93 16 79 -1 Q71 4 62.5 8 Q54 12 46.5 16.5 Q39 21 34.5 27.5 Q30 34 30 45 Q30 49 35.5 76 Q41 103 49.5 138.5 Q58 174 67.5 212.5 Q77 251 85 278 Q91 296 99.5 324 Q108 352 106 377 Q110 377 113.5 380.5 Q117 384 128 384 Q138 384 143.5 375.5 Q149 367 159 367 Q165 367 173.5 368.5 Q182 370 191 372.5 Q200 375 208.5 376.5 Q217 378 223 378 Q233 378 252.5 368.5 Q272 359 285 353 Q295 348 308.5 332 Q322 316 327 301 Q336 268 334.5 234 Q333 200 333 165 Q341 173 354.5 179 Q368 185 385 205 Q387 207 391 221.5 Q395 236 400.5 257 Q406 278 413.5 302.5 Q421 327 428.5 347.5 Q436 368 444.5 381.5 Q453 395 461 395 Q467 395 474.5 391 Q482 387 489.5 381.5 Q497 376 502 369.5 Q507 363 507 358 Z "/>
<glyph glyph-name="&amp;#xe13;" unicode="" horiz-adv-x="542" d="M507 358 Q507 354 498 338 Q489 322 478.5 299 Q468 276 459 249 Q450 222 451 197 Q451 193 447.5 186.5 Q444 180 444 171 Q444 166 447.5 155.5 Q451 145 455.5 134 Q460 123 463.5 112.5 Q467 102 467 96 Q467 86 464 74 Q461 62 456.5 51.5 Q452 41 445.5 34 Q439 27 433 27 Q425 27 417.5 35.5 Q410 44 403.5 55 Q397 66 391.5 76.5 Q386 87 383 91 Q372 89 355.5 74.5 Q339 60 323 43 Q307 26 293.5 12.5 Q280 -1 274 -1 Q269 -1 262.5 3 Q256 7 250.5 12.5 Q245 18 241 24.5 Q237 31 237 36 Q237 39 241 55 Q245 71 250.5 93 Q256 115 263 139.5 Q270 164 275.5 186 Q281 208 285 223.5 Q289 239 289 243 Q289 252 283.5 262.5 Q278 273 270.5 282 Q263 291 254.5 297 Q246 303 240 303 Q235 303 226 303 Q217 303 205.5 302 Q194 301 182.5 298 Q171 295 161 290 Q151 285 145.5 273 Q140 261 136 247.5 Q132 234 130 221.5 Q128 209 125 202 Q120 185 115 170 Q110 155 110 140 Q110 135 113 127 Q116 119 119 110 Q122 101 123.5 91.5 Q125 82 123 75 Q119 61 106 38.5 Q93 16 79 -1 Q71 4 62.5 8 Q54 12 46.5 16.5 Q39 21 34.5 27.5 Q30 34 30 45 Q30 49 35.5 76 Q41 103 49.5 138.5 Q58 174 67.5 212.5 Q77 251 85 278 Q91 296 99.5 324 Q108 352 106 377 Q110 377 113.5 380.5 Q117 384 128 384 Q138 384 143.5 375.5 Q149 367 159 367 Q165 367 173.5 368.5 Q182 370 191 372.5 Q200 375 208.5 376.5 Q217 378 223 378 Q233 378 252.5 368.5 Q272 359 285 353 Q295 348 308.5 332 Q322 316 327 301 Q336 268 334.5 234 Q333 200 333 165 Q341 173 354.5 179 Q368 185 385 205 Q387 207 391 221.5 Q395 236 400.5 257 Q406 278 413.5 302.5 Q421 327 428.5 347.5 Q436 368 444.5 381.5 Q453 395 461 395 Q467 395 474.5 391 Q482 387 489.5 381.5 Q497 376 502 369.5 Q507 363 507 358 Z "/>
<glyph glyph-name="&amp;#xb4;" unicode="" horiz-adv-x="432" d="M366 282 Q366 271 361 250.5 Q356 230 349 205 Q342 180 333 153.5 Q324 127 315.5 105 Q307 83 300.5 68.5 Q294 54 291 53 Q288 51 288.5 51 Q289 51 278 51 Q269 51 257 58 Q245 65 245 76 Q245 80 249 89 Q253 98 258.5 109 Q264 120 270 132 Q276 144 280 154 Q286 172 293 193 Q300 214 305 233.5 Q310 253 313.5 268 Q317 283 317 288 Q317 301 311 308.5 Q305 316 296.5 320 Q288 324 279.5 325 Q271 326 267 326 Q262 326 249.5 323.5 Q237 321 221 316.5 Q205 312 188 306.5 Q171 301 157 295 Q158 291 163 288.5 Q168 286 174 283.5 Q180 281 186 278 Q192 275 195 270 Q203 259 210.5 239 Q218 219 218 208 Q218 199 214 187 Q210 175 208 163 Q205 152 192 124.5 Q179 97 161.5 68.5 Q144 40 125 18 Q106 -4 91 -4 Q84 -4 74.5 4.5 Q65 13 56.5 24.5 Q48 36 42 48 Q36 60 36 68 Q36 72 38.5 87.5 Q41 103 44.5 123 Q48 143 52.5 165 Q57 187 62 203 Q64 214 67 229.5 Q70 245 72 258 Q75 271 77.5 286 Q80 301 84.5 316.5 Q89 332 96 346 Q103 360 114 370 Q126 381 148 386.5 Q170 392 192 394.5 Q214 397 232.5 397.5 Q251 398 256 398 Q286 398 306.5 388 Q327 378 340.5 361.5 Q354 345 360 324 Q366 303 366 282 Z M156 210 Q148 206 135.5 199.5 Q123 193 115 192 Q112 182 109 169.5 Q106 157 103 145 Q100 133 98 123 Q96 113 96 109 Q96 101 102 97 Q105 95 108 95 Q115 105 123.5 119 Q132 133 139.5 146 Q147 159 151.5 169.5 Q156 180 156 185 L156 210 Z "/>
<glyph glyph-name="&amp;#xe14;" unicode="" horiz-adv-x="432" d="M366 282 Q366 271 361 250.5 Q356 230 349 205 Q342 180 333 153.5 Q324 127 315.5 105 Q307 83 300.5 68.5 Q294 54 291 53 Q288 51 288.5 51 Q289 51 278 51 Q269 51 257 58 Q245 65 245 76 Q245 80 249 89 Q253 98 258.5 109 Q264 120 270 132 Q276 144 280 154 Q286 172 293 193 Q300 214 305 233.5 Q310 253 313.5 268 Q317 283 317 288 Q317 301 311 308.5 Q305 316 296.5 320 Q288 324 279.5 325 Q271 326 267 326 Q262 326 249.5 323.5 Q237 321 221 316.5 Q205 312 188 306.5 Q171 301 157 295 Q158 291 163 288.5 Q168 286 174 283.5 Q180 281 186 278 Q192 275 195 270 Q203 259 210.5 239 Q218 219 218 208 Q218 199 214 187 Q210 175 208 163 Q205 152 192 124.5 Q179 97 161.5 68.5 Q144 40 125 18 Q106 -4 91 -4 Q84 -4 74.5 4.5 Q65 13 56.5 24.5 Q48 36 42 48 Q36 60 36 68 Q36 72 38.5 87.5 Q41 103 44.5 123 Q48 143 52.5 165 Q57 187 62 203 Q64 214 67 229.5 Q70 245 72 258 Q75 271 77.5 286 Q80 301 84.5 316.5 Q89 332 96 346 Q103 360 114 370 Q126 381 148 386.5 Q170 392 192 394.5 Q214 397 232.5 397.5 Q251 398 256 398 Q286 398 306.5 388 Q327 378 340.5 361.5 Q354 345 360 324 Q366 303 366 282 Z M156 210 Q148 206 135.5 199.5 Q123 193 115 192 Q112 182 109 169.5 Q106 157 103 145 Q100 133 98 123 Q96 113 96 109 Q96 101 102 97 Q105 95 108 95 Q115 105 123.5 119 Q132 133 139.5 146 Q147 159 151.5 169.5 Q156 180 156 185 L156 210 Z "/>
<glyph glyph-name="&amp;#xb5;" unicode="" horiz-adv-x="426" d="M384 315 Q384 284 368 244 Q352 204 340 164 Q337 154 335.5 137 Q334 120 336 109 Q341 92 343.5 74.5 Q346 57 332 40 Q327 38 324 35 Q321 32 310 32 Q303 32 296 39.5 Q289 47 283.5 56 Q278 65 274.5 74 Q271 83 271 86 Q271 90 272.5 99 Q274 108 276 119 Q278 130 279.5 141 Q281 152 280 161 Q282 162 289.5 182.5 Q297 203 305.5 228.5 Q314 254 320.5 278 Q327 302 327 312 Q327 323 322 325 Q317 327 313 332 Q308 330 292 321.5 Q276 313 259 302 Q242 291 228 279.5 Q214 268 214 261 Q214 258 218.5 252 Q223 246 228.5 239 Q234 232 238.5 225 Q243 218 243 213 Q243 207 237.5 188.5 Q232 170 223 146 Q214 122 202.5 96 Q191 70 178 48 Q165 26 152 12 Q139 -2 127 -2 Q114 -2 103.5 8 Q93 18 86 31 Q79 44 74.5 56.5 Q70 69 69 74 Q67 83 67 97.5 Q67 112 69 125 Q64 131 57 138.5 Q50 146 43.5 153 Q37 160 32.5 167 Q28 174 28 179 Q28 192 35.5 199.5 Q43 207 53.5 218 Q64 229 73.5 247.5 Q83 266 88 301 Q90 315 93.5 335.5 Q97 356 99 375 L101 379 Q102 381 102 383 Q102 385 103 387 Q108 391 116 392.5 Q124 394 135 394 Q145 394 149 384.5 Q153 375 154 362.5 Q155 350 153.5 337.5 Q152 325 152 319 Q156 314 154.5 314.5 Q153 315 164 315 Q177 315 193 328 Q209 341 228.5 357 Q248 373 270.5 386 Q293 399 319 399 Q340 399 353 390.5 Q366 382 372.5 369.5 Q379 357 381.5 342.5 Q384 328 384 315 Z M154 190 Q146 185 136.5 180 Q127 175 119 167 Q119 149 123 131 Q127 113 132 100 Q160 131 180 190 L154 190 Z "/>
<glyph glyph-name="&amp;#xe15;" unicode="" horiz-adv-x="426" d="M384 315 Q384 284 368 244 Q352 204 340 164 Q337 154 335.5 137 Q334 120 336 109 Q341 92 343.5 74.5 Q346 57 332 40 Q327 38 324 35 Q321 32 310 32 Q303 32 296 39.5 Q289 47 283.5 56 Q278 65 274.5 74 Q271 83 271 86 Q271 90 272.5 99 Q274 108 276 119 Q278 130 279.5 141 Q281 152 280 161 Q282 162 289.5 182.5 Q297 203 305.5 228.5 Q314 254 320.5 278 Q327 302 327 312 Q327 323 322 325 Q317 327 313 332 Q308 330 292 321.5 Q276 313 259 302 Q242 291 228 279.5 Q214 268 214 261 Q214 258 218.5 252 Q223 246 228.5 239 Q234 232 238.5 225 Q243 218 243 213 Q243 207 237.5 188.5 Q232 170 223 146 Q214 122 202.5 96 Q191 70 178 48 Q165 26 152 12 Q139 -2 127 -2 Q114 -2 103.5 8 Q93 18 86 31 Q79 44 74.5 56.5 Q70 69 69 74 Q67 83 67 97.5 Q67 112 69 125 Q64 131 57 138.5 Q50 146 43.5 153 Q37 160 32.5 167 Q28 174 28 179 Q28 192 35.5 199.5 Q43 207 53.5 218 Q64 229 73.5 247.5 Q83 266 88 301 Q90 315 93.5 335.5 Q97 356 99 375 L101 379 Q102 381 102 383 Q102 385 103 387 Q108 391 116 392.5 Q124 394 135 394 Q145 394 149 384.5 Q153 375 154 362.5 Q155 350 153.5 337.5 Q152 325 152 319 Q156 314 154.5 314.5 Q153 315 164 315 Q177 315 193 328 Q209 341 228.5 357 Q248 373 270.5 386 Q293 399 319 399 Q340 399 353 390.5 Q366 382 372.5 369.5 Q379 357 381.5 342.5 Q384 328 384 315 Z M154 190 Q146 185 136.5 180 Q127 175 119 167 Q119 149 123 131 Q127 113 132 100 Q160 131 180 190 L154 190 Z "/>
<glyph glyph-name="&amp;#xb6;" unicode="" horiz-adv-x="402" d="M347 271 Q347 267 345 254.5 Q343 242 340 226 Q337 210 333 193 Q329 176 325 163 Q324 158 320.5 151 Q317 144 314 139 Q312 125 314 112 Q316 99 316.5 85.5 Q317 72 314 58.5 Q311 45 299 32 Q291 32 283 36.5 Q275 41 268.5 48.5 Q262 56 258 65 Q254 74 254 82 Q254 85 257 100 Q260 115 264.5 135 Q269 155 274.5 178 Q280 201 284.5 221 Q289 241 292 255.5 Q295 270 295 274 Q295 295 287 309.5 Q279 324 260 324 Q238 324 216 312 Q194 300 176.5 282.5 Q159 265 148 245.5 Q137 226 137 210 Q137 199 140 201.5 Q143 204 144 200 Q148 196 152.5 186.5 Q157 177 161.5 166 Q166 155 169 145 Q172 135 172 131 Q172 117 166 95 Q160 73 149.5 52.5 Q139 32 123 17.5 Q107 3 88 3 Q76 3 67.5 10.5 Q59 18 54 28 Q49 38 46.5 47.5 Q44 57 44 61 Q44 66 52.5 98 Q61 130 73.5 173.5 Q86 217 99.5 263.5 Q113 310 122 344 Q152 362 187.5 378 Q223 394 257 394 Q269 394 282 392 Q295 390 306.5 381.5 Q318 373 326.5 357.5 Q335 342 337 315 Q338 304 342.5 293 Q347 282 347 271 Z "/>
<glyph glyph-name="&amp;#xe16;" unicode="" horiz-adv-x="402" d="M347 271 Q347 267 345 254.5 Q343 242 340 226 Q337 210 333 193 Q329 176 325 163 Q324 158 320.5 151 Q317 144 314 139 Q312 125 314 112 Q316 99 316.5 85.5 Q317 72 314 58.5 Q311 45 299 32 Q291 32 283 36.5 Q275 41 268.5 48.5 Q262 56 258 65 Q254 74 254 82 Q254 85 257 100 Q260 115 264.5 135 Q269 155 274.5 178 Q280 201 284.5 221 Q289 241 292 255.5 Q295 270 295 274 Q295 295 287 309.5 Q279 324 260 324 Q238 324 216 312 Q194 300 176.5 282.5 Q159 265 148 245.5 Q137 226 137 210 Q137 199 140 201.5 Q143 204 144 200 Q148 196 152.5 186.5 Q157 177 161.5 166 Q166 155 169 145 Q172 135 172 131 Q172 117 166 95 Q160 73 149.5 52.5 Q139 32 123 17.5 Q107 3 88 3 Q76 3 67.5 10.5 Q59 18 54 28 Q49 38 46.5 47.5 Q44 57 44 61 Q44 66 52.5 98 Q61 130 73.5 173.5 Q86 217 99.5 263.5 Q113 310 122 344 Q152 362 187.5 378 Q223 394 257 394 Q269 394 282 392 Q295 390 306.5 381.5 Q318 373 326.5 357.5 Q335 342 337 315 Q338 304 342.5 293 Q347 282 347 271 Z "/>
<glyph glyph-name="&amp;#xb7;" unicode="" horiz-adv-x="447" d="M400 280 Q400 245 396.5 222 Q393 199 387.5 176.5 Q382 154 374.5 126 Q367 98 358 52 Q357 47 352.5 42 Q348 37 343 32 L309 32 Q304 41 303 49 Q302 57 302 68 Q302 74 308.5 101 Q315 128 323 160 Q331 192 337.5 219 Q344 246 344 252 Q344 262 342.5 269.5 Q341 277 332 277 Q314 277 294.5 256.5 Q275 236 255.5 205 Q236 174 217 138.5 Q198 103 181.5 72 Q165 41 151 20.5 Q137 0 127 0 Q116 0 108.5 6 Q101 12 96 20 Q91 28 89 35.5 Q87 43 87 46 Q87 50 92 67.5 Q97 85 104.5 109.5 Q112 134 120.5 161.5 Q129 189 136.5 213.5 Q144 238 149 255.5 Q154 273 154 277 Q154 287 151 292.5 Q148 298 139 307 Q127 298 113.5 283.5 Q100 269 87 255 Q74 241 63.5 231 Q53 221 47 221 Q36 221 24.5 232.5 Q13 244 13 255 Q13 260 19.5 272.5 Q26 285 35 300 Q44 315 55 329.5 Q66 344 75 353 Q82 360 93 367.5 Q104 375 115 380.5 Q126 386 135.5 389.5 Q145 393 151 393 Q176 393 185.5 376.5 Q195 360 197 338 Q199 316 199.5 293.5 Q200 271 207 258 Q227 272 245.5 293 Q264 314 281 333.5 Q298 353 313.5 367 Q329 381 344 381 Q368 381 379.5 367.5 Q391 354 395.5 336.5 Q400 319 400 302.5 Q400 286 400 280 Z "/>
<glyph glyph-name="&amp;#xe17;" unicode="" horiz-adv-x="447" d="M400 280 Q400 245 396.5 222 Q393 199 387.5 176.5 Q382 154 374.5 126 Q367 98 358 52 Q357 47 352.5 42 Q348 37 343 32 L309 32 Q304 41 303 49 Q302 57 302 68 Q302 74 308.5 101 Q315 128 323 160 Q331 192 337.5 219 Q344 246 344 252 Q344 262 342.5 269.5 Q341 277 332 277 Q314 277 294.5 256.5 Q275 236 255.5 205 Q236 174 217 138.5 Q198 103 181.5 72 Q165 41 151 20.5 Q137 0 127 0 Q116 0 108.5 6 Q101 12 96 20 Q91 28 89 35.5 Q87 43 87 46 Q87 50 92 67.5 Q97 85 104.5 109.5 Q112 134 120.5 161.5 Q129 189 136.5 213.5 Q144 238 149 255.5 Q154 273 154 277 Q154 287 151 292.5 Q148 298 139 307 Q127 298 113.5 283.5 Q100 269 87 255 Q74 241 63.5 231 Q53 221 47 221 Q36 221 24.5 232.5 Q13 244 13 255 Q13 260 19.5 272.5 Q26 285 35 300 Q44 315 55 329.5 Q66 344 75 353 Q82 360 93 367.5 Q104 375 115 380.5 Q126 386 135.5 389.5 Q145 393 151 393 Q176 393 185.5 376.5 Q195 360 197 338 Q199 316 199.5 293.5 Q200 271 207 258 Q227 272 245.5 293 Q264 314 281 333.5 Q298 353 313.5 367 Q329 381 344 381 Q368 381 379.5 367.5 Q391 354 395.5 336.5 Q400 319 400 302.5 Q400 286 400 280 Z "/>
</font>
</defs>
</svg>
